<svg width="20" height="20" viewBox="0 0 20 20" fill="none" xmlns="http://www.w3.org/2000/svg">
<path fill-rule="evenodd" clip-rule="evenodd" d="M5.61403 0H14.386C15.8749 0 17.3029 0.591477 18.3557 1.64431C19.4085 2.69715 20 4.1251 20 5.61403V14.386C20 15.8749 19.4085 17.3029 18.3557 18.3557C17.3029 19.4085 15.8749 20 14.386 20H5.61403C4.1251 20 2.69715 19.4085 1.64431 18.3557C0.591477 17.3029 0 15.8749 0 14.386V5.61403C0 4.1251 0.591477 2.69715 1.64431 1.64431C2.69715 0.591477 4.1251 0 5.61403 0ZM5.61403 2.10526H14.386C15.3165 2.10526 16.209 2.47494 16.867 3.13296C17.5251 3.79098 17.8947 4.68345 17.8947 5.61403V14.386C17.8947 15.3165 17.5251 16.209 16.867 16.867C16.209 17.5251 15.3165 17.8947 14.386 17.8947H5.61403C4.68345 17.8947 3.79098 17.5251 3.13296 16.867C2.47494 16.209 2.10526 15.3165 2.10526 14.386V5.61403C2.10526 4.68345 2.47494 3.79098 3.13296 3.13296C3.79098 2.47494 4.68345 2.10526 5.61403 2.10526Z" fill="#AFAFAF"/>
<path fill-rule="evenodd" clip-rule="evenodd" d="M6.77497 6.7735C7.6304 5.91807 8.79061 5.4375 10.0004 5.4375C11.2101 5.4375 12.3703 5.91807 13.2258 6.7735C14.0812 7.62893 14.5618 8.78914 14.5618 9.9989C14.5618 11.2087 14.0812 12.3689 13.2258 13.2243C12.3703 14.0797 11.2101 14.5603 10.0004 14.5603C8.79061 14.5603 7.6304 14.0797 6.77497 13.2243C5.91954 12.3689 5.43896 11.2087 5.43896 9.9989C5.43896 8.78914 5.91954 7.62893 6.77497 6.7735ZM10.0004 7.54276C9.34896 7.54276 8.72423 7.80153 8.26361 8.26215C7.803 8.72277 7.54423 9.34749 7.54423 9.9989C7.54423 10.6503 7.803 11.275 8.26361 11.7357C8.72423 12.1963 9.34896 12.455 10.0004 12.455C10.6518 12.455 11.2765 12.1963 11.7371 11.7357C12.1977 11.275 12.4565 10.6503 12.4565 9.9989C12.4565 9.34749 12.1977 8.72277 11.7371 8.26215C11.2765 7.80153 10.6518 7.54276 10.0004 7.54276Z" fill="#AFAFAF"/>
<path d="M14.9999 6.40409C15.2791 6.40409 15.5468 6.29319 15.7442 6.09578C15.9416 5.89838 16.0525 5.63064 16.0525 5.35146C16.0525 5.07228 15.9416 4.80454 15.7442 4.60714C15.5468 4.40973 15.2791 4.29883 14.9999 4.29883C14.7207 4.29883 14.453 4.40973 14.2556 4.60714C14.0582 4.80454 13.9473 5.07228 13.9473 5.35146C13.9473 5.63064 14.0582 5.89838 14.2556 6.09578C14.453 6.29319 14.7207 6.40409 14.9999 6.40409Z" fill="#AFAFAF"/>
</svg>
