<svg width="13" height="20" viewBox="0 0 13 20" fill="none" xmlns="http://www.w3.org/2000/svg">
<path fill-rule="evenodd" clip-rule="evenodd" d="M10.7895 0C11.9522 0 12.8947 0.942558 12.8947 2.10526V5.26316C12.8947 5.89195 12.6191 6.45635 12.182 6.84211C12.2787 6.92739 12.3681 7.02207 12.4489 7.12545C12.8478 7.63643 12.9891 8.30273 12.8319 8.93165L12.0424 12.0895C11.8081 13.0267 10.966 13.6842 10 13.6842H9.73684V17.8947C9.73684 19.0574 8.79428 20 7.63158 20H4.47368C3.31098 20 2.36842 19.0574 2.36842 17.8947V13.6842H2.10526C0.942558 13.6842 0 12.7417 0 11.5789V8.42105C0 7.25835 0.942558 6.31579 2.10526 6.31579H2.36842V6.05263C2.36842 4.44737 3.00611 2.90786 4.1412 1.77277C5.27628 0.637686 6.8158 0 8.42105 0H10.7895ZM7.63158 8.42105V6.05263C7.63158 5.84325 7.71476 5.64244 7.86281 5.49439C8.01087 5.34634 8.21167 5.26316 8.42105 5.26316H10.7895V2.10526H8.42105C7.37415 2.10526 6.37012 2.52115 5.62984 3.26142C4.88957 4.0017 4.47368 5.00572 4.47368 6.05263V8.42105H2.10526V11.5789H4.47368V17.8947H7.63158V11.5789H10L10.7895 8.42105H7.63158Z" fill="#AFAFAF"/>
</svg>
