<svg width="27" height="35" viewBox="0 0 27 35" fill="none" xmlns="http://www.w3.org/2000/svg">
<path d="M13.2274 22.5279C11.9474 22.5279 11.0354 22.3679 10.4914 22.0479C9.97943 21.6959 9.65943 21.2639 9.53143 20.7519C9.43543 20.2079 9.38743 19.6319 9.38743 19.0239V18.6879C9.38743 17.6959 9.61143 16.9119 10.0594 16.3359C10.5394 15.7279 11.1314 15.2479 11.8354 14.8959C12.5394 14.5439 13.2914 14.2559 14.0914 14.0319C14.8914 13.7759 15.6434 13.5199 16.3474 13.2639C17.0834 13.0079 17.6754 12.6879 18.1234 12.3039C18.5714 11.9199 18.7954 11.3919 18.7954 10.7199C18.7954 9.75986 18.3474 9.03986 17.4514 8.55986C16.5554 8.07986 15.0514 7.83986 12.9394 7.83986C11.6274 7.83986 10.6034 7.93586 9.86743 8.12786C9.16343 8.31986 8.65143 8.54386 8.33143 8.79986C8.04343 9.05586 7.83543 9.27986 7.70743 9.47186C7.29143 10.3039 6.87543 10.9599 6.45943 11.4399C6.07543 11.9199 5.59543 12.2079 5.01943 12.3039C4.47543 12.3679 3.73943 12.2239 2.81143 11.8719C1.88343 11.4879 1.21143 11.1199 0.795429 10.7679C0.379429 10.4159 0.123429 10.0319 0.0274286 9.61586C-0.0365714 9.16786 0.0114285 8.63986 0.171429 8.03186C0.171429 7.45586 0.363429 6.83186 0.747429 6.15986C1.16343 5.45586 1.73943 4.76786 2.47543 4.09586C3.24343 3.39186 4.13943 2.75186 5.16343 2.17586C6.21943 1.59986 7.38743 1.13586 8.66743 0.783858C9.97943 0.431859 11.4034 0.255859 12.9394 0.255859C15.6594 0.255859 18.0114 0.735859 19.9954 1.69586C21.9794 2.65586 23.5154 3.91986 24.6034 5.48786C25.6914 7.02386 26.2354 8.71986 26.2354 10.5759C26.2354 11.9199 25.9474 13.0879 25.3714 14.0799C24.8274 15.0719 24.1234 15.9199 23.2594 16.6239C22.3954 17.2959 21.4994 17.8399 20.5714 18.2559C19.6754 18.6719 18.8754 18.9759 18.1714 19.1679C17.4674 19.3599 16.9874 19.4559 16.7314 19.4559L17.1154 18.9279V19.5039C17.1154 20.0159 17.0514 20.5119 16.9234 20.9919C16.7954 21.4399 16.4594 21.8079 15.9154 22.0959C15.3714 22.3839 14.4754 22.5279 13.2274 22.5279Z" fill="#D5E839"/>
<path d="M13.0834 34.2398C11.2914 34.2398 10.1074 33.9198 9.53139 33.2798C8.98739 32.6078 8.71539 31.4558 8.71539 29.8238C8.71539 29.1198 8.77939 28.4318 8.90739 27.7598C9.03539 27.0878 9.40339 26.5438 10.0114 26.1278C10.6194 25.6798 11.6594 25.4558 13.1314 25.4558C14.9234 25.4558 16.0914 25.8078 16.6354 26.5118C17.2114 27.1838 17.4994 28.3198 17.4994 29.9198C17.4994 30.6238 17.4354 31.3118 17.3074 31.9838C17.1794 32.6558 16.8114 33.1998 16.2034 33.6158C15.5954 34.0318 14.5554 34.2398 13.0834 34.2398Z" fill="#27272B"/>
</svg>
