<svg width="41" height="31" viewBox="0 0 41 31" fill="none" xmlns="http://www.w3.org/2000/svg">
<path d="M26.5587 9.25753C25.4112 6.53748 23.4823 4.21676 21.0149 2.58752C18.5475 0.95828 15.6519 0.0933518 12.6926 0.101621H5.53831V1.35813C5.54046 3.16175 6.26001 4.89086 7.53909 6.16608C8.81818 7.44131 10.5523 8.15849 12.361 8.16028H13.0134C14.8038 8.25888 16.4884 9.03704 17.7217 10.3351C18.9549 11.6331 19.6432 13.3525 19.6453 15.1406C19.6453 18.8656 16.6555 21.8064 12.5343 22.1357C11.5584 22.214 9.43489 22.1884 8.08009 22.1614V12.444C8.07829 10.6404 7.35909 8.91114 6.08026 7.63566C4.80143 6.36019 3.06742 5.64266 1.2587 5.64052H0V17.8439C0.00393344 19.458 0.582424 21.0183 1.6324 22.2467C2.68237 23.4751 4.13562 24.2919 5.7332 24.5516C6.09132 26.1259 6.97489 27.5323 8.23923 28.5406C9.50357 29.5488 11.0737 30.0991 12.6926 30.1013C15.1755 30.0993 17.6193 29.4851 19.8065 28.3135C21.9938 27.1419 23.8566 25.4492 25.2291 23.386C26.6016 21.3228 27.4412 18.9533 27.6732 16.4883C27.9051 14.0233 27.5223 11.5393 26.5587 9.25753ZM2.51606 17.8412V8.33708C3.39639 8.60729 4.16677 9.15158 4.7143 9.89017C5.26183 10.6288 5.55773 11.5228 5.55861 12.4413V21.9441C4.67851 21.6739 3.90828 21.1299 3.36077 20.3915C2.81326 19.6532 2.51724 18.7595 2.51606 17.8412ZM12.6926 27.595C11.7672 27.5942 10.8633 27.3166 10.0977 26.7981C9.33213 26.2796 8.74011 25.5441 8.39814 24.6865C9.00584 24.6973 9.71505 24.7054 10.4067 24.7054C11.3054 24.7054 12.1661 24.6906 12.7332 24.646C15.2737 24.4436 17.6232 23.4125 19.3502 21.7443C20.2418 20.8914 20.9506 19.867 21.4338 18.7331C21.917 17.5992 22.1645 16.3794 22.1614 15.1473C22.163 13.8978 21.9168 12.6603 21.4371 11.506C20.9573 10.3517 20.2534 9.30341 19.3659 8.42138C18.4783 7.53935 17.4247 6.84101 16.2655 6.36654C15.1063 5.89208 13.8645 5.65084 12.6114 5.65671H12.361C11.4398 5.65574 10.5431 5.36049 9.80237 4.81424C9.06167 4.26799 8.51594 3.49948 8.2452 2.62139L12.6926 2.61194C15.9935 2.64615 19.1475 3.97771 21.4695 6.31737C23.7915 8.65702 25.094 11.8158 25.094 15.1075C25.094 18.3992 23.7915 21.558 21.4695 23.8977C19.1475 26.2373 15.9935 27.5689 12.6926 27.6031V27.595Z" fill="#EEFB6E"/>
<path fill-rule="evenodd" clip-rule="evenodd" d="M35.6715 9.01233C37.8618 9.01233 39.6373 7.23677 39.6373 5.0465C39.6373 2.85622 37.8618 1.08066 35.6715 1.08066C33.4812 1.08066 31.7057 2.85622 31.7057 5.0465C31.7057 7.23677 33.4812 9.01233 35.6715 9.01233ZM35.6715 9.70432C38.2439 9.70432 40.3293 7.61894 40.3293 5.0465C40.3293 2.47405 38.2439 0.388672 35.6715 0.388672C33.0991 0.388672 31.0137 2.47405 31.0137 5.0465C31.0137 7.61894 33.0991 9.70432 35.6715 9.70432Z" fill="#AFAFAF"/>
<path d="M34.0464 7.2422V2.85156H35.9646C36.4462 2.85156 36.8178 2.96574 37.0794 3.19409C37.3451 3.42245 37.4779 3.74007 37.4779 4.14696C37.4779 4.41683 37.4177 4.64726 37.2973 4.83825C37.1811 5.02924 37.0129 5.17663 36.7929 5.28043C36.5728 5.38007 36.3133 5.42989 36.0144 5.42989L36.1016 5.31157H36.3133C36.4877 5.31157 36.6434 5.35724 36.7804 5.44858C36.9174 5.53992 37.0295 5.67901 37.1167 5.86584L37.7582 7.2422H36.8738L36.2261 5.81602C36.168 5.6707 36.0787 5.57521 35.9583 5.52954C35.8421 5.48387 35.7009 5.46103 35.5348 5.46103H34.8498V7.2422H34.0464ZM34.8498 4.86939H35.8338C36.1161 4.86939 36.3299 4.81126 36.4753 4.69501C36.6247 4.5746 36.6995 4.40022 36.6995 4.17187C36.6995 3.94351 36.6247 3.77121 36.4753 3.65496C36.3299 3.5387 36.1161 3.48058 35.8338 3.48058H34.8498V4.86939Z" fill="#AFAFAF"/>
</svg>
