<svg width="151" height="31" viewBox="0 0 151 31" fill="none" xmlns="http://www.w3.org/2000/svg">
<path fill-rule="evenodd" clip-rule="evenodd" d="M146.234 9.2721C148.424 9.2721 150.199 7.49653 150.199 5.30626C150.199 3.11599 148.424 1.34042 146.234 1.34042C144.043 1.34042 142.268 3.11599 142.268 5.30626C142.268 7.49653 144.043 9.2721 146.234 9.2721ZM146.234 9.96408C148.806 9.96408 150.891 7.87871 150.891 5.30626C150.891 2.73382 148.806 0.648438 146.234 0.648438C143.661 0.648438 141.576 2.73382 141.576 5.30626C141.576 7.87871 143.661 9.96408 146.234 9.96408Z" fill="#AFAFAF"/>
<path d="M144.608 7.50197V3.11133H146.527C147.008 3.11133 147.38 3.22551 147.641 3.45386C147.907 3.68221 148.04 3.99984 148.04 4.40672C148.04 4.6766 147.98 4.90703 147.859 5.09801C147.743 5.289 147.575 5.43639 147.355 5.54019C147.135 5.63984 146.875 5.68966 146.576 5.68966L146.664 5.57133H146.875C147.05 5.57133 147.205 5.617 147.342 5.70834C147.479 5.79969 147.592 5.93877 147.679 6.12561L148.32 7.50197H147.436L146.788 6.07579C146.73 5.93047 146.641 5.83498 146.52 5.78931C146.404 5.74363 146.263 5.7208 146.097 5.7208H145.412V7.50197H144.608ZM145.412 5.12915H146.396C146.678 5.12915 146.892 5.07103 147.037 4.95477C147.187 4.83437 147.261 4.65999 147.261 4.43163C147.261 4.20328 147.187 4.03097 147.037 3.91472C146.892 3.79847 146.678 3.74034 146.396 3.74034H145.412V5.12915Z" fill="#AFAFAF"/>
<path d="M35.4458 12.9936C35.1964 12.743 35.0027 12.4427 34.8775 12.1124C34.7523 11.7822 34.6984 11.4293 34.7192 11.0768V1.62979C34.7118 1.49808 34.7326 1.36631 34.78 1.24317C34.8275 1.12003 34.9006 1.00832 34.9945 0.915424C35.2118 0.742576 35.4814 0.648437 35.7594 0.648438C36.0373 0.648437 36.3069 0.742576 36.5242 0.915424C36.6197 1.00547 36.6946 1.11499 36.7439 1.2365C36.7932 1.35802 36.8156 1.48869 36.8097 1.61963V11.0971C36.7967 11.3497 36.8785 11.598 37.0392 11.7937C37.1199 11.8798 37.2186 11.9471 37.3283 11.9911C37.438 12.035 37.556 12.0544 37.674 12.0479H43.6345C44.2974 12.0479 44.6263 12.3225 44.6263 12.8716C44.6333 12.9841 44.6139 13.0967 44.5697 13.2004C44.5254 13.3041 44.4575 13.3961 44.3713 13.469C44.1586 13.6223 43.899 13.6969 43.6371 13.68H37.4624C36.6041 13.6817 35.9319 13.4529 35.4458 12.9936Z" fill="#AFAFAF"/>
<path d="M48.1569 13.6148C48.0604 13.5235 47.9848 13.4123 47.9355 13.2889C47.8862 13.1656 47.8644 13.0331 47.8714 12.9005V1.63072C47.8645 1.49815 47.8865 1.36567 47.9358 1.24237C47.9851 1.11906 48.0605 1.00784 48.1569 0.916347C48.3708 0.738707 48.6438 0.647935 48.9218 0.662123C49.2001 0.645344 49.4741 0.736427 49.6866 0.916347C49.7836 1.0056 49.8601 1.11479 49.9107 1.23636C49.9613 1.35794 49.9849 1.48901 49.9798 1.62055V12.8852C49.9849 13.0168 49.9613 13.1478 49.9107 13.2694C49.8601 13.391 49.7836 13.5002 49.6866 13.5894C49.4741 13.7694 49.2001 13.8604 48.9218 13.8437C48.6472 13.865 48.3744 13.7834 48.1569 13.6148Z" fill="#AFAFAF"/>
<path d="M53.98 13.6159C53.8858 13.5232 53.8126 13.4115 53.7651 13.2883C53.7176 13.1651 53.697 13.0332 53.7047 12.9015V5.78321C53.7047 4.1816 54.2044 2.92827 55.2038 2.02323C56.2031 1.11819 57.579 0.660592 59.3313 0.650423C60.3654 0.625479 61.3916 0.835884 62.332 1.26565C63.1453 1.64802 63.8222 2.26888 64.2721 3.04522C64.735 3.88065 64.9664 4.82395 64.9426 5.77813V12.8964C64.9503 13.0281 64.9297 13.16 64.8822 13.2832C64.8347 13.4064 64.7614 13.5181 64.6672 13.6108C64.45 13.7836 64.1803 13.8778 63.9024 13.8778C63.6245 13.8778 63.3548 13.7836 63.1376 13.6108C63.0421 13.5207 62.9671 13.4112 62.9179 13.2897C62.8686 13.1682 62.8461 13.0375 62.8521 12.9066V5.73491C62.8521 4.64513 62.5453 3.80704 61.9317 3.22063C61.3182 2.63421 60.4471 2.34101 59.3185 2.34101C58.1917 2.34101 57.3181 2.63761 56.6977 3.2308C56.0774 3.82399 55.7723 4.65869 55.7825 5.73491V12.9066C55.7884 13.0375 55.7659 13.1682 55.7167 13.2897C55.6674 13.4112 55.5925 13.5207 55.497 13.6108C55.2808 13.7805 55.0136 13.8727 54.7385 13.8727C54.4634 13.8727 54.1962 13.7805 53.98 13.6108V13.6159Z" fill="#AFAFAF"/>
<path d="M76.8076 13.1321C76.5642 11.8969 76.041 10.7334 75.2779 9.73059C74.4276 8.71454 73.379 7.8816 72.1957 7.28242L70.2097 8.91454V12.8957C70.2156 13.0266 70.1931 13.1573 70.1439 13.2788C70.0946 13.4003 70.0197 13.5098 69.9241 13.5999C69.7123 13.781 69.4378 13.8722 69.1593 13.8541C68.8813 13.8688 68.6081 13.778 68.3945 13.5999C68.2974 13.5089 68.2214 13.3978 68.1721 13.2744C68.1228 13.1509 68.1012 13.0182 68.109 12.8855V1.63101C68.1016 1.49839 68.1233 1.36576 68.1726 1.24238C68.2219 1.11899 68.2976 1.00783 68.3945 0.916645C68.6081 0.738558 68.8813 0.647725 69.1593 0.662421C69.4378 0.644293 69.7123 0.73554 69.9241 0.916645C70.0197 1.00669 70.0946 1.11621 70.1439 1.23772C70.1931 1.35924 70.2156 1.48991 70.2097 1.62085V6.61127L76.7566 0.944614C76.9297 0.77854 77.1614 0.687196 77.4016 0.69039C77.5269 0.686777 77.6515 0.711151 77.7662 0.761735C77.8809 0.812319 77.9828 0.887833 78.0645 0.982746C78.153 1.0614 78.2247 1.15715 78.2751 1.26421C78.3255 1.37127 78.3535 1.48741 78.3576 1.6056C78.3525 1.73673 78.3167 1.86484 78.2529 1.97963C78.1892 2.09443 78.0993 2.19271 77.9905 2.26658L73.5392 6.13587C74.938 6.79706 76.1654 7.77045 77.1263 8.98065C77.9939 10.0948 78.5522 11.4169 78.7451 12.8143C78.7648 12.9403 78.7578 13.069 78.7244 13.1921C78.691 13.3151 78.632 13.4298 78.5514 13.5287C78.477 13.6275 78.3813 13.7084 78.2715 13.7656C78.1617 13.8228 78.0404 13.8548 77.9166 13.8592C77.2622 13.866 76.8926 13.6236 76.8076 13.1321Z" fill="#AFAFAF"/>
<path d="M81.9401 13.5933C81.8457 13.5002 81.7723 13.3881 81.7248 13.2644C81.6773 13.1408 81.6568 13.0085 81.6647 12.8764V6.20042C81.6647 4.46491 82.161 3.10905 83.1536 2.13283C84.1462 1.15661 85.5263 0.667654 87.2939 0.665959C88.3331 0.640581 89.3626 0.870181 90.292 1.33457C91.1188 1.76236 91.7955 2.43093 92.2321 3.25142C92.6976 4.16553 92.928 5.18063 92.9026 6.20551V12.8814C92.9105 13.0136 92.89 13.1459 92.8426 13.2695C92.7951 13.3932 92.7217 13.5053 92.6273 13.5983C92.4156 13.7797 92.141 13.871 91.8625 13.8526C91.5845 13.867 91.3113 13.7762 91.0976 13.5983C90.9998 13.5091 90.9229 13.3996 90.8723 13.2775C90.8216 13.1554 90.7984 13.0236 90.8044 12.8916V9.50279H83.7578V12.8764C83.7638 13.0084 83.7407 13.1401 83.69 13.2622C83.6393 13.3843 83.5624 13.4939 83.4646 13.5831C83.2509 13.761 82.9778 13.8518 82.6998 13.8373C82.4244 13.8572 82.152 13.7697 81.9401 13.5933ZM90.807 7.87067V6.14449C90.807 4.89879 90.5096 3.95138 89.9147 3.30226C89.3198 2.65314 88.4462 2.32943 87.2939 2.33112C86.1262 2.33112 85.2458 2.65145 84.6527 3.2921C84.0595 3.93274 83.7621 4.88354 83.7604 6.14449V7.87067H90.807Z" fill="#AFAFAF"/>
<path d="M96.2702 13.6162C96.1752 13.524 96.1011 13.4125 96.0532 13.2892C96.0052 13.1659 95.9845 13.0338 95.9923 12.9018V5.78354C95.9923 4.18193 96.492 2.9286 97.4914 2.02356C98.4908 1.11852 99.8675 0.666003 101.621 0.666003C102.655 0.641357 103.68 0.851758 104.62 1.28123C105.434 1.66209 106.111 2.28333 106.56 3.0608C107.025 3.89535 107.258 4.83911 107.233 5.79371V12.912C107.24 13.0437 107.22 13.1756 107.172 13.2988C107.125 13.422 107.052 13.5336 106.957 13.6263C106.74 13.7983 106.47 13.8919 106.193 13.8919C105.915 13.8919 105.645 13.7983 105.428 13.6263C105.333 13.536 105.258 13.4264 105.209 13.305C105.16 13.1836 105.137 13.053 105.142 12.9222V5.73523C105.142 4.64546 104.836 3.80736 104.224 3.22095C103.613 2.63454 102.742 2.34134 101.611 2.34134C100.484 2.34134 99.6108 2.63793 98.9905 3.23112C98.3701 3.82431 98.0608 4.65902 98.0625 5.73523V12.9069C98.0679 13.0378 98.0452 13.1683 97.996 13.2897C97.9467 13.4112 97.8721 13.5207 97.7769 13.6111C97.5647 13.7915 97.2905 13.8826 97.0121 13.8653C96.742 13.8797 96.4766 13.7905 96.2702 13.6162Z" fill="#AFAFAF"/>
<path d="M111.141 12.9946C110.892 12.744 110.698 12.4437 110.573 12.1134C110.448 11.7832 110.394 11.4303 110.415 11.0778V3.39257C110.395 3.04951 110.447 2.70619 110.568 2.38419C110.688 2.06219 110.874 1.76847 111.113 1.52148C111.58 1.06896 112.231 0.842701 113.063 0.842701H115.638C116.874 0.808815 118.099 1.07675 119.207 1.62316C120.183 2.11983 120.988 2.89632 121.517 3.85272C122.046 4.91714 122.322 6.0891 122.322 7.27712C122.322 8.46514 122.046 9.63708 121.517 10.7015C120.995 11.6535 120.195 12.4248 119.223 12.9133C118.111 13.4476 116.887 13.7091 115.654 13.6759H113.188C112.308 13.681 111.625 13.4539 111.141 12.9946ZM115.455 12.0514C117.025 12.0514 118.206 11.6506 118.996 10.849C119.786 10.0473 120.181 8.86093 120.181 7.28982C120.181 5.71194 119.783 4.51624 118.986 3.70272C118.189 2.88921 117.012 2.48244 115.455 2.48244H113.357C113.24 2.47569 113.123 2.49501 113.015 2.539C112.907 2.58299 112.81 2.65053 112.732 2.73667C112.575 2.93512 112.496 3.18362 112.51 3.43578V11.0981C112.497 11.3494 112.576 11.597 112.732 11.7947C112.81 11.8808 112.907 11.9484 113.015 11.9924C113.123 12.0363 113.24 12.0557 113.357 12.0489L115.455 12.0514Z" fill="#AFAFAF"/>
<path d="M128.23 13.0409C127.228 12.5151 126.405 11.7046 125.866 10.7122C125.322 9.64379 125.038 8.46219 125.038 7.26363C125.038 6.06507 125.322 4.88347 125.866 3.81508C126.406 2.82318 127.229 2.01289 128.23 1.48638C129.344 0.942762 130.567 0.660156 131.808 0.660156C133.048 0.660156 134.272 0.942762 135.386 1.48638C136.386 2.01437 137.208 2.82428 137.749 3.81508C138.293 4.88389 138.576 6.06533 138.576 7.26363C138.576 8.46193 138.293 9.64338 137.749 10.7122C137.209 11.7035 136.386 12.5136 135.386 13.0409C134.272 13.5845 133.048 13.8671 131.808 13.8671C130.567 13.8671 129.344 13.5845 128.23 13.0409ZM135.21 10.8774C136.043 9.9978 136.46 8.79363 136.462 7.2649C136.463 5.73616 136.038 4.5286 135.187 3.6422C134.337 2.76767 133.176 2.3304 131.702 2.3304C130.849 2.30768 130.006 2.51779 129.265 2.938C128.576 3.34214 128.025 3.94243 127.681 4.66164C127.299 5.47644 127.111 6.36817 127.131 7.26744C127.107 8.17718 127.302 9.07936 127.699 9.89866C128.057 10.6151 128.621 11.2089 129.318 11.6045C130.079 12.0165 130.936 12.2216 131.801 12.1994C133.241 12.1977 134.377 11.757 135.21 10.8774Z" fill="#AFAFAF"/>
<path d="M35.306 29.923C35.1133 29.728 34.9638 29.4949 34.8672 29.2387C34.7706 28.9826 34.729 28.709 34.7451 28.4358V19.632C34.729 19.3587 34.7706 19.0852 34.8672 18.829C34.9638 18.5728 35.1133 18.3397 35.306 18.1448C35.7404 17.7693 36.3051 17.5786 36.879 17.6134H39.4717C40.5937 17.5906 41.7016 17.8662 42.6815 18.4117C43.6023 18.9376 44.3479 19.7218 44.8255 20.6667C45.3496 21.7177 45.612 22.8793 45.5904 24.0529C45.613 25.2226 45.3505 26.3803 44.8255 27.4265C44.3496 28.3654 43.6076 29.1442 42.6917 29.6662C41.7069 30.2076 40.596 30.4795 39.4717 30.4543H36.879C36.3051 30.4892 35.7404 30.2984 35.306 29.923ZM39.2882 29.5925C40.9419 29.5925 42.2387 29.1027 43.1786 28.1231C44.1185 27.1435 44.5876 25.7876 44.5859 24.0555C44.6119 23.0256 44.3944 22.004 43.9511 21.0734C43.5519 20.2609 42.9132 19.5894 42.1206 19.149C41.2509 18.6839 40.2747 18.4526 39.2882 18.4778H36.7693C36.6276 18.4714 36.4862 18.495 36.3543 18.5472C36.2225 18.5993 36.1032 18.6788 36.0045 18.7803C35.809 18.9993 35.7066 19.2856 35.719 19.5786V28.4942C35.7066 28.7872 35.809 29.0735 36.0045 29.2925C36.1032 29.394 36.2225 29.4735 36.3543 29.5257C36.4862 29.5778 36.6276 29.6015 36.7693 29.595L39.2882 29.5925Z" fill="#AFAFAF"/>
<path d="M49.7635 29.923C49.5708 29.728 49.4213 29.4949 49.3247 29.2387C49.2281 28.9826 49.1865 28.709 49.2026 28.4358V19.632C49.1865 19.3587 49.2281 19.0852 49.3247 18.829C49.4213 18.5728 49.5708 18.3397 49.7635 18.1448C50.1979 17.7693 50.7626 17.5786 51.3365 17.6134H57.0395C57.188 17.6004 57.3366 17.6361 57.4627 17.7151C57.5085 17.758 57.5438 17.8108 57.5659 17.8694C57.588 17.928 57.5963 17.9909 57.5902 18.0533C57.5902 18.3354 57.4067 18.4753 57.0395 18.4753H51.2268C51.0853 18.4699 50.9442 18.4941 50.8125 18.5462C50.6808 18.5983 50.5614 18.6772 50.462 18.7778C50.2665 18.9968 50.1641 19.2831 50.1765 19.5761V23.4657H55.6399C55.788 23.453 55.9362 23.4877 56.0631 23.5648C56.1099 23.6076 56.146 23.6607 56.1685 23.7198C56.1911 23.779 56.1995 23.8425 56.1931 23.9055C56.1931 24.1877 56.0096 24.3275 55.6399 24.3275H50.1765V28.4917C50.1641 28.7847 50.2665 29.0709 50.462 29.2899C50.5614 29.3906 50.6808 29.4695 50.8125 29.5215C50.9442 29.5736 51.0853 29.5978 51.2268 29.5925H57.4424C57.5904 29.5798 57.7386 29.6145 57.8656 29.6916C57.9123 29.7344 57.9484 29.7875 57.971 29.8466C57.9935 29.9058 58.002 29.9693 57.9956 30.0323C57.9956 30.3119 57.812 30.4543 57.4424 30.4543H51.3365C50.7626 30.4892 50.1979 30.2984 49.7635 29.923Z" fill="#AFAFAF"/>
<path d="M63.3959 30.0326C62.5407 29.7107 61.7964 29.1503 61.2518 28.4183C61.1963 28.337 61.1645 28.242 61.16 28.1438C61.1569 28.0651 61.176 27.9871 61.2152 27.9188C61.2545 27.8504 61.3122 27.7945 61.3818 27.7573C61.4411 27.7175 61.5118 27.6979 61.5832 27.7014C61.6787 27.7077 61.7715 27.736 61.8542 27.7841C61.9369 27.8322 62.0074 27.8987 62.06 27.9785C62.5567 28.5624 63.1972 29.0074 63.9185 29.27C64.7657 29.5829 65.664 29.7355 66.5673 29.7199C67.7707 29.7199 68.6936 29.4996 69.336 29.059C69.6472 28.8544 69.8998 28.5728 70.0691 28.2417C70.2385 27.9106 70.3188 27.5414 70.3022 27.1701C70.3056 26.8397 70.2245 26.5139 70.0666 26.2235C69.9087 25.933 69.6792 25.6875 69.3998 25.51C68.8015 25.088 67.7817 24.7185 66.3404 24.4016C64.5983 24.0236 63.3483 23.5465 62.5902 22.9703C62.2278 22.7131 61.9341 22.3711 61.735 21.9745C61.5359 21.5778 61.4374 21.1384 61.4481 20.695C61.4339 20.2238 61.5405 19.7569 61.7578 19.3383C61.975 18.9197 62.2958 18.5633 62.6897 18.3027C63.5191 17.7197 64.657 17.429 66.1033 17.4307C67.1429 17.4132 68.1744 17.616 69.1295 18.0256C69.9117 18.3331 70.5685 18.8923 70.9957 19.6145C71.0324 19.6879 71.0517 19.7689 71.0518 19.851C71.0536 19.9316 71.0319 20.011 70.9894 20.0796C70.9469 20.1482 70.8853 20.203 70.8121 20.2374C70.7432 20.2716 70.6674 20.2899 70.5903 20.2908C70.4907 20.2908 70.3927 20.2663 70.3048 20.2196C70.2158 20.174 70.1422 20.1032 70.0932 20.0162C69.74 19.4505 69.2108 19.0156 68.5865 18.7781C67.7954 18.4726 66.9514 18.3265 66.1033 18.3485C64.8643 18.3485 63.944 18.5408 63.3423 18.9256C63.0466 19.115 62.8072 19.38 62.6489 19.693C62.4907 20.0059 62.4194 20.3554 62.4424 20.7051C62.4285 21.1267 62.5579 21.5406 62.8095 21.8797C63.1341 22.255 63.5491 22.5419 64.0154 22.7135C64.7692 23.0134 65.547 23.2498 66.3404 23.4203C68.0825 23.8236 69.3462 24.3219 70.1315 24.9151C70.4982 25.1682 70.7973 25.5069 71.0026 25.9017C71.2079 26.2966 71.3132 26.7355 71.3093 27.1802C71.326 27.6763 71.2181 28.1687 70.9955 28.6127C70.7729 29.0567 70.4426 29.4381 70.0346 29.7225C69.1847 30.3394 68.0316 30.6479 66.575 30.6479C65.4845 30.6588 64.4031 30.4495 63.3959 30.0326Z" fill="#AFAFAF"/>
<path d="M75.5615 30.0494V18.0169C75.5615 17.6254 75.7221 17.4297 76.0408 17.4297C76.3595 17.4297 76.5507 17.6254 76.5507 18.0169V30.0494C76.5507 30.4409 76.3808 30.6366 76.0408 30.6366C75.7272 30.6468 75.5615 30.4409 75.5615 30.0494Z" fill="#AFAFAF"/>
<path d="M83.793 29.822C82.8476 29.2819 82.0804 28.4789 81.5851 27.5111C81.0681 26.4297 80.7998 25.2467 80.7998 24.0486C80.7998 22.8505 81.0681 21.6676 81.5851 20.5861C82.0859 19.6117 82.8589 18.8029 83.8108 18.2574C84.8217 17.6918 85.9661 17.4065 87.1251 17.4312C88.0944 17.4203 89.0565 17.5982 89.9575 17.9549C90.7479 18.2557 91.4494 18.7506 91.997 19.3938C92.0779 19.4851 92.1231 19.6024 92.1245 19.7243C92.1287 19.7891 92.1156 19.8538 92.0865 19.9119C92.0574 19.97 92.0133 20.0193 91.9588 20.0548C91.8482 20.1276 91.715 20.1584 91.5835 20.1416C91.4521 20.1248 91.331 20.0615 91.2424 19.9632C90.813 19.4131 90.2357 18.9961 89.5776 18.7607C88.794 18.4631 87.9609 18.3165 87.1225 18.3286C86.1307 18.3048 85.1501 18.5424 84.2799 19.0175C83.4765 19.4753 82.8318 20.166 82.4316 20.9979C82.0092 21.9598 81.7912 22.9985 81.7912 24.0486C81.7912 25.0987 82.0092 26.1374 82.4316 27.0993C82.8273 27.9272 83.4703 28.6128 84.2723 29.0619C85.1442 29.5316 86.1242 29.7656 87.1149 29.7407C87.9009 29.7523 88.6812 29.6062 89.4094 29.311C90.0447 29.0588 90.6016 28.643 91.0232 28.106C91.4084 27.6139 91.6159 27.0066 91.6121 26.3824V25.6858C91.6405 25.4018 91.5623 25.1175 91.3928 24.8876C91.178 24.7139 90.9032 24.6316 90.628 24.6587H87.6834C87.3163 24.6587 87.1327 24.5189 87.1327 24.2367C87.1266 24.174 87.1349 24.1108 87.157 24.0517C87.1791 23.9927 87.2144 23.9395 87.2602 23.8961C87.3872 23.8193 87.5354 23.7846 87.6834 23.7969H90.5133C91.2144 23.7969 91.7344 23.9495 92.0786 24.2545C92.4228 24.5596 92.5885 25.0324 92.5885 25.668V26.3646C92.5893 27.1431 92.334 27.9004 91.8619 28.5204C91.3448 29.1996 90.6595 29.7331 89.8734 30.0686C89.003 30.4544 88.0596 30.6487 87.1072 30.6381C85.9496 30.6627 84.8061 30.3811 83.793 29.822Z" fill="#AFAFAF"/>
<path d="M96.2192 30.0494V22.3642C96.2192 20.81 96.6824 19.5991 97.6087 18.7313C98.535 17.8636 99.819 17.4297 101.461 17.4297C103.106 17.4297 104.391 17.8636 105.316 18.7313C106.24 19.5991 106.703 20.81 106.705 22.3642V30.0494C106.705 30.4409 106.544 30.6366 106.226 30.6366C105.907 30.6366 105.716 30.4409 105.716 30.0494V22.3083C105.716 21.0371 105.345 20.0558 104.604 19.3643C103.863 18.6728 102.811 18.3271 101.448 18.3271C100.088 18.3271 99.0372 18.6728 98.2945 19.3643C97.5517 20.0558 97.1804 21.0371 97.1804 22.3083V30.0494C97.1804 30.4409 97.0146 30.6366 96.6858 30.6366C96.3569 30.6366 96.2192 30.4409 96.2192 30.0494Z" fill="#AFAFAF"/>
<path d="M26.5562 9.80355C25.4088 7.08376 23.4801 4.76325 21.0129 3.13416C18.5458 1.50508 15.6505 0.640228 12.6915 0.648496H5.53779V1.90489C5.53994 3.70834 6.25943 5.43729 7.53839 6.7124C8.81736 7.9875 10.5513 8.70462 12.3599 8.7064H13.0122C14.8024 8.805 16.4869 9.58308 17.72 10.881C18.9531 12.1789 19.6414 13.8982 19.6435 15.6861C19.6435 19.4107 16.654 22.3513 12.5331 22.6806C11.5574 22.7588 9.43401 22.7332 8.07933 22.7062V12.9897C8.07754 11.1863 7.3584 9.4572 6.07969 8.18184C4.80098 6.90648 3.06714 6.18902 1.25859 6.18688H0V18.3891C0.00393308 20.0031 0.58237 21.5632 1.63225 22.7915C2.68212 24.0198 4.13524 24.8366 5.73267 25.0962C6.09075 26.6704 6.97424 28.0767 8.23846 29.0848C9.50268 30.0929 11.0727 30.6431 12.6915 30.6453C15.1741 30.6434 17.6177 30.0293 19.8047 28.8578C21.9917 27.6863 23.8544 25.9937 25.2267 23.9307C26.5991 21.8677 27.4386 19.4984 27.6706 17.0336C27.9026 14.5689 27.5197 12.0851 26.5562 9.80355ZM2.51583 18.3864V8.88319C3.39607 9.15338 4.16638 9.69762 4.71386 10.4361C5.26135 11.1747 5.55721 12.0686 5.55809 12.987V22.4889C4.67807 22.2188 3.90792 21.6748 3.36046 20.9365C2.813 20.1983 2.517 19.3046 2.51583 18.3864ZM12.6915 28.1393C11.7661 28.1385 10.8623 27.8609 10.0968 27.3425C9.33126 26.824 8.73929 26.0886 8.39736 25.2311C9.005 25.2419 9.71415 25.25 10.4057 25.25C11.3043 25.25 12.165 25.2352 12.7321 25.1906C15.2722 24.9882 17.6216 23.9572 19.3484 22.2892C20.2399 21.4364 20.9487 20.4121 21.4318 19.2783C21.9149 18.1445 22.1624 16.9247 22.1593 15.6928C22.1609 14.4434 21.9148 13.206 21.4351 12.0518C20.9554 10.8976 20.2515 9.84943 19.3641 8.96748C18.4766 8.08553 17.423 7.38726 16.264 6.91284C15.1049 6.43841 13.8632 6.1972 12.6103 6.20307H12.3599C11.4387 6.2021 10.5421 5.90688 9.80146 5.36068C9.06083 4.81448 8.51515 4.04604 8.24444 3.16803L12.6915 3.15858C15.992 3.19279 19.1457 4.52422 21.4675 6.86366C23.7893 9.2031 25.0916 12.3616 25.0916 15.653C25.0916 18.9444 23.7893 22.1029 21.4675 24.4423C19.1457 26.7818 15.992 28.1132 12.6915 28.1474V28.1393Z" fill="#EEFB6E"/>
</svg>
