<svg width="60" height="60" viewBox="0 0 60 60" fill="none" xmlns="http://www.w3.org/2000/svg">
<path fill-rule="evenodd" clip-rule="evenodd" d="M46.1048 47.6451C46.5586 48.0965 47.2708 48.0716 47.6956 47.5893C48.1204 47.1071 48.0969 46.3502 47.6431 45.8987L31.6548 29.9921L47.6441 14.0699C48.0977 13.6182 48.1209 12.8613 47.6959 12.3792C47.2709 11.8972 46.5587 11.8726 46.1051 12.3243L30.008 28.3538L13.8949 12.3229C13.4411 11.8715 12.7289 11.8964 12.3041 12.3787C11.8793 12.8609 11.9028 13.6178 12.3566 14.0693L28.362 29.9929L12.3559 45.9318C11.9024 46.3835 11.8792 47.1404 12.3042 47.6224C12.7292 48.1045 13.4414 48.1291 13.895 47.6774L30.0088 31.6313L46.1048 47.6451Z" fill="#AFAFAF"/>
</svg>
