<svg width="292" height="122" viewBox="0 0 292 122" fill="none" xmlns="http://www.w3.org/2000/svg">
<g opacity="0.7">
<rect x="0.5" y="32" width="291" height="90" rx="41" fill="#1A1A1D"/>
<path d="M55.76 70.2V84H54.36V72.98L49.44 84H48.42L43.5 73.02V84H42.1V70.2H43.58L48.92 82.16L54.26 70.2H55.76ZM63.7159 84.16C62.6893 84.16 61.7626 83.9333 60.9359 83.48C60.1226 83.0133 59.4759 82.36 58.9959 81.52C58.5293 80.6667 58.2959 79.6733 58.2959 78.54C58.2959 77.4067 58.5359 76.42 59.0159 75.58C59.4959 74.7267 60.1493 74.0733 60.9759 73.62C61.8026 73.1533 62.7293 72.92 63.7559 72.92C64.7826 72.92 65.7093 73.1533 66.5359 73.62C67.3759 74.0733 68.0293 74.7267 68.4959 75.58C68.9759 76.42 69.2159 77.4067 69.2159 78.54C69.2159 79.66 68.9759 80.6467 68.4959 81.5C68.0159 82.3533 67.3559 83.0133 66.5159 83.48C65.6759 83.9333 64.7426 84.16 63.7159 84.16ZM63.7159 82.94C64.4359 82.94 65.1026 82.78 65.7159 82.46C66.3293 82.1267 66.8226 81.6333 67.1959 80.98C67.5826 80.3133 67.7759 79.5 67.7759 78.54C67.7759 77.58 67.5893 76.7733 67.2159 76.12C66.8426 75.4533 66.3493 74.96 65.7359 74.64C65.1226 74.3067 64.4559 74.14 63.7359 74.14C63.0159 74.14 62.3493 74.3067 61.7359 74.64C61.1226 74.96 60.6293 75.4533 60.2559 76.12C59.8959 76.7733 59.7159 77.58 59.7159 78.54C59.7159 79.5 59.8959 80.3133 60.2559 80.98C60.6293 81.6333 61.1159 82.1267 61.7159 82.46C62.3293 82.78 62.9959 82.94 63.7159 82.94ZM75.528 84.16C74.2746 84.16 73.248 83.8733 72.448 83.3C71.6613 82.7133 71.2213 81.92 71.128 80.92H72.568C72.6346 81.5333 72.9213 82.0333 73.428 82.42C73.948 82.7933 74.6413 82.98 75.508 82.98C76.268 82.98 76.8613 82.8 77.288 82.44C77.728 82.08 77.948 81.6333 77.948 81.1C77.948 80.7267 77.828 80.42 77.588 80.18C77.348 79.94 77.0413 79.7533 76.668 79.62C76.308 79.4733 75.8146 79.32 75.188 79.16C74.3746 78.9467 73.7146 78.7333 73.208 78.52C72.7013 78.3067 72.268 77.9933 71.908 77.58C71.5613 77.1533 71.388 76.5867 71.388 75.88C71.388 75.3467 71.548 74.8533 71.868 74.4C72.188 73.9467 72.6413 73.5867 73.228 73.32C73.8146 73.0533 74.4813 72.92 75.228 72.92C76.4013 72.92 77.348 73.22 78.068 73.82C78.788 74.4067 79.1746 75.22 79.228 76.26H77.828C77.788 75.62 77.5346 75.1067 77.068 74.72C76.6146 74.32 75.988 74.12 75.188 74.12C74.4813 74.12 73.908 74.2867 73.468 74.62C73.028 74.9533 72.808 75.3667 72.808 75.86C72.808 76.2867 72.9346 76.64 73.188 76.92C73.4546 77.1867 73.7813 77.4 74.168 77.56C74.5546 77.7067 75.0746 77.8733 75.728 78.06C76.5146 78.2733 77.1413 78.48 77.608 78.68C78.0746 78.88 78.4746 79.1733 78.808 79.56C79.1413 79.9467 79.3146 80.46 79.328 81.1C79.328 81.6867 79.168 82.2133 78.848 82.68C78.528 83.1333 78.0813 83.4933 77.508 83.76C76.9346 84.0267 76.2746 84.16 75.528 84.16ZM83.7833 74.26V81.04C83.7833 81.7067 83.9099 82.1667 84.1633 82.42C84.4166 82.6733 84.8633 82.8 85.5033 82.8H86.7833V84H85.2833C84.2966 84 83.5633 83.7733 83.0833 83.32C82.6033 82.8533 82.3633 82.0933 82.3633 81.04V74.26H80.8433V73.08H82.3633V70.34H83.7833V73.08H86.7833V74.26H83.7833ZM90.4922 75.02C90.7989 74.34 91.2655 73.8133 91.8922 73.44C92.5322 73.0667 93.3122 72.88 94.2322 72.88V74.34H93.8522C92.8389 74.34 92.0255 74.6133 91.4122 75.16C90.7989 75.7067 90.4922 76.62 90.4922 77.9V84H89.0922V73.08H90.4922V75.02ZM95.6983 78.52C95.6983 77.4 95.9183 76.42 96.3583 75.58C96.8116 74.7267 97.4316 74.0733 98.2183 73.62C99.0183 73.1533 99.9183 72.92 100.918 72.92C101.958 72.92 102.852 73.16 103.598 73.64C104.358 74.12 104.905 74.7333 105.238 75.48V73.08H106.638V84H105.238V81.58C104.892 82.3267 104.338 82.9467 103.578 83.44C102.832 83.92 101.938 84.16 100.898 84.16C99.9116 84.16 99.0183 83.9267 98.2183 83.46C97.4316 82.9933 96.8116 82.3333 96.3583 81.48C95.9183 80.6267 95.6983 79.64 95.6983 78.52ZM105.238 78.54C105.238 77.66 105.058 76.8867 104.698 76.22C104.338 75.5533 103.845 75.04 103.218 74.68C102.605 74.32 101.925 74.14 101.178 74.14C100.405 74.14 99.7116 74.3133 99.0983 74.66C98.4849 75.0067 97.9983 75.5133 97.6383 76.18C97.2916 76.8333 97.1183 77.6133 97.1183 78.52C97.1183 79.4133 97.2916 80.2 97.6383 80.88C97.9983 81.5467 98.4849 82.06 99.0983 82.42C99.7116 82.7667 100.405 82.94 101.178 82.94C101.925 82.94 102.605 82.76 103.218 82.4C103.845 82.04 104.338 81.5267 104.698 80.86C105.058 80.1933 105.238 79.42 105.238 78.54ZM111.234 75.02C111.541 74.34 112.008 73.8133 112.634 73.44C113.274 73.0667 114.054 72.88 114.974 72.88V74.34H114.594C113.581 74.34 112.768 74.6133 112.154 75.16C111.541 75.7067 111.234 76.62 111.234 77.9V84H109.834V73.08H111.234V75.02ZM126.329 84.16C125.075 84.16 124.049 83.8733 123.249 83.3C122.462 82.7133 122.022 81.92 121.929 80.92H123.369C123.435 81.5333 123.722 82.0333 124.229 82.42C124.749 82.7933 125.442 82.98 126.309 82.98C127.069 82.98 127.662 82.8 128.089 82.44C128.529 82.08 128.749 81.6333 128.749 81.1C128.749 80.7267 128.629 80.42 128.389 80.18C128.149 79.94 127.842 79.7533 127.469 79.62C127.109 79.4733 126.615 79.32 125.989 79.16C125.175 78.9467 124.515 78.7333 124.009 78.52C123.502 78.3067 123.069 77.9933 122.709 77.58C122.362 77.1533 122.189 76.5867 122.189 75.88C122.189 75.3467 122.349 74.8533 122.669 74.4C122.989 73.9467 123.442 73.5867 124.029 73.32C124.615 73.0533 125.282 72.92 126.029 72.92C127.202 72.92 128.149 73.22 128.869 73.82C129.589 74.4067 129.975 75.22 130.029 76.26H128.629C128.589 75.62 128.335 75.1067 127.869 74.72C127.415 74.32 126.789 74.12 125.989 74.12C125.282 74.12 124.709 74.2867 124.269 74.62C123.829 74.9533 123.609 75.3667 123.609 75.86C123.609 76.2867 123.735 76.64 123.989 76.92C124.255 77.1867 124.582 77.4 124.969 77.56C125.355 77.7067 125.875 77.8733 126.529 78.06C127.315 78.2733 127.942 78.48 128.409 78.68C128.875 78.88 129.275 79.1733 129.609 79.56C129.942 79.9467 130.115 80.46 130.129 81.1C130.129 81.6867 129.969 82.2133 129.649 82.68C129.329 83.1333 128.882 83.4933 128.309 83.76C127.735 84.0267 127.075 84.16 126.329 84.16ZM142.224 73.08V84H140.824V82.08C140.504 82.76 140.011 83.28 139.344 83.64C138.677 84 137.931 84.18 137.104 84.18C135.797 84.18 134.731 83.78 133.904 82.98C133.077 82.1667 132.664 80.9933 132.664 79.46V73.08H134.044V79.3C134.044 80.4867 134.337 81.3933 134.924 82.02C135.524 82.6467 136.337 82.96 137.364 82.96C138.417 82.96 139.257 82.6267 139.884 81.96C140.511 81.2933 140.824 80.3133 140.824 79.02V73.08H142.224ZM144.78 78.52C144.78 77.4 145 76.42 145.44 75.58C145.894 74.7267 146.514 74.0733 147.3 73.62C148.1 73.1533 149 72.92 150 72.92C151.04 72.92 151.934 73.16 152.68 73.64C153.44 74.12 153.987 74.7333 154.32 75.48V73.08H155.72V84H154.32V81.58C153.974 82.3267 153.42 82.9467 152.66 83.44C151.914 83.92 151.02 84.16 149.98 84.16C148.994 84.16 148.1 83.9267 147.3 83.46C146.514 82.9933 145.894 82.3333 145.44 81.48C145 80.6267 144.78 79.64 144.78 78.52ZM154.32 78.54C154.32 77.66 154.14 76.8867 153.78 76.22C153.42 75.5533 152.927 75.04 152.3 74.68C151.687 74.32 151.007 74.14 150.26 74.14C149.487 74.14 148.794 74.3133 148.18 74.66C147.567 75.0067 147.08 75.5133 146.72 76.18C146.374 76.8333 146.2 77.6133 146.2 78.52C146.2 79.4133 146.374 80.2 146.72 80.88C147.08 81.5467 147.567 82.06 148.18 82.42C148.794 82.7667 149.487 82.94 150.26 82.94C151.007 82.94 151.687 82.76 152.3 82.4C152.927 82.04 153.42 81.5267 153.78 80.86C154.14 80.1933 154.32 79.42 154.32 78.54ZM174.285 77.98C174.285 78.46 174.271 78.8267 174.245 79.08H165.185C165.225 79.9067 165.425 80.6133 165.785 81.2C166.145 81.7867 166.618 82.2333 167.205 82.54C167.791 82.8333 168.431 82.98 169.125 82.98C170.031 82.98 170.791 82.76 171.405 82.32C172.031 81.88 172.445 81.2867 172.645 80.54H174.125C173.858 81.6067 173.285 82.48 172.405 83.16C171.538 83.8267 170.445 84.16 169.125 84.16C168.098 84.16 167.178 83.9333 166.365 83.48C165.551 83.0133 164.911 82.36 164.445 81.52C163.991 80.6667 163.765 79.6733 163.765 78.54C163.765 77.4067 163.991 76.4133 164.445 75.56C164.898 74.7067 165.531 74.0533 166.345 73.6C167.158 73.1467 168.085 72.92 169.125 72.92C170.165 72.92 171.071 73.1467 171.845 73.6C172.631 74.0533 173.231 74.6667 173.645 75.44C174.071 76.2 174.285 77.0467 174.285 77.98ZM172.865 77.94C172.878 77.1267 172.711 76.4333 172.365 75.86C172.031 75.2867 171.571 74.8533 170.985 74.56C170.398 74.2667 169.758 74.12 169.065 74.12C168.025 74.12 167.138 74.4533 166.405 75.12C165.671 75.7867 165.265 76.7267 165.185 77.94H172.865ZM180.606 84.16C179.353 84.16 178.326 83.8733 177.526 83.3C176.739 82.7133 176.299 81.92 176.206 80.92H177.646C177.713 81.5333 177.999 82.0333 178.506 82.42C179.026 82.7933 179.719 82.98 180.586 82.98C181.346 82.98 181.939 82.8 182.366 82.44C182.806 82.08 183.026 81.6333 183.026 81.1C183.026 80.7267 182.906 80.42 182.666 80.18C182.426 79.94 182.119 79.7533 181.746 79.62C181.386 79.4733 180.893 79.32 180.266 79.16C179.453 78.9467 178.793 78.7333 178.286 78.52C177.779 78.3067 177.346 77.9933 176.986 77.58C176.639 77.1533 176.466 76.5867 176.466 75.88C176.466 75.3467 176.626 74.8533 176.946 74.4C177.266 73.9467 177.719 73.5867 178.306 73.32C178.893 73.0533 179.559 72.92 180.306 72.92C181.479 72.92 182.426 73.22 183.146 73.82C183.866 74.4067 184.253 75.22 184.306 76.26H182.906C182.866 75.62 182.613 75.1067 182.146 74.72C181.693 74.32 181.066 74.12 180.266 74.12C179.559 74.12 178.986 74.2867 178.546 74.62C178.106 74.9533 177.886 75.3667 177.886 75.86C177.886 76.2867 178.013 76.64 178.266 76.92C178.533 77.1867 178.859 77.4 179.246 77.56C179.633 77.7067 180.153 77.8733 180.806 78.06C181.593 78.2733 182.219 78.48 182.686 78.68C183.153 78.88 183.553 79.1733 183.886 79.56C184.219 79.9467 184.393 80.46 184.406 81.1C184.406 81.6867 184.246 82.2133 183.926 82.68C183.606 83.1333 183.159 83.4933 182.586 83.76C182.013 84.0267 181.353 84.16 180.606 84.16ZM190.801 84.16C189.548 84.16 188.521 83.8733 187.721 83.3C186.935 82.7133 186.495 81.92 186.401 80.92H187.841C187.908 81.5333 188.195 82.0333 188.701 82.42C189.221 82.7933 189.915 82.98 190.781 82.98C191.541 82.98 192.135 82.8 192.561 82.44C193.001 82.08 193.221 81.6333 193.221 81.1C193.221 80.7267 193.101 80.42 192.861 80.18C192.621 79.94 192.315 79.7533 191.941 79.62C191.581 79.4733 191.088 79.32 190.461 79.16C189.648 78.9467 188.988 78.7333 188.481 78.52C187.975 78.3067 187.541 77.9933 187.181 77.58C186.835 77.1533 186.661 76.5867 186.661 75.88C186.661 75.3467 186.821 74.8533 187.141 74.4C187.461 73.9467 187.915 73.5867 188.501 73.32C189.088 73.0533 189.755 72.92 190.501 72.92C191.675 72.92 192.621 73.22 193.341 73.82C194.061 74.4067 194.448 75.22 194.501 76.26H193.101C193.061 75.62 192.808 75.1067 192.341 74.72C191.888 74.32 191.261 74.12 190.461 74.12C189.755 74.12 189.181 74.2867 188.741 74.62C188.301 74.9533 188.081 75.3667 188.081 75.86C188.081 76.2867 188.208 76.64 188.461 76.92C188.728 77.1867 189.055 77.4 189.441 77.56C189.828 77.7067 190.348 77.8733 191.001 78.06C191.788 78.2733 192.415 78.48 192.881 78.68C193.348 78.88 193.748 79.1733 194.081 79.56C194.415 79.9467 194.588 80.46 194.601 81.1C194.601 81.6867 194.441 82.2133 194.121 82.68C193.801 83.1333 193.355 83.4933 192.781 83.76C192.208 84.0267 191.548 84.16 190.801 84.16ZM207.117 77.98C207.117 78.46 207.103 78.8267 207.077 79.08H198.017C198.057 79.9067 198.257 80.6133 198.617 81.2C198.977 81.7867 199.45 82.2333 200.037 82.54C200.623 82.8333 201.263 82.98 201.957 82.98C202.863 82.98 203.623 82.76 204.237 82.32C204.863 81.88 205.277 81.2867 205.477 80.54H206.957C206.69 81.6067 206.117 82.48 205.237 83.16C204.37 83.8267 203.277 84.16 201.957 84.16C200.93 84.16 200.01 83.9333 199.197 83.48C198.383 83.0133 197.743 82.36 197.277 81.52C196.823 80.6667 196.597 79.6733 196.597 78.54C196.597 77.4067 196.823 76.4133 197.277 75.56C197.73 74.7067 198.363 74.0533 199.177 73.6C199.99 73.1467 200.917 72.92 201.957 72.92C202.997 72.92 203.903 73.1467 204.677 73.6C205.463 74.0533 206.063 74.6667 206.477 75.44C206.903 76.2 207.117 77.0467 207.117 77.98ZM205.697 77.94C205.71 77.1267 205.543 76.4333 205.197 75.86C204.863 75.2867 204.403 74.8533 203.817 74.56C203.23 74.2667 202.59 74.12 201.897 74.12C200.857 74.12 199.97 74.4533 199.237 75.12C198.503 75.7867 198.097 76.7267 198.017 77.94H205.697ZM201.857 70.24L199.177 71.92V70.78L201.857 69.14L204.537 70.78V71.92L201.857 70.24ZM214.798 72.88C216.105 72.88 217.171 73.2867 217.998 74.1C218.825 74.9 219.238 76.0667 219.238 77.6V84H217.858V77.76C217.858 76.5733 217.558 75.6667 216.958 75.04C216.371 74.4133 215.565 74.1 214.538 74.1C213.485 74.1 212.645 74.4333 212.018 75.1C211.391 75.7667 211.078 76.7467 211.078 78.04V84H209.678V73.08H211.078V74.94C211.425 74.2733 211.925 73.7667 212.578 73.42C213.231 73.06 213.971 72.88 214.798 72.88ZM221.694 78.54C221.694 77.4067 221.921 76.42 222.374 75.58C222.828 74.7267 223.454 74.0733 224.254 73.62C225.054 73.1533 225.968 72.92 226.994 72.92C228.341 72.92 229.448 73.2533 230.314 73.92C231.194 74.5867 231.761 75.4933 232.014 76.64H230.514C230.328 75.8533 229.921 75.24 229.294 74.8C228.681 74.3467 227.914 74.12 226.994 74.12C226.261 74.12 225.601 74.2867 225.014 74.62C224.428 74.9533 223.961 75.4533 223.614 76.12C223.281 76.7733 223.114 77.58 223.114 78.54C223.114 79.5 223.281 80.3133 223.614 80.98C223.961 81.6467 224.428 82.1467 225.014 82.48C225.601 82.8133 226.261 82.98 226.994 82.98C227.914 82.98 228.681 82.76 229.294 82.32C229.921 81.8667 230.328 81.24 230.514 80.44H232.014C231.761 81.56 231.194 82.46 230.314 83.14C229.434 83.82 228.328 84.16 226.994 84.16C225.968 84.16 225.054 83.9333 224.254 83.48C223.454 83.0133 222.828 82.36 222.374 81.52C221.921 80.6667 221.694 79.6733 221.694 78.54ZM235.3 71.02C235.02 71.02 234.78 70.92 234.58 70.72C234.38 70.52 234.28 70.2733 234.28 69.98C234.28 69.6867 234.38 69.4467 234.58 69.26C234.78 69.06 235.02 68.96 235.3 68.96C235.58 68.96 235.82 69.06 236.02 69.26C236.22 69.4467 236.32 69.6867 236.32 69.98C236.32 70.2733 236.22 70.52 236.02 70.72C235.82 70.92 235.58 71.02 235.3 71.02ZM236 73.08V84H234.6V73.08H236ZM238.53 78.52C238.53 77.4 238.75 76.42 239.19 75.58C239.644 74.7267 240.264 74.0733 241.05 73.62C241.85 73.1533 242.75 72.92 243.75 72.92C244.79 72.92 245.684 73.16 246.43 73.64C247.19 74.12 247.737 74.7333 248.07 75.48V73.08H249.47V84H248.07V81.58C247.724 82.3267 247.17 82.9467 246.41 83.44C245.664 83.92 244.77 84.16 243.73 84.16C242.744 84.16 241.85 83.9267 241.05 83.46C240.264 82.9933 239.644 82.3333 239.19 81.48C238.75 80.6267 238.53 79.64 238.53 78.52ZM248.07 78.54C248.07 77.66 247.89 76.8867 247.53 76.22C247.17 75.5533 246.677 75.04 246.05 74.68C245.437 74.32 244.757 74.14 244.01 74.14C243.237 74.14 242.544 74.3133 241.93 74.66C241.317 75.0067 240.83 75.5133 240.47 76.18C240.124 76.8333 239.95 77.6133 239.95 78.52C239.95 79.4133 240.124 80.2 240.47 80.88C240.83 81.5467 241.317 82.06 241.93 82.42C242.544 82.7667 243.237 82.94 244.01 82.94C244.757 82.94 245.437 82.76 246.05 82.4C246.677 82.04 247.17 81.5267 247.53 80.86C247.89 80.1933 248.07 79.42 248.07 78.54Z" fill="#AFAFAF"/>
</g>
<path d="M146.144 51.8641C143.168 51.8641 140.504 51.4081 138.152 50.4961C135.8 49.5361 133.808 48.1921 132.176 46.4641C130.592 44.6881 129.368 42.5761 128.504 40.1281C127.688 37.6801 127.28 34.9441 127.28 31.9201C127.28 28.4161 127.808 25.1041 128.864 21.9841C129.968 18.8161 131.36 15.9121 133.04 13.2721C134.768 10.5841 136.688 8.18414 138.8 6.07214C140.96 3.96014 143.12 2.18414 145.28 0.744141H160.184C157.112 2.95214 154.352 5.06414 151.904 7.08014C149.456 9.04814 147.32 11.0401 145.496 13.0561C143.72 15.0721 142.232 17.1361 141.032 19.2481C139.88 21.3121 139.064 23.5441 138.584 25.9441L139.232 26.1601C139.664 25.2001 140.168 24.2641 140.744 23.3521C141.368 22.4401 142.112 21.6481 142.976 20.9761C143.888 20.2561 144.944 19.6801 146.144 19.2481C147.344 18.8161 148.736 18.6001 150.32 18.6001C152.384 18.6001 154.304 18.9841 156.08 19.7521C157.904 20.4721 159.464 21.5041 160.76 22.8481C162.104 24.1921 163.136 25.8481 163.856 27.8161C164.624 29.7361 165.008 31.8721 165.008 34.2241C165.008 36.8161 164.552 39.1921 163.64 41.3521C162.776 43.5121 161.504 45.3841 159.824 46.9681C158.192 48.5041 156.224 49.7041 153.92 50.5681C151.616 51.4321 149.024 51.8641 146.144 51.8641ZM146.144 43.4401C148.544 43.4401 150.416 42.7921 151.76 41.4961C153.104 40.1521 153.776 38.2561 153.776 35.8081V34.5121C153.776 32.0641 153.104 30.1921 151.76 28.8961C150.416 27.5521 148.544 26.8801 146.144 26.8801C143.744 26.8801 141.872 27.5521 140.528 28.8961C139.184 30.1921 138.512 32.0641 138.512 34.5121V35.8081C138.512 38.2561 139.184 40.1521 140.528 41.4961C141.872 42.7921 143.744 43.4401 146.144 43.4401Z" fill="#EEFB6E"/>
</svg>
