<svg width="368" height="122" viewBox="0 0 368 122" fill="none" xmlns="http://www.w3.org/2000/svg">
<g opacity="0.7">
<rect x="0.5" y="32" width="367" height="90" rx="41" fill="#1A1A1D"/>
<path d="M51.04 74.04C51.04 75.24 50.6467 76.2067 49.86 76.94C49.0733 77.6733 47.8933 78.04 46.32 78.04H43.5V84H42.1V70.02H46.32C47.88 70.02 49.0533 70.3867 49.84 71.12C50.64 71.8533 51.04 72.8267 51.04 74.04ZM46.32 76.84C48.5067 76.84 49.6 75.9067 49.6 74.04C49.6 73.1067 49.34 72.4 48.82 71.92C48.3 71.44 47.4667 71.2 46.32 71.2H43.5V76.84H46.32ZM58.1691 84.16C57.1424 84.16 56.2157 83.9333 55.3891 83.48C54.5757 83.0133 53.9291 82.36 53.4491 81.52C52.9824 80.6667 52.7491 79.6733 52.7491 78.54C52.7491 77.4067 52.9891 76.42 53.4691 75.58C53.9491 74.7267 54.6024 74.0733 55.4291 73.62C56.2557 73.1533 57.1824 72.92 58.2091 72.92C59.2357 72.92 60.1624 73.1533 60.9891 73.62C61.8291 74.0733 62.4824 74.7267 62.9491 75.58C63.4291 76.42 63.6691 77.4067 63.6691 78.54C63.6691 79.66 63.4291 80.6467 62.9491 81.5C62.4691 82.3533 61.8091 83.0133 60.9691 83.48C60.1291 83.9333 59.1957 84.16 58.1691 84.16ZM58.1691 82.94C58.8891 82.94 59.5557 82.78 60.1691 82.46C60.7824 82.1267 61.2757 81.6333 61.6491 80.98C62.0357 80.3133 62.2291 79.5 62.2291 78.54C62.2291 77.58 62.0424 76.7733 61.6691 76.12C61.2957 75.4533 60.8024 74.96 60.1891 74.64C59.5757 74.3067 58.9091 74.14 58.1891 74.14C57.4691 74.14 56.8024 74.3067 56.1891 74.64C55.5757 74.96 55.0824 75.4533 54.7091 76.12C54.3491 76.7733 54.1691 77.58 54.1691 78.54C54.1691 79.5 54.3491 80.3133 54.7091 80.98C55.0824 81.6333 55.5691 82.1267 56.1691 82.46C56.7824 82.78 57.4491 82.94 58.1691 82.94ZM69.9811 84.16C68.7278 84.16 67.7011 83.8733 66.9011 83.3C66.1144 82.7133 65.6744 81.92 65.5811 80.92H67.0211C67.0878 81.5333 67.3744 82.0333 67.8811 82.42C68.4011 82.7933 69.0944 82.98 69.9611 82.98C70.7211 82.98 71.3144 82.8 71.7411 82.44C72.1811 82.08 72.4011 81.6333 72.4011 81.1C72.4011 80.7267 72.2811 80.42 72.0411 80.18C71.8011 79.94 71.4944 79.7533 71.1211 79.62C70.7611 79.4733 70.2678 79.32 69.6411 79.16C68.8278 78.9467 68.1678 78.7333 67.6611 78.52C67.1544 78.3067 66.7211 77.9933 66.3611 77.58C66.0144 77.1533 65.8411 76.5867 65.8411 75.88C65.8411 75.3467 66.0011 74.8533 66.3211 74.4C66.6411 73.9467 67.0944 73.5867 67.6811 73.32C68.2678 73.0533 68.9344 72.92 69.6811 72.92C70.8544 72.92 71.8011 73.22 72.5211 73.82C73.2411 74.4067 73.6278 75.22 73.6811 76.26H72.2811C72.2411 75.62 71.9878 75.1067 71.5211 74.72C71.0678 74.32 70.4411 74.12 69.6411 74.12C68.9344 74.12 68.3611 74.2867 67.9211 74.62C67.4811 74.9533 67.2611 75.3667 67.2611 75.86C67.2611 76.2867 67.3878 76.64 67.6411 76.92C67.9078 77.1867 68.2344 77.4 68.6211 77.56C69.0078 77.7067 69.5278 77.8733 70.1811 78.06C70.9678 78.2733 71.5944 78.48 72.0611 78.68C72.5278 78.88 72.9278 79.1733 73.2611 79.56C73.5944 79.9467 73.7678 80.46 73.7811 81.1C73.7811 81.6867 73.6211 82.2133 73.3011 82.68C72.9811 83.1333 72.5344 83.4933 71.9611 83.76C71.3878 84.0267 70.7278 84.16 69.9811 84.16ZM77.1164 71.02C76.8364 71.02 76.5964 70.92 76.3964 70.72C76.1964 70.52 76.0964 70.2733 76.0964 69.98C76.0964 69.6867 76.1964 69.4467 76.3964 69.26C76.5964 69.06 76.8364 68.96 77.1164 68.96C77.3964 68.96 77.6364 69.06 77.8364 69.26C78.0364 69.4467 78.1364 69.6867 78.1364 69.98C78.1364 70.2733 78.0364 70.52 77.8364 70.72C77.6364 70.92 77.3964 71.02 77.1164 71.02ZM77.8164 73.08V84H76.4164V73.08H77.8164ZM80.3467 78.54C80.3467 77.4067 80.5734 76.42 81.0267 75.58C81.4801 74.7267 82.1067 74.0733 82.9067 73.62C83.7067 73.1533 84.6201 72.92 85.6467 72.92C86.9934 72.92 88.1001 73.2533 88.9667 73.92C89.8467 74.5867 90.4134 75.4933 90.6667 76.64H89.1667C88.9801 75.8533 88.5734 75.24 87.9467 74.8C87.3334 74.3467 86.5667 74.12 85.6467 74.12C84.9134 74.12 84.2534 74.2867 83.6667 74.62C83.0801 74.9533 82.6134 75.4533 82.2667 76.12C81.9334 76.7733 81.7667 77.58 81.7667 78.54C81.7667 79.5 81.9334 80.3133 82.2667 80.98C82.6134 81.6467 83.0801 82.1467 83.6667 82.48C84.2534 82.8133 84.9134 82.98 85.6467 82.98C86.5667 82.98 87.3334 82.76 87.9467 82.32C88.5734 81.8667 88.9801 81.24 89.1667 80.44H90.6667C90.4134 81.56 89.8467 82.46 88.9667 83.14C88.0867 83.82 86.9801 84.16 85.6467 84.16C84.6201 84.16 83.7067 83.9333 82.9067 83.48C82.1067 83.0133 81.4801 82.36 81.0267 81.52C80.5734 80.6667 80.3467 79.6733 80.3467 78.54ZM93.9523 71.02C93.6723 71.02 93.4323 70.92 93.2323 70.72C93.0323 70.52 92.9323 70.2733 92.9323 69.98C92.9323 69.6867 93.0323 69.4467 93.2323 69.26C93.4323 69.06 93.6723 68.96 93.9523 68.96C94.2323 68.96 94.4723 69.06 94.6723 69.26C94.8723 69.4467 94.9723 69.6867 94.9723 69.98C94.9723 70.2733 94.8723 70.52 94.6723 70.72C94.4723 70.92 94.2323 71.02 93.9523 71.02ZM94.6523 73.08V84H93.2523V73.08H94.6523ZM102.603 84.16C101.576 84.16 100.649 83.9333 99.8227 83.48C99.0093 83.0133 98.3627 82.36 97.8827 81.52C97.416 80.6667 97.1827 79.6733 97.1827 78.54C97.1827 77.4067 97.4227 76.42 97.9027 75.58C98.3827 74.7267 99.036 74.0733 99.8627 73.62C100.689 73.1533 101.616 72.92 102.643 72.92C103.669 72.92 104.596 73.1533 105.423 73.62C106.263 74.0733 106.916 74.7267 107.383 75.58C107.863 76.42 108.103 77.4067 108.103 78.54C108.103 79.66 107.863 80.6467 107.383 81.5C106.903 82.3533 106.243 83.0133 105.403 83.48C104.563 83.9333 103.629 84.16 102.603 84.16ZM102.603 82.94C103.323 82.94 103.989 82.78 104.603 82.46C105.216 82.1267 105.709 81.6333 106.083 80.98C106.469 80.3133 106.663 79.5 106.663 78.54C106.663 77.58 106.476 76.7733 106.103 76.12C105.729 75.4533 105.236 74.96 104.623 74.64C104.009 74.3067 103.343 74.14 102.623 74.14C101.903 74.14 101.236 74.3067 100.623 74.64C100.009 74.96 99.516 75.4533 99.1427 76.12C98.7827 76.7733 98.6027 77.58 98.6027 78.54C98.6027 79.5 98.7827 80.3133 99.1427 80.98C99.516 81.6333 100.003 82.1267 100.603 82.46C101.216 82.78 101.883 82.94 102.603 82.94ZM115.775 72.88C117.081 72.88 118.148 73.2867 118.975 74.1C119.801 74.9 120.215 76.0667 120.215 77.6V84H118.835V77.76C118.835 76.5733 118.535 75.6667 117.935 75.04C117.348 74.4133 116.541 74.1 115.515 74.1C114.461 74.1 113.621 74.4333 112.995 75.1C112.368 75.7667 112.055 76.7467 112.055 78.04V84H110.655V73.08H112.055V74.94C112.401 74.2733 112.901 73.7667 113.555 73.42C114.208 73.06 114.948 72.88 115.775 72.88ZM122.671 78.52C122.671 77.4 122.891 76.42 123.331 75.58C123.784 74.7267 124.404 74.0733 125.191 73.62C125.991 73.1533 126.891 72.92 127.891 72.92C128.931 72.92 129.824 73.16 130.571 73.64C131.331 74.12 131.878 74.7333 132.211 75.48V73.08H133.611V84H132.211V81.58C131.864 82.3267 131.311 82.9467 130.551 83.44C129.804 83.92 128.911 84.16 127.871 84.16C126.884 84.16 125.991 83.9267 125.191 83.46C124.404 82.9933 123.784 82.3333 123.331 81.48C122.891 80.6267 122.671 79.64 122.671 78.52ZM132.211 78.54C132.211 77.66 132.031 76.8867 131.671 76.22C131.311 75.5533 130.818 75.04 130.191 74.68C129.578 74.32 128.898 74.14 128.151 74.14C127.378 74.14 126.684 74.3133 126.071 74.66C125.458 75.0067 124.971 75.5133 124.611 76.18C124.264 76.8333 124.091 77.6133 124.091 78.52C124.091 79.4133 124.264 80.2 124.611 80.88C124.971 81.5467 125.458 82.06 126.071 82.42C126.684 82.7667 127.378 82.94 128.151 82.94C128.898 82.94 129.578 82.76 130.191 82.4C130.818 82.04 131.311 81.5267 131.671 80.86C132.031 80.1933 132.211 79.42 132.211 78.54ZM138.207 75.02C138.514 74.34 138.98 73.8133 139.607 73.44C140.247 73.0667 141.027 72.88 141.947 72.88V74.34H141.567C140.554 74.34 139.74 74.6133 139.127 75.16C138.514 75.7067 138.207 76.62 138.207 77.9V84H136.807V73.08H138.207V75.02ZM159.421 77.98C159.421 78.46 159.408 78.8267 159.381 79.08H150.321C150.361 79.9067 150.561 80.6133 150.921 81.2C151.281 81.7867 151.755 82.2333 152.341 82.54C152.928 82.8333 153.568 82.98 154.261 82.98C155.168 82.98 155.928 82.76 156.541 82.32C157.168 81.88 157.581 81.2867 157.781 80.54H159.261C158.995 81.6067 158.421 82.48 157.541 83.16C156.675 83.8267 155.581 84.16 154.261 84.16C153.235 84.16 152.315 83.9333 151.501 83.48C150.688 83.0133 150.048 82.36 149.581 81.52C149.128 80.6667 148.901 79.6733 148.901 78.54C148.901 77.4067 149.128 76.4133 149.581 75.56C150.035 74.7067 150.668 74.0533 151.481 73.6C152.295 73.1467 153.221 72.92 154.261 72.92C155.301 72.92 156.208 73.1467 156.981 73.6C157.768 74.0533 158.368 74.6667 158.781 75.44C159.208 76.2 159.421 77.0467 159.421 77.98ZM158.001 77.94C158.015 77.1267 157.848 76.4333 157.501 75.86C157.168 75.2867 156.708 74.8533 156.121 74.56C155.535 74.2667 154.895 74.12 154.201 74.12C153.161 74.12 152.275 74.4533 151.541 75.12C150.808 75.7867 150.401 76.7267 150.321 77.94H158.001ZM165.743 84.16C164.489 84.16 163.463 83.8733 162.663 83.3C161.876 82.7133 161.436 81.92 161.343 80.92H162.783C162.849 81.5333 163.136 82.0333 163.643 82.42C164.163 82.7933 164.856 82.98 165.723 82.98C166.483 82.98 167.076 82.8 167.503 82.44C167.943 82.08 168.163 81.6333 168.163 81.1C168.163 80.7267 168.043 80.42 167.803 80.18C167.563 79.94 167.256 79.7533 166.883 79.62C166.523 79.4733 166.029 79.32 165.403 79.16C164.589 78.9467 163.929 78.7333 163.423 78.52C162.916 78.3067 162.483 77.9933 162.123 77.58C161.776 77.1533 161.603 76.5867 161.603 75.88C161.603 75.3467 161.763 74.8533 162.083 74.4C162.403 73.9467 162.856 73.5867 163.443 73.32C164.029 73.0533 164.696 72.92 165.443 72.92C166.616 72.92 167.563 73.22 168.283 73.82C169.003 74.4067 169.389 75.22 169.443 76.26H168.043C168.003 75.62 167.749 75.1067 167.283 74.72C166.829 74.32 166.203 74.12 165.403 74.12C164.696 74.12 164.123 74.2867 163.683 74.62C163.243 74.9533 163.023 75.3667 163.023 75.86C163.023 76.2867 163.149 76.64 163.403 76.92C163.669 77.1867 163.996 77.4 164.383 77.56C164.769 77.7067 165.289 77.8733 165.943 78.06C166.729 78.2733 167.356 78.48 167.823 78.68C168.289 78.88 168.689 79.1733 169.023 79.56C169.356 79.9467 169.529 80.46 169.543 81.1C169.543 81.6867 169.383 82.2133 169.063 82.68C168.743 83.1333 168.296 83.4933 167.723 83.76C167.149 84.0267 166.489 84.16 165.743 84.16ZM173.998 74.26V81.04C173.998 81.7067 174.125 82.1667 174.378 82.42C174.631 82.6733 175.078 82.8 175.718 82.8H176.998V84H175.498C174.511 84 173.778 83.7733 173.298 83.32C172.818 82.8533 172.578 82.0933 172.578 81.04V74.26H171.058V73.08H172.578V70.34H173.998V73.08H176.998V74.26H173.998ZM180.707 75.02C181.014 74.34 181.48 73.8133 182.107 73.44C182.747 73.0667 183.527 72.88 184.447 72.88V74.34H184.067C183.054 74.34 182.24 74.6133 181.627 75.16C181.014 75.7067 180.707 76.62 180.707 77.9V84H179.307V73.08H180.707V75.02ZM185.913 78.52C185.913 77.4 186.133 76.42 186.573 75.58C187.026 74.7267 187.646 74.0733 188.433 73.62C189.233 73.1533 190.133 72.92 191.133 72.92C192.173 72.92 193.066 73.16 193.813 73.64C194.573 74.12 195.12 74.7333 195.453 75.48V73.08H196.853V84H195.453V81.58C195.106 82.3267 194.553 82.9467 193.793 83.44C193.046 83.92 192.153 84.16 191.113 84.16C190.126 84.16 189.233 83.9267 188.433 83.46C187.646 82.9933 187.026 82.3333 186.573 81.48C186.133 80.6267 185.913 79.64 185.913 78.52ZM195.453 78.54C195.453 77.66 195.273 76.8867 194.913 76.22C194.553 75.5533 194.06 75.04 193.433 74.68C192.82 74.32 192.14 74.14 191.393 74.14C190.62 74.14 189.926 74.3133 189.313 74.66C188.7 75.0067 188.213 75.5133 187.853 76.18C187.506 76.8333 187.333 77.6133 187.333 78.52C187.333 79.4133 187.506 80.2 187.853 80.88C188.213 81.5467 188.7 82.06 189.313 82.42C189.926 82.7667 190.62 82.94 191.393 82.94C192.14 82.94 192.82 82.76 193.433 82.4C194.06 82.04 194.553 81.5267 194.913 80.86C195.273 80.1933 195.453 79.42 195.453 78.54ZM201.869 74.26V81.04C201.869 81.7067 201.996 82.1667 202.249 82.42C202.503 82.6733 202.949 82.8 203.589 82.8H204.869V84H203.369C202.383 84 201.649 83.7733 201.169 83.32C200.689 82.8533 200.449 82.0933 200.449 81.04V74.26H198.929V73.08H200.449V70.34H201.869V73.08H204.869V74.26H201.869ZM217.058 77.98C217.058 78.46 217.045 78.8267 217.018 79.08H207.958C207.998 79.9067 208.198 80.6133 208.558 81.2C208.918 81.7867 209.391 82.2333 209.978 82.54C210.565 82.8333 211.205 82.98 211.898 82.98C212.805 82.98 213.565 82.76 214.178 82.32C214.805 81.88 215.218 81.2867 215.418 80.54H216.898C216.631 81.6067 216.058 82.48 215.178 83.16C214.311 83.8267 213.218 84.16 211.898 84.16C210.871 84.16 209.951 83.9333 209.138 83.48C208.325 83.0133 207.685 82.36 207.218 81.52C206.765 80.6667 206.538 79.6733 206.538 78.54C206.538 77.4067 206.765 76.4133 207.218 75.56C207.671 74.7067 208.305 74.0533 209.118 73.6C209.931 73.1467 210.858 72.92 211.898 72.92C212.938 72.92 213.845 73.1467 214.618 73.6C215.405 74.0533 216.005 74.6667 216.418 75.44C216.845 76.2 217.058 77.0467 217.058 77.98ZM215.638 77.94C215.651 77.1267 215.485 76.4333 215.138 75.86C214.805 75.2867 214.345 74.8533 213.758 74.56C213.171 74.2667 212.531 74.12 211.838 74.12C210.798 74.12 209.911 74.4533 209.178 75.12C208.445 75.7867 208.038 76.7267 207.958 77.94H215.638ZM213.638 69.86L209.538 72.24V71.16L213.638 68.6V69.86ZM224.2 72.92C225.226 72.92 226.12 73.16 226.88 73.64C227.64 74.12 228.186 74.7267 228.52 75.46V73.08H229.92V84.28C229.92 85.28 229.7 86.1667 229.26 86.94C228.833 87.7133 228.233 88.3067 227.46 88.72C226.686 89.1467 225.806 89.36 224.82 89.36C223.42 89.36 222.253 89.0267 221.32 88.36C220.4 87.6933 219.826 86.7867 219.6 85.64H220.98C221.22 86.4 221.673 87.0067 222.34 87.46C223.02 87.9133 223.846 88.14 224.82 88.14C225.526 88.14 226.16 87.9867 226.72 87.68C227.28 87.3867 227.72 86.9467 228.04 86.36C228.36 85.7733 228.52 85.08 228.52 84.28V81.58C228.173 82.3267 227.62 82.9467 226.86 83.44C226.113 83.92 225.226 84.16 224.2 84.16C223.2 84.16 222.3 83.9267 221.5 83.46C220.713 82.9933 220.093 82.3333 219.64 81.48C219.2 80.6267 218.98 79.64 218.98 78.52C218.98 77.4 219.2 76.42 219.64 75.58C220.093 74.7267 220.713 74.0733 221.5 73.62C222.3 73.1533 223.2 72.92 224.2 72.92ZM228.52 78.54C228.52 77.66 228.34 76.8867 227.98 76.22C227.62 75.5533 227.126 75.04 226.5 74.68C225.886 74.32 225.206 74.14 224.46 74.14C223.686 74.14 222.993 74.3133 222.38 74.66C221.766 75.0067 221.28 75.5133 220.92 76.18C220.573 76.8333 220.4 77.6133 220.4 78.52C220.4 79.4133 220.573 80.2 220.92 80.88C221.28 81.5467 221.766 82.06 222.38 82.42C222.993 82.7667 223.686 82.94 224.46 82.94C225.206 82.94 225.886 82.76 226.5 82.4C227.126 82.04 227.62 81.5267 227.98 80.86C228.34 80.1933 228.52 79.42 228.52 78.54ZM233.816 71.02C233.536 71.02 233.296 70.92 233.096 70.72C232.896 70.52 232.796 70.2733 232.796 69.98C232.796 69.6867 232.896 69.4467 233.096 69.26C233.296 69.06 233.536 68.96 233.816 68.96C234.096 68.96 234.336 69.06 234.536 69.26C234.736 69.4467 234.836 69.6867 234.836 69.98C234.836 70.2733 234.736 70.52 234.536 70.72C234.336 70.92 234.096 71.02 233.816 71.02ZM234.516 73.08V84H233.116V73.08H234.516ZM237.046 78.54C237.046 77.4067 237.273 76.42 237.726 75.58C238.179 74.7267 238.806 74.0733 239.606 73.62C240.406 73.1533 241.319 72.92 242.346 72.92C243.693 72.92 244.799 73.2533 245.666 73.92C246.546 74.5867 247.113 75.4933 247.366 76.64H245.866C245.679 75.8533 245.273 75.24 244.646 74.8C244.033 74.3467 243.266 74.12 242.346 74.12C241.613 74.12 240.953 74.2867 240.366 74.62C239.779 74.9533 239.313 75.4533 238.966 76.12C238.633 76.7733 238.466 77.58 238.466 78.54C238.466 79.5 238.633 80.3133 238.966 80.98C239.313 81.6467 239.779 82.1467 240.366 82.48C240.953 82.8133 241.613 82.98 242.346 82.98C243.266 82.98 244.033 82.76 244.646 82.32C245.273 81.8667 245.679 81.24 245.866 80.44H247.366C247.113 81.56 246.546 82.46 245.666 83.14C244.786 83.82 243.679 84.16 242.346 84.16C241.319 84.16 240.406 83.9333 239.606 83.48C238.806 83.0133 238.179 82.36 237.726 81.52C237.273 80.6667 237.046 79.6733 237.046 78.54ZM249.312 78.52C249.312 77.4 249.532 76.42 249.972 75.58C250.425 74.7267 251.045 74.0733 251.832 73.62C252.632 73.1533 253.532 72.92 254.532 72.92C255.572 72.92 256.465 73.16 257.212 73.64C257.972 74.12 258.518 74.7333 258.852 75.48V73.08H260.252V84H258.852V81.58C258.505 82.3267 257.952 82.9467 257.192 83.44C256.445 83.92 255.552 84.16 254.512 84.16C253.525 84.16 252.632 83.9267 251.832 83.46C251.045 82.9933 250.425 82.3333 249.972 81.48C249.532 80.6267 249.312 79.64 249.312 78.52ZM258.852 78.54C258.852 77.66 258.672 76.8867 258.312 76.22C257.952 75.5533 257.458 75.04 256.832 74.68C256.218 74.32 255.538 74.14 254.792 74.14C254.018 74.14 253.325 74.3133 252.712 74.66C252.098 75.0067 251.612 75.5133 251.252 76.18C250.905 76.8333 250.732 77.6133 250.732 78.52C250.732 79.4133 250.905 80.2 251.252 80.88C251.612 81.5467 252.098 82.06 252.712 82.42C253.325 82.7667 254.018 82.94 254.792 82.94C255.538 82.94 256.218 82.76 256.832 82.4C257.458 82.04 257.952 81.5267 258.312 80.86C258.672 80.1933 258.852 79.42 258.852 78.54ZM276.448 72.88C277.728 72.88 278.768 73.2867 279.568 74.1C280.381 74.9 280.788 76.0667 280.788 77.6V84H279.408V77.76C279.408 76.5733 279.121 75.6667 278.548 75.04C277.974 74.4133 277.194 74.1 276.208 74.1C275.181 74.1 274.361 74.44 273.748 75.12C273.134 75.8 272.828 76.7867 272.828 78.08V84H271.448V77.76C271.448 76.5733 271.161 75.6667 270.588 75.04C270.014 74.4133 269.228 74.1 268.228 74.1C267.201 74.1 266.381 74.44 265.768 75.12C265.154 75.8 264.848 76.7867 264.848 78.08V84H263.448V73.08H264.848V74.96C265.194 74.28 265.688 73.7667 266.328 73.42C266.968 73.06 267.681 72.88 268.468 72.88C269.414 72.88 270.241 73.1067 270.948 73.56C271.668 74.0133 272.188 74.68 272.508 75.56C272.801 74.6933 273.301 74.0333 274.008 73.58C274.728 73.1133 275.541 72.88 276.448 72.88ZM293.777 77.98C293.777 78.46 293.764 78.8267 293.737 79.08H284.677C284.717 79.9067 284.917 80.6133 285.277 81.2C285.637 81.7867 286.11 82.2333 286.697 82.54C287.284 82.8333 287.924 82.98 288.617 82.98C289.524 82.98 290.284 82.76 290.897 82.32C291.524 81.88 291.937 81.2867 292.137 80.54H293.617C293.35 81.6067 292.777 82.48 291.897 83.16C291.03 83.8267 289.937 84.16 288.617 84.16C287.59 84.16 286.67 83.9333 285.857 83.48C285.044 83.0133 284.404 82.36 283.937 81.52C283.484 80.6667 283.257 79.6733 283.257 78.54C283.257 77.4067 283.484 76.4133 283.937 75.56C284.39 74.7067 285.024 74.0533 285.837 73.6C286.65 73.1467 287.577 72.92 288.617 72.92C289.657 72.92 290.564 73.1467 291.337 73.6C292.124 74.0533 292.724 74.6667 293.137 75.44C293.564 76.2 293.777 77.0467 293.777 77.98ZM292.357 77.94C292.37 77.1267 292.204 76.4333 291.857 75.86C291.524 75.2867 291.064 74.8533 290.477 74.56C289.89 74.2667 289.25 74.12 288.557 74.12C287.517 74.12 286.63 74.4533 285.897 75.12C285.164 75.7867 284.757 76.7267 284.677 77.94H292.357ZM301.458 72.88C302.765 72.88 303.832 73.2867 304.658 74.1C305.485 74.9 305.898 76.0667 305.898 77.6V84H304.518V77.76C304.518 76.5733 304.218 75.6667 303.618 75.04C303.032 74.4133 302.225 74.1 301.198 74.1C300.145 74.1 299.305 74.4333 298.678 75.1C298.052 75.7667 297.738 76.7467 297.738 78.04V84H296.338V73.08H297.738V74.94C298.085 74.2733 298.585 73.7667 299.238 73.42C299.892 73.06 300.632 72.88 301.458 72.88ZM310.815 74.26V81.04C310.815 81.7067 310.941 82.1667 311.195 82.42C311.448 82.6733 311.895 82.8 312.535 82.8H313.815V84H312.315C311.328 84 310.595 83.7733 310.115 83.32C309.635 82.8533 309.395 82.0933 309.395 81.04V74.26H307.875V73.08H309.395V70.34H310.815V73.08H313.815V74.26H310.815ZM326.003 77.98C326.003 78.46 325.99 78.8267 325.963 79.08H316.903C316.943 79.9067 317.143 80.6133 317.503 81.2C317.863 81.7867 318.337 82.2333 318.923 82.54C319.51 82.8333 320.15 82.98 320.843 82.98C321.75 82.98 322.51 82.76 323.123 82.32C323.75 81.88 324.163 81.2867 324.363 80.54H325.843C325.577 81.6067 325.003 82.48 324.123 83.16C323.257 83.8267 322.163 84.16 320.843 84.16C319.817 84.16 318.897 83.9333 318.083 83.48C317.27 83.0133 316.63 82.36 316.163 81.52C315.71 80.6667 315.483 79.6733 315.483 78.54C315.483 77.4067 315.71 76.4133 316.163 75.56C316.617 74.7067 317.25 74.0533 318.063 73.6C318.877 73.1467 319.803 72.92 320.843 72.92C321.883 72.92 322.79 73.1467 323.563 73.6C324.35 74.0533 324.95 74.6667 325.363 75.44C325.79 76.2 326.003 77.0467 326.003 77.98ZM324.583 77.94C324.597 77.1267 324.43 76.4333 324.083 75.86C323.75 75.2867 323.29 74.8533 322.703 74.56C322.117 74.2667 321.477 74.12 320.783 74.12C319.743 74.12 318.857 74.4533 318.123 75.12C317.39 75.7867 316.983 76.7267 316.903 77.94H324.583Z" fill="#AFAFAF"/>
</g>
<path d="M168.235 51.0001V42.2881H181.771V8.59214H181.123L170.899 21.9841L163.987 16.5841L176.011 0.744141H192.571V42.2881H203.227V51.0001H168.235Z" fill="#EEFB6E"/>
</svg>
