<svg width="216" height="123" viewBox="0 0 216 123" fill="none" xmlns="http://www.w3.org/2000/svg">
<g opacity="0.7">
<rect y="33" width="216" height="90" rx="41" fill="#1A1A1D"/>
<path d="M49.7 81.68H43.34L42.12 85H40.64L45.74 71.2H47.32L52.4 85H50.92L49.7 81.68ZM49.28 80.52L46.52 72.96L43.76 80.52H49.28ZM59.2269 73.92C60.2535 73.92 61.1469 74.16 61.9069 74.64C62.6669 75.12 63.2135 75.7267 63.5469 76.46V74.08H64.9469V85.28C64.9469 86.28 64.7269 87.1667 64.2869 87.94C63.8602 88.7133 63.2602 89.3067 62.4869 89.72C61.7135 90.1467 60.8335 90.36 59.8469 90.36C58.4469 90.36 57.2802 90.0267 56.3469 89.36C55.4269 88.6933 54.8535 87.7867 54.6269 86.64H56.0069C56.2469 87.4 56.7002 88.0067 57.3669 88.46C58.0469 88.9133 58.8735 89.14 59.8469 89.14C60.5535 89.14 61.1869 88.9867 61.7469 88.68C62.3069 88.3867 62.7469 87.9467 63.0669 87.36C63.3869 86.7733 63.5469 86.08 63.5469 85.28V82.58C63.2002 83.3267 62.6469 83.9467 61.8869 84.44C61.1402 84.92 60.2535 85.16 59.2269 85.16C58.2269 85.16 57.3269 84.9267 56.5269 84.46C55.7402 83.9933 55.1202 83.3333 54.6669 82.48C54.2269 81.6267 54.0069 80.64 54.0069 79.52C54.0069 78.4 54.2269 77.42 54.6669 76.58C55.1202 75.7267 55.7402 75.0733 56.5269 74.62C57.3269 74.1533 58.2269 73.92 59.2269 73.92ZM63.5469 79.54C63.5469 78.66 63.3669 77.8867 63.0069 77.22C62.6469 76.5533 62.1535 76.04 61.5269 75.68C60.9135 75.32 60.2335 75.14 59.4869 75.14C58.7135 75.14 58.0202 75.3133 57.4069 75.66C56.7935 76.0067 56.3069 76.5133 55.9469 77.18C55.6002 77.8333 55.4269 78.6133 55.4269 79.52C55.4269 80.4133 55.6002 81.2 55.9469 81.88C56.3069 82.5467 56.7935 83.06 57.4069 83.42C58.0202 83.7667 58.7135 83.94 59.4869 83.94C60.2335 83.94 60.9135 83.76 61.5269 83.4C62.1535 83.04 62.6469 82.5267 63.0069 81.86C63.3669 81.1933 63.5469 80.42 63.5469 79.54ZM69.543 76.02C69.8496 75.34 70.3163 74.8133 70.943 74.44C71.583 74.0667 72.363 73.88 73.283 73.88V75.34H72.903C71.8896 75.34 71.0763 75.6133 70.463 76.16C69.8496 76.7067 69.543 77.62 69.543 78.9V85H68.143V74.08H69.543V76.02ZM85.2691 78.98C85.2691 79.46 85.2557 79.8267 85.2291 80.08H76.1691C76.2091 80.9067 76.4091 81.6133 76.7691 82.2C77.1291 82.7867 77.6024 83.2333 78.1891 83.54C78.7757 83.8333 79.4157 83.98 80.1091 83.98C81.0157 83.98 81.7757 83.76 82.3891 83.32C83.0157 82.88 83.4291 82.2867 83.6291 81.54H85.1091C84.8424 82.6067 84.2691 83.48 83.3891 84.16C82.5224 84.8267 81.4291 85.16 80.1091 85.16C79.0824 85.16 78.1624 84.9333 77.3491 84.48C76.5357 84.0133 75.8957 83.36 75.4291 82.52C74.9757 81.6667 74.7491 80.6733 74.7491 79.54C74.7491 78.4067 74.9757 77.4133 75.4291 76.56C75.8824 75.7067 76.5157 75.0533 77.3291 74.6C78.1424 74.1467 79.0691 73.92 80.1091 73.92C81.1491 73.92 82.0557 74.1467 82.8291 74.6C83.6157 75.0533 84.2157 75.6667 84.6291 76.44C85.0557 77.2 85.2691 78.0467 85.2691 78.98ZM83.8491 78.94C83.8624 78.1267 83.6957 77.4333 83.3491 76.86C83.0157 76.2867 82.5557 75.8533 81.9691 75.56C81.3824 75.2667 80.7424 75.12 80.0491 75.12C79.0091 75.12 78.1224 75.4533 77.3891 76.12C76.6557 76.7867 76.2491 77.7267 76.1691 78.94H83.8491ZM92.4105 73.92C93.4371 73.92 94.3305 74.16 95.0905 74.64C95.8505 75.12 96.3971 75.7267 96.7305 76.46V74.08H98.1305V85.28C98.1305 86.28 97.9105 87.1667 97.4705 87.94C97.0438 88.7133 96.4438 89.3067 95.6705 89.72C94.8971 90.1467 94.0171 90.36 93.0305 90.36C91.6305 90.36 90.4638 90.0267 89.5305 89.36C88.6105 88.6933 88.0371 87.7867 87.8105 86.64H89.1905C89.4305 87.4 89.8838 88.0067 90.5505 88.46C91.2305 88.9133 92.0571 89.14 93.0305 89.14C93.7371 89.14 94.3705 88.9867 94.9305 88.68C95.4905 88.3867 95.9305 87.9467 96.2505 87.36C96.5705 86.7733 96.7305 86.08 96.7305 85.28V82.58C96.3838 83.3267 95.8305 83.9467 95.0705 84.44C94.3238 84.92 93.4371 85.16 92.4105 85.16C91.4105 85.16 90.5105 84.9267 89.7105 84.46C88.9238 83.9933 88.3038 83.3333 87.8505 82.48C87.4105 81.6267 87.1905 80.64 87.1905 79.52C87.1905 78.4 87.4105 77.42 87.8505 76.58C88.3038 75.7267 88.9238 75.0733 89.7105 74.62C90.5105 74.1533 91.4105 73.92 92.4105 73.92ZM96.7305 79.54C96.7305 78.66 96.5505 77.8867 96.1905 77.22C95.8305 76.5533 95.3371 76.04 94.7105 75.68C94.0971 75.32 93.4171 75.14 92.6705 75.14C91.8971 75.14 91.2038 75.3133 90.5905 75.66C89.9771 76.0067 89.4905 76.5133 89.1305 77.18C88.7838 77.8333 88.6105 78.6133 88.6105 79.52C88.6105 80.4133 88.7838 81.2 89.1305 81.88C89.4905 82.5467 89.9771 83.06 90.5905 83.42C91.2038 83.7667 91.8971 83.94 92.6705 83.94C93.4171 83.94 94.0971 83.76 94.7105 83.4C95.3371 83.04 95.8305 82.5267 96.1905 81.86C96.5505 81.1933 96.7305 80.42 96.7305 79.54ZM100.687 79.52C100.687 78.4 100.907 77.42 101.347 76.58C101.8 75.7267 102.42 75.0733 103.207 74.62C104.007 74.1533 104.907 73.92 105.907 73.92C106.947 73.92 107.84 74.16 108.587 74.64C109.347 75.12 109.893 75.7333 110.227 76.48V74.08H111.627V85H110.227V82.58C109.88 83.3267 109.327 83.9467 108.567 84.44C107.82 84.92 106.927 85.16 105.887 85.16C104.9 85.16 104.007 84.9267 103.207 84.46C102.42 83.9933 101.8 83.3333 101.347 82.48C100.907 81.6267 100.687 80.64 100.687 79.52ZM110.227 79.54C110.227 78.66 110.047 77.8867 109.687 77.22C109.327 76.5533 108.833 76.04 108.207 75.68C107.593 75.32 106.913 75.14 106.167 75.14C105.393 75.14 104.7 75.3133 104.087 75.66C103.473 76.0067 102.987 76.5133 102.627 77.18C102.28 77.8333 102.107 78.6133 102.107 79.52C102.107 80.4133 102.28 81.2 102.627 81.88C102.987 82.5467 103.473 83.06 104.087 83.42C104.7 83.7667 105.393 83.94 106.167 83.94C106.913 83.94 107.593 83.76 108.207 83.4C108.833 83.04 109.327 82.5267 109.687 81.86C110.047 81.1933 110.227 80.42 110.227 79.54ZM116.223 76.02C116.529 75.34 116.996 74.8133 117.623 74.44C118.263 74.0667 119.043 73.88 119.963 73.88V75.34H119.583C118.569 75.34 117.756 75.6133 117.143 76.16C116.529 76.7067 116.223 77.62 116.223 78.9V85H114.823V74.08H116.223V76.02ZM131.437 83.64L135.117 74.08H136.597L132.217 85H130.637L126.257 74.08H127.757L131.437 83.64ZM137.855 79.52C137.855 78.4 138.075 77.42 138.515 76.58C138.968 75.7267 139.588 75.0733 140.375 74.62C141.175 74.1533 142.075 73.92 143.075 73.92C144.115 73.92 145.008 74.16 145.755 74.64C146.515 75.12 147.061 75.7333 147.395 76.48V74.08H148.795V85H147.395V82.58C147.048 83.3267 146.495 83.9467 145.735 84.44C144.988 84.92 144.095 85.16 143.055 85.16C142.068 85.16 141.175 84.9267 140.375 84.46C139.588 83.9933 138.968 83.3333 138.515 82.48C138.075 81.6267 137.855 80.64 137.855 79.52ZM147.395 79.54C147.395 78.66 147.215 77.8867 146.855 77.22C146.495 76.5533 146.001 76.04 145.375 75.68C144.761 75.32 144.081 75.14 143.335 75.14C142.561 75.14 141.868 75.3133 141.255 75.66C140.641 76.0067 140.155 76.5133 139.795 77.18C139.448 77.8333 139.275 78.6133 139.275 79.52C139.275 80.4133 139.448 81.2 139.795 81.88C140.155 82.5467 140.641 83.06 141.255 83.42C141.868 83.7667 142.561 83.94 143.335 83.94C144.081 83.94 144.761 83.76 145.375 83.4C146.001 83.04 146.495 82.5267 146.855 81.86C147.215 81.1933 147.395 80.42 147.395 79.54ZM153.391 70.2V85H151.991V70.2H153.391ZM161.341 85.16C160.314 85.16 159.388 84.9333 158.561 84.48C157.748 84.0133 157.101 83.36 156.621 82.52C156.154 81.6667 155.921 80.6733 155.921 79.54C155.921 78.4067 156.161 77.42 156.641 76.58C157.121 75.7267 157.774 75.0733 158.601 74.62C159.428 74.1533 160.354 73.92 161.381 73.92C162.408 73.92 163.334 74.1533 164.161 74.62C165.001 75.0733 165.654 75.7267 166.121 76.58C166.601 77.42 166.841 78.4067 166.841 79.54C166.841 80.66 166.601 81.6467 166.121 82.5C165.641 83.3533 164.981 84.0133 164.141 84.48C163.301 84.9333 162.368 85.16 161.341 85.16ZM161.341 83.94C162.061 83.94 162.728 83.78 163.341 83.46C163.954 83.1267 164.448 82.6333 164.821 81.98C165.208 81.3133 165.401 80.5 165.401 79.54C165.401 78.58 165.214 77.7733 164.841 77.12C164.468 76.4533 163.974 75.96 163.361 75.64C162.748 75.3067 162.081 75.14 161.361 75.14C160.641 75.14 159.974 75.3067 159.361 75.64C158.748 75.96 158.254 76.4533 157.881 77.12C157.521 77.7733 157.341 78.58 157.341 79.54C157.341 80.5 157.521 81.3133 157.881 81.98C158.254 82.6333 158.741 83.1267 159.341 83.46C159.954 83.78 160.621 83.94 161.341 83.94ZM170.793 76.02C171.1 75.34 171.566 74.8133 172.193 74.44C172.833 74.0667 173.613 73.88 174.533 73.88V75.34H174.153C173.14 75.34 172.326 75.6133 171.713 76.16C171.1 76.7067 170.793 77.62 170.793 78.9V85H169.393V74.08H170.793V76.02Z" fill="#AFAFAF"/>
</g>
<path d="M104.804 21.6169C107.492 21.6169 109.436 21.1129 110.636 20.1049C111.884 19.0489 112.508 17.7529 112.508 16.2169V15.7129C112.508 13.8889 111.908 12.4249 110.708 11.3209C109.556 10.2169 107.9 9.66486 105.74 9.66486C103.724 9.66486 101.828 10.1929 100.052 11.2489C98.2763 12.2569 96.7643 13.7209 95.5163 15.6409L88.7483 9.30486C89.7083 8.05686 90.7403 6.92886 91.8443 5.92086C92.9483 4.86486 94.1963 3.97686 95.5883 3.25686C96.9803 2.48886 98.5403 1.91286 100.268 1.52886C101.996 1.09686 103.94 0.880859 106.1 0.880859C108.788 0.880859 111.212 1.19286 113.372 1.81686C115.58 2.44086 117.452 3.35286 118.988 4.55286C120.572 5.70486 121.772 7.09686 122.588 8.72886C123.452 10.3609 123.884 12.1849 123.884 14.2009C123.884 15.7849 123.62 17.2249 123.092 18.5209C122.612 19.8169 121.916 20.9449 121.004 21.9049C120.14 22.8649 119.132 23.6569 117.98 24.2809C116.828 24.8569 115.604 25.2649 114.308 25.5049V25.9369C115.796 26.2249 117.164 26.7049 118.412 27.3769C119.708 28.0009 120.812 28.8169 121.724 29.8249C122.684 30.8329 123.428 32.0329 123.956 33.4249C124.484 34.7689 124.748 36.3049 124.748 38.0329C124.748 40.2889 124.292 42.3289 123.38 44.1529C122.468 45.9769 121.172 47.5369 119.492 48.8329C117.812 50.1289 115.796 51.1369 113.444 51.8569C111.092 52.5289 108.5 52.8649 105.668 52.8649C103.124 52.8649 100.868 52.6009 98.9003 52.0729C96.9323 51.5449 95.2043 50.8489 93.7163 49.9849C92.2763 49.0729 91.0043 48.0409 89.9003 46.8889C88.8443 45.7369 87.9083 44.5129 87.0923 43.2169L95.0843 37.0249C96.1883 39.0889 97.5323 40.7929 99.1163 42.1369C100.748 43.4329 102.932 44.0809 105.668 44.0809C108.116 44.0809 110.012 43.4809 111.356 42.2809C112.748 41.0329 113.444 39.3529 113.444 37.2409V36.8089C113.444 34.7449 112.652 33.2089 111.068 32.2009C109.532 31.1449 107.396 30.6169 104.66 30.6169H100.124V21.6169H104.804Z" fill="#EEFB6E"/>
</svg>
