<svg width="352" height="122" viewBox="0 0 352 122" fill="none" xmlns="http://www.w3.org/2000/svg">
<g opacity="0.7">
<rect y="32" width="352" height="90" rx="41" fill="#1A1A1D"/>
<path d="M49.7 80.68H43.34L42.12 84H40.64L45.74 70.2H47.32L52.4 84H50.92L49.7 80.68ZM49.28 79.52L46.52 71.96L43.76 79.52H49.28ZM64.1069 73.08V84H62.7069V82.08C62.3869 82.76 61.8935 83.28 61.2269 83.64C60.5602 84 59.8135 84.18 58.9869 84.18C57.6802 84.18 56.6135 83.78 55.7869 82.98C54.9602 82.1667 54.5469 80.9933 54.5469 79.46V73.08H55.9269V79.3C55.9269 80.4867 56.2202 81.3933 56.8069 82.02C57.4069 82.6467 58.2202 82.96 59.2469 82.96C60.3002 82.96 61.1402 82.6267 61.7669 81.96C62.3935 81.2933 62.7069 80.3133 62.7069 79.02V73.08H64.1069ZM80.3031 72.88C81.5831 72.88 82.6231 73.2867 83.4231 74.1C84.2365 74.9 84.6431 76.0667 84.6431 77.6V84H83.2631V77.76C83.2631 76.5733 82.9765 75.6667 82.4031 75.04C81.8298 74.4133 81.0498 74.1 80.0631 74.1C79.0365 74.1 78.2165 74.44 77.6031 75.12C76.9898 75.8 76.6831 76.7867 76.6831 78.08V84H75.3031V77.76C75.3031 76.5733 75.0165 75.6667 74.4431 75.04C73.8698 74.4133 73.0831 74.1 72.0831 74.1C71.0565 74.1 70.2365 74.44 69.6231 75.12C69.0098 75.8 68.7031 76.7867 68.7031 78.08V84H67.3031V73.08H68.7031V74.96C69.0498 74.28 69.5431 73.7667 70.1831 73.42C70.8231 73.06 71.5365 72.88 72.3231 72.88C73.2698 72.88 74.0965 73.1067 74.8031 73.56C75.5231 74.0133 76.0431 74.68 76.3631 75.56C76.6565 74.6933 77.1565 74.0333 77.8631 73.58C78.5831 73.1133 79.3965 72.88 80.3031 72.88ZM97.6323 77.98C97.6323 78.46 97.619 78.8267 97.5923 79.08H88.5323C88.5723 79.9067 88.7723 80.6133 89.1323 81.2C89.4923 81.7867 89.9657 82.2333 90.5523 82.54C91.139 82.8333 91.779 82.98 92.4723 82.98C93.379 82.98 94.139 82.76 94.7523 82.32C95.379 81.88 95.7923 81.2867 95.9923 80.54H97.4723C97.2057 81.6067 96.6323 82.48 95.7523 83.16C94.8857 83.8267 93.7923 84.16 92.4723 84.16C91.4457 84.16 90.5257 83.9333 89.7123 83.48C88.899 83.0133 88.259 82.36 87.7923 81.52C87.339 80.6667 87.1123 79.6733 87.1123 78.54C87.1123 77.4067 87.339 76.4133 87.7923 75.56C88.2457 74.7067 88.879 74.0533 89.6923 73.6C90.5057 73.1467 91.4323 72.92 92.4723 72.92C93.5123 72.92 94.419 73.1467 95.1923 73.6C95.979 74.0533 96.579 74.6667 96.9923 75.44C97.419 76.2 97.6323 77.0467 97.6323 77.98ZM96.2123 77.94C96.2257 77.1267 96.059 76.4333 95.7123 75.86C95.379 75.2867 94.919 74.8533 94.3323 74.56C93.7457 74.2667 93.1057 74.12 92.4123 74.12C91.3723 74.12 90.4857 74.4533 89.7523 75.12C89.019 75.7867 88.6123 76.7267 88.5323 77.94H96.2123ZM105.314 72.88C106.62 72.88 107.687 73.2867 108.514 74.1C109.34 74.9 109.754 76.0667 109.754 77.6V84H108.374V77.76C108.374 76.5733 108.074 75.6667 107.474 75.04C106.887 74.4133 106.08 74.1 105.054 74.1C104 74.1 103.16 74.4333 102.534 75.1C101.907 75.7667 101.594 76.7467 101.594 78.04V84H100.194V73.08H101.594V74.94C101.94 74.2733 102.44 73.7667 103.094 73.42C103.747 73.06 104.487 72.88 105.314 72.88ZM114.67 74.26V81.04C114.67 81.7067 114.797 82.1667 115.05 82.42C115.303 82.6733 115.75 82.8 116.39 82.8H117.67V84H116.17C115.183 84 114.45 83.7733 113.97 83.32C113.49 82.8533 113.25 82.0933 113.25 81.04V74.26H111.73V73.08H113.25V70.34H114.67V73.08H117.67V74.26H114.67ZM119.339 78.52C119.339 77.4 119.559 76.42 119.999 75.58C120.452 74.7267 121.072 74.0733 121.859 73.62C122.659 73.1533 123.559 72.92 124.559 72.92C125.599 72.92 126.492 73.16 127.239 73.64C127.999 74.12 128.546 74.7333 128.879 75.48V73.08H130.279V84H128.879V81.58C128.532 82.3267 127.979 82.9467 127.219 83.44C126.472 83.92 125.579 84.16 124.539 84.16C123.552 84.16 122.659 83.9267 121.859 83.46C121.072 82.9933 120.452 82.3333 119.999 81.48C119.559 80.6267 119.339 79.64 119.339 78.52ZM128.879 78.54C128.879 77.66 128.699 76.8867 128.339 76.22C127.979 75.5533 127.486 75.04 126.859 74.68C126.246 74.32 125.566 74.14 124.819 74.14C124.046 74.14 123.352 74.3133 122.739 74.66C122.126 75.0067 121.639 75.5133 121.279 76.18C120.932 76.8333 120.759 77.6133 120.759 78.52C120.759 79.4133 120.932 80.2 121.279 80.88C121.639 81.5467 122.126 82.06 122.739 82.42C123.352 82.7667 124.046 82.94 124.819 82.94C125.566 82.94 126.246 82.76 126.859 82.4C127.486 82.04 127.979 81.5267 128.339 80.86C128.699 80.1933 128.879 79.42 128.879 78.54ZM134.875 75.02C135.182 74.34 135.648 73.8133 136.275 73.44C136.915 73.0667 137.695 72.88 138.615 72.88V74.34H138.235C137.222 74.34 136.408 74.6133 135.795 75.16C135.182 75.7067 134.875 76.62 134.875 77.9V84H133.475V73.08H134.875V75.02ZM149.969 84.16C148.716 84.16 147.689 83.8733 146.889 83.3C146.103 82.7133 145.663 81.92 145.569 80.92H147.009C147.076 81.5333 147.363 82.0333 147.869 82.42C148.389 82.7933 149.083 82.98 149.949 82.98C150.709 82.98 151.303 82.8 151.729 82.44C152.169 82.08 152.389 81.6333 152.389 81.1C152.389 80.7267 152.269 80.42 152.029 80.18C151.789 79.94 151.483 79.7533 151.109 79.62C150.749 79.4733 150.256 79.32 149.629 79.16C148.816 78.9467 148.156 78.7333 147.649 78.52C147.143 78.3067 146.709 77.9933 146.349 77.58C146.003 77.1533 145.829 76.5867 145.829 75.88C145.829 75.3467 145.989 74.8533 146.309 74.4C146.629 73.9467 147.083 73.5867 147.669 73.32C148.256 73.0533 148.923 72.92 149.669 72.92C150.843 72.92 151.789 73.22 152.509 73.82C153.229 74.4067 153.616 75.22 153.669 76.26H152.269C152.229 75.62 151.976 75.1067 151.509 74.72C151.056 74.32 150.429 74.12 149.629 74.12C148.923 74.12 148.349 74.2867 147.909 74.62C147.469 74.9533 147.249 75.3667 147.249 75.86C147.249 76.2867 147.376 76.64 147.629 76.92C147.896 77.1867 148.223 77.4 148.609 77.56C148.996 77.7067 149.516 77.8733 150.169 78.06C150.956 78.2733 151.583 78.48 152.049 78.68C152.516 78.88 152.916 79.1733 153.249 79.56C153.583 79.9467 153.756 80.46 153.769 81.1C153.769 81.6867 153.609 82.2133 153.289 82.68C152.969 83.1333 152.523 83.4933 151.949 83.76C151.376 84.0267 150.716 84.16 149.969 84.16ZM166.285 77.98C166.285 78.46 166.271 78.8267 166.245 79.08H157.185C157.225 79.9067 157.425 80.6133 157.785 81.2C158.145 81.7867 158.618 82.2333 159.205 82.54C159.791 82.8333 160.431 82.98 161.125 82.98C162.031 82.98 162.791 82.76 163.405 82.32C164.031 81.88 164.445 81.2867 164.645 80.54H166.125C165.858 81.6067 165.285 82.48 164.405 83.16C163.538 83.8267 162.445 84.16 161.125 84.16C160.098 84.16 159.178 83.9333 158.365 83.48C157.551 83.0133 156.911 82.36 156.445 81.52C155.991 80.6667 155.765 79.6733 155.765 78.54C155.765 77.4067 155.991 76.4133 156.445 75.56C156.898 74.7067 157.531 74.0533 158.345 73.6C159.158 73.1467 160.085 72.92 161.125 72.92C162.165 72.92 163.071 73.1467 163.845 73.6C164.631 74.0533 165.231 74.6667 165.645 75.44C166.071 76.2 166.285 77.0467 166.285 77.98ZM164.865 77.94C164.878 77.1267 164.711 76.4333 164.365 75.86C164.031 75.2867 163.571 74.8533 162.985 74.56C162.398 74.2667 161.758 74.12 161.065 74.12C160.025 74.12 159.138 74.4533 158.405 75.12C157.671 75.7867 157.265 76.7267 157.185 77.94H164.865ZM178.306 73.08V84H176.906V82.08C176.586 82.76 176.093 83.28 175.426 83.64C174.759 84 174.013 84.18 173.186 84.18C171.879 84.18 170.813 83.78 169.986 82.98C169.159 82.1667 168.746 80.9933 168.746 79.46V73.08H170.126V79.3C170.126 80.4867 170.419 81.3933 171.006 82.02C171.606 82.6467 172.419 82.96 173.446 82.96C174.499 82.96 175.339 82.6267 175.966 81.96C176.593 81.2933 176.906 80.3133 176.906 79.02V73.08H178.306ZM191.291 74.26H188.751V84H187.351V74.26H185.831V73.08H187.351V72.32C187.351 71.1333 187.651 70.26 188.251 69.7C188.864 69.14 189.851 68.86 191.211 68.86V70.06C190.304 70.06 189.664 70.2333 189.291 70.58C188.931 70.9267 188.751 71.5067 188.751 72.32V73.08H191.291V74.26ZM192.855 78.52C192.855 77.4 193.075 76.42 193.515 75.58C193.968 74.7267 194.588 74.0733 195.375 73.62C196.175 73.1533 197.075 72.92 198.075 72.92C199.115 72.92 200.008 73.16 200.755 73.64C201.515 74.12 202.061 74.7333 202.395 75.48V73.08H203.795V84H202.395V81.58C202.048 82.3267 201.495 82.9467 200.735 83.44C199.988 83.92 199.095 84.16 198.055 84.16C197.068 84.16 196.175 83.9267 195.375 83.46C194.588 82.9933 193.968 82.3333 193.515 81.48C193.075 80.6267 192.855 79.64 192.855 78.52ZM202.395 78.54C202.395 77.66 202.215 76.8867 201.855 76.22C201.495 75.5533 201.001 75.04 200.375 74.68C199.761 74.32 199.081 74.14 198.335 74.14C197.561 74.14 196.868 74.3133 196.255 74.66C195.641 75.0067 195.155 75.5133 194.795 76.18C194.448 76.8333 194.275 77.6133 194.275 78.52C194.275 79.4133 194.448 80.2 194.795 80.88C195.155 81.5467 195.641 82.06 196.255 82.42C196.868 82.7667 197.561 82.94 198.335 82.94C199.081 82.94 199.761 82.76 200.375 82.4C201.001 82.04 201.495 81.5267 201.855 80.86C202.215 80.1933 202.395 79.42 202.395 78.54ZM208.811 74.26V81.04C208.811 81.7067 208.937 82.1667 209.191 82.42C209.444 82.6733 209.891 82.8 210.531 82.8H211.811V84H210.311C209.324 84 208.591 83.7733 208.111 83.32C207.631 82.8533 207.391 82.0933 207.391 81.04V74.26H205.871V73.08H207.391V70.34H208.811V73.08H211.811V74.26H208.811ZM223.58 73.08V84H222.18V82.08C221.86 82.76 221.366 83.28 220.7 83.64C220.033 84 219.286 84.18 218.46 84.18C217.153 84.18 216.086 83.78 215.26 82.98C214.433 82.1667 214.02 80.9933 214.02 79.46V73.08H215.4V79.3C215.4 80.4867 215.693 81.3933 216.28 82.02C216.88 82.6467 217.693 82.96 218.72 82.96C219.773 82.96 220.613 82.6267 221.24 81.96C221.866 81.2933 222.18 80.3133 222.18 79.02V73.08H223.58ZM228.176 75.02C228.482 74.34 228.949 73.8133 229.576 73.44C230.216 73.0667 230.996 72.88 231.916 72.88V74.34H231.536C230.522 74.34 229.709 74.6133 229.096 75.16C228.482 75.7067 228.176 76.62 228.176 77.9V84H226.776V73.08H228.176V75.02ZM233.382 78.52C233.382 77.4 233.602 76.42 234.042 75.58C234.495 74.7267 235.115 74.0733 235.902 73.62C236.702 73.1533 237.602 72.92 238.602 72.92C239.642 72.92 240.535 73.16 241.282 73.64C242.042 74.12 242.589 74.7333 242.922 75.48V73.08H244.322V84H242.922V81.58C242.575 82.3267 242.022 82.9467 241.262 83.44C240.515 83.92 239.622 84.16 238.582 84.16C237.595 84.16 236.702 83.9267 235.902 83.46C235.115 82.9933 234.495 82.3333 234.042 81.48C233.602 80.6267 233.382 79.64 233.382 78.52ZM242.922 78.54C242.922 77.66 242.742 76.8867 242.382 76.22C242.022 75.5533 241.529 75.04 240.902 74.68C240.289 74.32 239.609 74.14 238.862 74.14C238.089 74.14 237.395 74.3133 236.782 74.66C236.169 75.0067 235.682 75.5133 235.322 76.18C234.975 76.8333 234.802 77.6133 234.802 78.52C234.802 79.4133 234.975 80.2 235.322 80.88C235.682 81.5467 236.169 82.06 236.782 82.42C237.395 82.7667 238.089 82.94 238.862 82.94C239.609 82.94 240.289 82.76 240.902 82.4C241.529 82.04 242.022 81.5267 242.382 80.86C242.742 80.1933 242.922 79.42 242.922 78.54ZM260.518 72.88C261.798 72.88 262.838 73.2867 263.638 74.1C264.451 74.9 264.858 76.0667 264.858 77.6V84H263.478V77.76C263.478 76.5733 263.191 75.6667 262.618 75.04C262.045 74.4133 261.265 74.1 260.278 74.1C259.251 74.1 258.431 74.44 257.818 75.12C257.205 75.8 256.898 76.7867 256.898 78.08V84H255.518V77.76C255.518 76.5733 255.231 75.6667 254.658 75.04C254.085 74.4133 253.298 74.1 252.298 74.1C251.271 74.1 250.451 74.44 249.838 75.12C249.225 75.8 248.918 76.7867 248.918 78.08V84H247.518V73.08H248.918V74.96C249.265 74.28 249.758 73.7667 250.398 73.42C251.038 73.06 251.751 72.88 252.538 72.88C253.485 72.88 254.311 73.1067 255.018 73.56C255.738 74.0133 256.258 74.68 256.578 75.56C256.871 74.6933 257.371 74.0333 258.078 73.58C258.798 73.1133 259.611 72.88 260.518 72.88ZM277.847 77.98C277.847 78.46 277.834 78.8267 277.807 79.08H268.747C268.787 79.9067 268.987 80.6133 269.347 81.2C269.707 81.7867 270.181 82.2333 270.767 82.54C271.354 82.8333 271.994 82.98 272.687 82.98C273.594 82.98 274.354 82.76 274.967 82.32C275.594 81.88 276.007 81.2867 276.207 80.54H277.687C277.421 81.6067 276.847 82.48 275.967 83.16C275.101 83.8267 274.007 84.16 272.687 84.16C271.661 84.16 270.741 83.9333 269.927 83.48C269.114 83.0133 268.474 82.36 268.007 81.52C267.554 80.6667 267.327 79.6733 267.327 78.54C267.327 77.4067 267.554 76.4133 268.007 75.56C268.461 74.7067 269.094 74.0533 269.907 73.6C270.721 73.1467 271.647 72.92 272.687 72.92C273.727 72.92 274.634 73.1467 275.407 73.6C276.194 74.0533 276.794 74.6667 277.207 75.44C277.634 76.2 277.847 77.0467 277.847 77.98ZM276.427 77.94C276.441 77.1267 276.274 76.4333 275.927 75.86C275.594 75.2867 275.134 74.8533 274.547 74.56C273.961 74.2667 273.321 74.12 272.627 74.12C271.587 74.12 270.701 74.4533 269.967 75.12C269.234 75.7867 268.827 76.7267 268.747 77.94H276.427ZM285.529 72.88C286.835 72.88 287.902 73.2867 288.729 74.1C289.555 74.9 289.969 76.0667 289.969 77.6V84H288.589V77.76C288.589 76.5733 288.289 75.6667 287.689 75.04C287.102 74.4133 286.295 74.1 285.269 74.1C284.215 74.1 283.375 74.4333 282.749 75.1C282.122 75.7667 281.809 76.7467 281.809 78.04V84H280.409V73.08H281.809V74.94C282.155 74.2733 282.655 73.7667 283.309 73.42C283.962 73.06 284.702 72.88 285.529 72.88ZM294.885 74.26V81.04C294.885 81.7067 295.012 82.1667 295.265 82.42C295.518 82.6733 295.965 82.8 296.605 82.8H297.885V84H296.385C295.398 84 294.665 83.7733 294.185 83.32C293.705 82.8533 293.465 82.0933 293.465 81.04V74.26H291.945V73.08H293.465V70.34H294.885V73.08H297.885V74.26H294.885ZM304.974 84.16C303.947 84.16 303.02 83.9333 302.194 83.48C301.38 83.0133 300.734 82.36 300.254 81.52C299.787 80.6667 299.554 79.6733 299.554 78.54C299.554 77.4067 299.794 76.42 300.274 75.58C300.754 74.7267 301.407 74.0733 302.234 73.62C303.06 73.1533 303.987 72.92 305.014 72.92C306.04 72.92 306.967 73.1533 307.794 73.62C308.634 74.0733 309.287 74.7267 309.754 75.58C310.234 76.42 310.474 77.4067 310.474 78.54C310.474 79.66 310.234 80.6467 309.754 81.5C309.274 82.3533 308.614 83.0133 307.774 83.48C306.934 83.9333 306 84.16 304.974 84.16ZM304.974 82.94C305.694 82.94 306.36 82.78 306.974 82.46C307.587 82.1267 308.08 81.6333 308.454 80.98C308.84 80.3133 309.034 79.5 309.034 78.54C309.034 77.58 308.847 76.7733 308.474 76.12C308.1 75.4533 307.607 74.96 306.994 74.64C306.38 74.3067 305.714 74.14 304.994 74.14C304.274 74.14 303.607 74.3067 302.994 74.64C302.38 74.96 301.887 75.4533 301.514 76.12C301.154 76.7733 300.974 77.58 300.974 78.54C300.974 79.5 301.154 80.3133 301.514 80.98C301.887 81.6333 302.374 82.1267 302.974 82.46C303.587 82.78 304.254 82.94 304.974 82.94Z" fill="#AFAFAF"/>
</g>
<path d="M191.682 10.1761H168.858L167.778 26.0881H168.354C168.834 24.8881 169.362 23.8081 169.938 22.8481C170.562 21.8401 171.282 21.0001 172.098 20.3281C172.914 19.6081 173.898 19.0561 175.05 18.6721C176.202 18.2881 177.57 18.0961 179.154 18.0961C181.314 18.0961 183.33 18.4561 185.202 19.1761C187.074 19.8961 188.706 20.9521 190.098 22.3441C191.49 23.6881 192.594 25.3681 193.41 27.3841C194.226 29.3521 194.634 31.5841 194.634 34.0801C194.634 36.6241 194.202 39.0001 193.338 41.2081C192.522 43.3681 191.274 45.2401 189.594 46.8241C187.962 48.4081 185.946 49.6561 183.546 50.5681C181.146 51.4321 178.41 51.8641 175.338 51.8641C172.89 51.8641 170.73 51.6001 168.858 51.0721C166.986 50.5441 165.33 49.8481 163.89 48.9841C162.45 48.0721 161.202 47.0401 160.146 45.8881C159.09 44.7361 158.178 43.5121 157.41 42.2161L165.258 36.0241C166.362 37.9921 167.682 39.6721 169.218 41.0641C170.754 42.4081 172.818 43.0801 175.41 43.0801C178.002 43.0801 179.946 42.3361 181.242 40.8481C182.586 39.3601 183.258 37.3921 183.258 34.9441V34.3681C183.258 32.0641 182.586 30.2401 181.242 28.8961C179.898 27.5521 178.05 26.8801 175.698 26.8801C173.73 26.8801 172.098 27.2881 170.802 28.1041C169.554 28.8721 168.594 29.6401 167.922 30.4081L159.066 29.1841L160.938 0.744141H191.682V10.1761Z" fill="#EEFB6E"/>
</svg>
