<svg width="334" height="122" viewBox="0 0 334 122" fill="none" xmlns="http://www.w3.org/2000/svg">
<g opacity="0.7">
<rect y="32" width="334" height="90" rx="41" fill="#1A1A1D"/>
<path d="M49.7 80.68H43.34L42.12 84H40.64L45.74 70.2H47.32L52.4 84H50.92L49.7 80.68ZM49.28 79.52L46.52 71.96L43.76 79.52H49.28ZM64.1069 73.08V84H62.7069V82.08C62.3869 82.76 61.8935 83.28 61.2269 83.64C60.5602 84 59.8135 84.18 58.9869 84.18C57.6802 84.18 56.6135 83.78 55.7869 82.98C54.9602 82.1667 54.5469 80.9933 54.5469 79.46V73.08H55.9269V79.3C55.9269 80.4867 56.2202 81.3933 56.8069 82.02C57.4069 82.6467 58.2202 82.96 59.2469 82.96C60.3002 82.96 61.1402 82.6267 61.7669 81.96C62.3935 81.2933 62.7069 80.3133 62.7069 79.02V73.08H64.1069ZM80.3031 72.88C81.5831 72.88 82.6231 73.2867 83.4231 74.1C84.2365 74.9 84.6431 76.0667 84.6431 77.6V84H83.2631V77.76C83.2631 76.5733 82.9765 75.6667 82.4031 75.04C81.8298 74.4133 81.0498 74.1 80.0631 74.1C79.0365 74.1 78.2165 74.44 77.6031 75.12C76.9898 75.8 76.6831 76.7867 76.6831 78.08V84H75.3031V77.76C75.3031 76.5733 75.0165 75.6667 74.4431 75.04C73.8698 74.4133 73.0831 74.1 72.0831 74.1C71.0565 74.1 70.2365 74.44 69.6231 75.12C69.0098 75.8 68.7031 76.7867 68.7031 78.08V84H67.3031V73.08H68.7031V74.96C69.0498 74.28 69.5431 73.7667 70.1831 73.42C70.8231 73.06 71.5365 72.88 72.3231 72.88C73.2698 72.88 74.0965 73.1067 74.8031 73.56C75.5231 74.0133 76.0431 74.68 76.3631 75.56C76.6565 74.6933 77.1565 74.0333 77.8631 73.58C78.5831 73.1133 79.3965 72.88 80.3031 72.88ZM97.6323 77.98C97.6323 78.46 97.619 78.8267 97.5923 79.08H88.5323C88.5723 79.9067 88.7723 80.6133 89.1323 81.2C89.4923 81.7867 89.9657 82.2333 90.5523 82.54C91.139 82.8333 91.779 82.98 92.4723 82.98C93.379 82.98 94.139 82.76 94.7523 82.32C95.379 81.88 95.7923 81.2867 95.9923 80.54H97.4723C97.2057 81.6067 96.6323 82.48 95.7523 83.16C94.8857 83.8267 93.7923 84.16 92.4723 84.16C91.4457 84.16 90.5257 83.9333 89.7123 83.48C88.899 83.0133 88.259 82.36 87.7923 81.52C87.339 80.6667 87.1123 79.6733 87.1123 78.54C87.1123 77.4067 87.339 76.4133 87.7923 75.56C88.2457 74.7067 88.879 74.0533 89.6923 73.6C90.5057 73.1467 91.4323 72.92 92.4723 72.92C93.5123 72.92 94.419 73.1467 95.1923 73.6C95.979 74.0533 96.579 74.6667 96.9923 75.44C97.419 76.2 97.6323 77.0467 97.6323 77.98ZM96.2123 77.94C96.2257 77.1267 96.059 76.4333 95.7123 75.86C95.379 75.2867 94.919 74.8533 94.3323 74.56C93.7457 74.2667 93.1057 74.12 92.4123 74.12C91.3723 74.12 90.4857 74.4533 89.7523 75.12C89.019 75.7867 88.6123 76.7267 88.5323 77.94H96.2123ZM105.314 72.88C106.62 72.88 107.687 73.2867 108.514 74.1C109.34 74.9 109.754 76.0667 109.754 77.6V84H108.374V77.76C108.374 76.5733 108.074 75.6667 107.474 75.04C106.887 74.4133 106.08 74.1 105.054 74.1C104 74.1 103.16 74.4333 102.534 75.1C101.907 75.7667 101.594 76.7467 101.594 78.04V84H100.194V73.08H101.594V74.94C101.94 74.2733 102.44 73.7667 103.094 73.42C103.747 73.06 104.487 72.88 105.314 72.88ZM114.67 74.26V81.04C114.67 81.7067 114.797 82.1667 115.05 82.42C115.303 82.6733 115.75 82.8 116.39 82.8H117.67V84H116.17C115.183 84 114.45 83.7733 113.97 83.32C113.49 82.8533 113.25 82.0933 113.25 81.04V74.26H111.73V73.08H113.25V70.34H114.67V73.08H117.67V74.26H114.67ZM119.339 78.52C119.339 77.4 119.559 76.42 119.999 75.58C120.452 74.7267 121.072 74.0733 121.859 73.62C122.659 73.1533 123.559 72.92 124.559 72.92C125.599 72.92 126.492 73.16 127.239 73.64C127.999 74.12 128.546 74.7333 128.879 75.48V73.08H130.279V84H128.879V81.58C128.532 82.3267 127.979 82.9467 127.219 83.44C126.472 83.92 125.579 84.16 124.539 84.16C123.552 84.16 122.659 83.9267 121.859 83.46C121.072 82.9933 120.452 82.3333 119.999 81.48C119.559 80.6267 119.339 79.64 119.339 78.52ZM128.879 78.54C128.879 77.66 128.699 76.8867 128.339 76.22C127.979 75.5533 127.486 75.04 126.859 74.68C126.246 74.32 125.566 74.14 124.819 74.14C124.046 74.14 123.352 74.3133 122.739 74.66C122.126 75.0067 121.639 75.5133 121.279 76.18C120.932 76.8333 120.759 77.6133 120.759 78.52C120.759 79.4133 120.932 80.2 121.279 80.88C121.639 81.5467 122.126 82.06 122.739 82.42C123.352 82.7667 124.046 82.94 124.819 82.94C125.566 82.94 126.246 82.76 126.859 82.4C127.486 82.04 127.979 81.5267 128.339 80.86C128.699 80.1933 128.879 79.42 128.879 78.54ZM134.875 75.02C135.182 74.34 135.648 73.8133 136.275 73.44C136.915 73.0667 137.695 72.88 138.615 72.88V74.34H138.235C137.222 74.34 136.408 74.6133 135.795 75.16C135.182 75.7067 134.875 76.62 134.875 77.9V84H133.475V73.08H134.875V75.02ZM145.569 78.52C145.569 77.4 145.789 76.42 146.229 75.58C146.683 74.7267 147.303 74.0733 148.089 73.62C148.889 73.1533 149.789 72.92 150.789 72.92C151.829 72.92 152.723 73.16 153.469 73.64C154.229 74.12 154.776 74.7333 155.109 75.48V73.08H156.509V84H155.109V81.58C154.763 82.3267 154.209 82.9467 153.449 83.44C152.703 83.92 151.809 84.16 150.769 84.16C149.783 84.16 148.889 83.9267 148.089 83.46C147.303 82.9933 146.683 82.3333 146.229 81.48C145.789 80.6267 145.569 79.64 145.569 78.52ZM155.109 78.54C155.109 77.66 154.929 76.8867 154.569 76.22C154.209 75.5533 153.716 75.04 153.089 74.68C152.476 74.32 151.796 74.14 151.049 74.14C150.276 74.14 149.583 74.3133 148.969 74.66C148.356 75.0067 147.869 75.5133 147.509 76.18C147.163 76.8333 146.989 77.6133 146.989 78.52C146.989 79.4133 147.163 80.2 147.509 80.88C147.869 81.5467 148.356 82.06 148.969 82.42C149.583 82.7667 150.276 82.94 151.049 82.94C151.796 82.94 152.476 82.76 153.089 82.4C153.716 82.04 154.209 81.5267 154.569 80.86C154.929 80.1933 155.109 79.42 155.109 78.54ZM164.554 78.54C164.554 77.4067 164.78 76.42 165.234 75.58C165.687 74.7267 166.314 74.0733 167.114 73.62C167.914 73.1533 168.827 72.92 169.854 72.92C171.2 72.92 172.307 73.2533 173.174 73.92C174.054 74.5867 174.62 75.4933 174.874 76.64H173.374C173.187 75.8533 172.78 75.24 172.154 74.8C171.54 74.3467 170.774 74.12 169.854 74.12C169.12 74.12 168.46 74.2867 167.874 74.62C167.287 74.9533 166.82 75.4533 166.474 76.12C166.14 76.7733 165.974 77.58 165.974 78.54C165.974 79.5 166.14 80.3133 166.474 80.98C166.82 81.6467 167.287 82.1467 167.874 82.48C168.46 82.8133 169.12 82.98 169.854 82.98C170.774 82.98 171.54 82.76 172.154 82.32C172.78 81.8667 173.187 81.24 173.374 80.44H174.874C174.62 81.56 174.054 82.46 173.174 83.14C172.294 83.82 171.187 84.16 169.854 84.16C168.827 84.16 167.914 83.9333 167.114 83.48C166.314 83.0133 165.687 82.36 165.234 81.52C164.78 80.6667 164.554 79.6733 164.554 78.54ZM178.859 75.02C179.166 74.34 179.633 73.8133 180.259 73.44C180.899 73.0667 181.679 72.88 182.599 72.88V74.34H182.219C181.206 74.34 180.393 74.6133 179.779 75.16C179.166 75.7067 178.859 76.62 178.859 77.9V84H177.459V73.08H178.859V75.02ZM194.585 77.98C194.585 78.46 194.572 78.8267 194.545 79.08H185.485C185.525 79.9067 185.725 80.6133 186.085 81.2C186.445 81.7867 186.919 82.2333 187.505 82.54C188.092 82.8333 188.732 82.98 189.425 82.98C190.332 82.98 191.092 82.76 191.705 82.32C192.332 81.88 192.745 81.2867 192.945 80.54H194.425C194.159 81.6067 193.585 82.48 192.705 83.16C191.839 83.8267 190.745 84.16 189.425 84.16C188.399 84.16 187.479 83.9333 186.665 83.48C185.852 83.0133 185.212 82.36 184.745 81.52C184.292 80.6667 184.065 79.6733 184.065 78.54C184.065 77.4067 184.292 76.4133 184.745 75.56C185.199 74.7067 185.832 74.0533 186.645 73.6C187.459 73.1467 188.385 72.92 189.425 72.92C190.465 72.92 191.372 73.1467 192.145 73.6C192.932 74.0533 193.532 74.6667 193.945 75.44C194.372 76.2 194.585 77.0467 194.585 77.98ZM193.165 77.94C193.179 77.1267 193.012 76.4333 192.665 75.86C192.332 75.2867 191.872 74.8533 191.285 74.56C190.699 74.2667 190.059 74.12 189.365 74.12C188.325 74.12 187.439 74.4533 186.705 75.12C185.972 75.7867 185.565 76.7267 185.485 77.94H193.165ZM196.507 78.52C196.507 77.4 196.734 76.42 197.187 75.58C197.64 74.7267 198.26 74.0733 199.047 73.62C199.847 73.1533 200.747 72.92 201.747 72.92C202.707 72.92 203.574 73.1533 204.347 73.62C205.12 74.0867 205.687 74.6933 206.047 75.44V69.2H207.447V84H206.047V81.56C205.714 82.32 205.167 82.9467 204.407 83.44C203.647 83.92 202.754 84.16 201.727 84.16C200.727 84.16 199.827 83.9267 199.027 83.46C198.24 82.9933 197.62 82.3333 197.167 81.48C196.727 80.6267 196.507 79.64 196.507 78.52ZM206.047 78.54C206.047 77.66 205.867 76.8867 205.507 76.22C205.147 75.5533 204.654 75.04 204.027 74.68C203.414 74.32 202.734 74.14 201.987 74.14C201.214 74.14 200.52 74.3133 199.907 74.66C199.294 75.0067 198.807 75.5133 198.447 76.18C198.1 76.8333 197.927 77.6133 197.927 78.52C197.927 79.4133 198.1 80.2 198.447 80.88C198.807 81.5467 199.294 82.06 199.907 82.42C200.52 82.7667 201.214 82.94 201.987 82.94C202.734 82.94 203.414 82.76 204.027 82.4C204.654 82.04 205.147 81.5267 205.507 80.86C205.867 80.1933 206.047 79.42 206.047 78.54ZM211.343 71.02C211.063 71.02 210.823 70.92 210.623 70.72C210.423 70.52 210.323 70.2733 210.323 69.98C210.323 69.6867 210.423 69.4467 210.623 69.26C210.823 69.06 211.063 68.96 211.343 68.96C211.623 68.96 211.863 69.06 212.063 69.26C212.263 69.4467 212.363 69.6867 212.363 69.98C212.363 70.2733 212.263 70.52 212.063 70.72C211.863 70.92 211.623 71.02 211.343 71.02ZM212.043 73.08V84H210.643V73.08H212.043ZM216.593 75.5C216.953 74.74 217.507 74.12 218.253 73.64C219.013 73.16 219.907 72.92 220.933 72.92C221.933 72.92 222.827 73.1533 223.613 73.62C224.4 74.0733 225.013 74.7267 225.453 75.58C225.907 76.42 226.133 77.4 226.133 78.52C226.133 79.64 225.907 80.6267 225.453 81.48C225.013 82.3333 224.393 82.9933 223.593 83.46C222.807 83.9267 221.92 84.16 220.933 84.16C219.893 84.16 218.993 83.9267 218.233 83.46C217.487 82.98 216.94 82.36 216.593 81.6V84H215.213V69.2H216.593V75.5ZM224.713 78.52C224.713 77.6133 224.533 76.8333 224.173 76.18C223.827 75.5133 223.347 75.0067 222.733 74.66C222.12 74.3133 221.427 74.14 220.653 74.14C219.907 74.14 219.22 74.32 218.593 74.68C217.98 75.04 217.493 75.5533 217.133 76.22C216.773 76.8867 216.593 77.66 216.593 78.54C216.593 79.42 216.773 80.1933 217.133 80.86C217.493 81.5267 217.98 82.04 218.593 82.4C219.22 82.76 219.907 82.94 220.653 82.94C221.427 82.94 222.12 82.7667 222.733 82.42C223.347 82.06 223.827 81.5467 224.173 80.88C224.533 80.2 224.713 79.4133 224.713 78.52ZM229.409 71.02C229.129 71.02 228.889 70.92 228.689 70.72C228.489 70.52 228.389 70.2733 228.389 69.98C228.389 69.6867 228.489 69.4467 228.689 69.26C228.889 69.06 229.129 68.96 229.409 68.96C229.689 68.96 229.929 69.06 230.129 69.26C230.329 69.4467 230.429 69.6867 230.429 69.98C230.429 70.2733 230.329 70.52 230.129 70.72C229.929 70.92 229.689 71.02 229.409 71.02ZM230.109 73.08V84H228.709V73.08H230.109ZM234.68 69.2V84H233.28V69.2H234.68ZM238.55 71.02C238.27 71.02 238.03 70.92 237.83 70.72C237.63 70.52 237.53 70.2733 237.53 69.98C237.53 69.6867 237.63 69.4467 237.83 69.26C238.03 69.06 238.27 68.96 238.55 68.96C238.83 68.96 239.07 69.06 239.27 69.26C239.47 69.4467 239.57 69.6867 239.57 69.98C239.57 70.2733 239.47 70.52 239.27 70.72C239.07 70.92 238.83 71.02 238.55 71.02ZM239.25 73.08V84H237.85V73.08H239.25ZM241.78 78.52C241.78 77.4 242.007 76.42 242.46 75.58C242.914 74.7267 243.534 74.0733 244.32 73.62C245.12 73.1533 246.02 72.92 247.02 72.92C247.98 72.92 248.847 73.1533 249.62 73.62C250.394 74.0867 250.96 74.6933 251.32 75.44V69.2H252.72V84H251.32V81.56C250.987 82.32 250.44 82.9467 249.68 83.44C248.92 83.92 248.027 84.16 247 84.16C246 84.16 245.1 83.9267 244.3 83.46C243.514 82.9933 242.894 82.3333 242.44 81.48C242 80.6267 241.78 79.64 241.78 78.52ZM251.32 78.54C251.32 77.66 251.14 76.8867 250.78 76.22C250.42 75.5533 249.927 75.04 249.3 74.68C248.687 74.32 248.007 74.14 247.26 74.14C246.487 74.14 245.794 74.3133 245.18 74.66C244.567 75.0067 244.08 75.5133 243.72 76.18C243.374 76.8333 243.2 77.6133 243.2 78.52C243.2 79.4133 243.374 80.2 243.72 80.88C244.08 81.5467 244.567 82.06 245.18 82.42C245.794 82.7667 246.487 82.94 247.26 82.94C248.007 82.94 248.687 82.76 249.3 82.4C249.927 82.04 250.42 81.5267 250.78 80.86C251.14 80.1933 251.32 79.42 251.32 78.54ZM255.276 78.52C255.276 77.4 255.496 76.42 255.936 75.58C256.39 74.7267 257.01 74.0733 257.796 73.62C258.596 73.1533 259.496 72.92 260.496 72.92C261.536 72.92 262.43 73.16 263.176 73.64C263.936 74.12 264.483 74.7333 264.816 75.48V73.08H266.216V84H264.816V81.58C264.47 82.3267 263.916 82.9467 263.156 83.44C262.41 83.92 261.516 84.16 260.476 84.16C259.49 84.16 258.596 83.9267 257.796 83.46C257.01 82.9933 256.39 82.3333 255.936 81.48C255.496 80.6267 255.276 79.64 255.276 78.52ZM264.816 78.54C264.816 77.66 264.636 76.8867 264.276 76.22C263.916 75.5533 263.423 75.04 262.796 74.68C262.183 74.32 261.503 74.14 260.756 74.14C259.983 74.14 259.29 74.3133 258.676 74.66C258.063 75.0067 257.576 75.5133 257.216 76.18C256.87 76.8333 256.696 77.6133 256.696 78.52C256.696 79.4133 256.87 80.2 257.216 80.88C257.576 81.5467 258.063 82.06 258.676 82.42C259.29 82.7667 259.983 82.94 260.756 82.94C261.503 82.94 262.183 82.76 262.796 82.4C263.423 82.04 263.916 81.5267 264.276 80.86C264.636 80.1933 264.816 79.42 264.816 78.54ZM268.773 78.52C268.773 77.4 268.999 76.42 269.453 75.58C269.906 74.7267 270.526 74.0733 271.313 73.62C272.113 73.1533 273.013 72.92 274.013 72.92C274.973 72.92 275.839 73.1533 276.613 73.62C277.386 74.0867 277.953 74.6933 278.313 75.44V69.2H279.713V84H278.313V81.56C277.979 82.32 277.433 82.9467 276.673 83.44C275.913 83.92 275.019 84.16 273.993 84.16C272.993 84.16 272.093 83.9267 271.293 83.46C270.506 82.9933 269.886 82.3333 269.433 81.48C268.993 80.6267 268.773 79.64 268.773 78.52ZM278.313 78.54C278.313 77.66 278.133 76.8867 277.773 76.22C277.413 75.5533 276.919 75.04 276.293 74.68C275.679 74.32 274.999 74.14 274.253 74.14C273.479 74.14 272.786 74.3133 272.173 74.66C271.559 75.0067 271.073 75.5133 270.713 76.18C270.366 76.8333 270.193 77.6133 270.193 78.52C270.193 79.4133 270.366 80.2 270.713 80.88C271.073 81.5467 271.559 82.06 272.173 82.42C272.786 82.7667 273.479 82.94 274.253 82.94C274.999 82.94 275.679 82.76 276.293 82.4C276.919 82.04 277.413 81.5267 277.773 80.86C278.133 80.1933 278.313 79.42 278.313 78.54ZM292.789 77.98C292.789 78.46 292.775 78.8267 292.749 79.08H283.689C283.729 79.9067 283.929 80.6133 284.289 81.2C284.649 81.7867 285.122 82.2333 285.709 82.54C286.295 82.8333 286.935 82.98 287.629 82.98C288.535 82.98 289.295 82.76 289.909 82.32C290.535 81.88 290.949 81.2867 291.149 80.54H292.629C292.362 81.6067 291.789 82.48 290.909 83.16C290.042 83.8267 288.949 84.16 287.629 84.16C286.602 84.16 285.682 83.9333 284.869 83.48C284.055 83.0133 283.415 82.36 282.949 81.52C282.495 80.6667 282.269 79.6733 282.269 78.54C282.269 77.4067 282.495 76.4133 282.949 75.56C283.402 74.7067 284.035 74.0533 284.849 73.6C285.662 73.1467 286.589 72.92 287.629 72.92C288.669 72.92 289.575 73.1467 290.349 73.6C291.135 74.0533 291.735 74.6667 292.149 75.44C292.575 76.2 292.789 77.0467 292.789 77.98ZM291.369 77.94C291.382 77.1267 291.215 76.4333 290.869 75.86C290.535 75.2867 290.075 74.8533 289.489 74.56C288.902 74.2667 288.262 74.12 287.569 74.12C286.529 74.12 285.642 74.4533 284.909 75.12C284.175 75.7867 283.769 76.7267 283.689 77.94H291.369Z" fill="#AFAFAF"/>
</g>
<path d="M169.31 51.0001V41.3521H147.206V32.1361L166.79 0.744141H179.606V33.0001H185.942V41.3521H179.606V51.0001H169.31ZM155.846 33.0001H169.31V11.9041H168.59L155.846 33.0001Z" fill="#EEFB6E"/>
</svg>
