<svg width="298" height="123" viewBox="0 0 298 123" fill="none" xmlns="http://www.w3.org/2000/svg">
<g opacity="0.7">
<rect y="33" width="298" height="90" rx="41" fill="#1A1A1D"/>
<path d="M45.74 71.02C47.2867 71.02 48.6133 71.3 49.72 71.86C50.8267 72.42 51.6733 73.2267 52.26 74.28C52.8467 75.3333 53.14 76.5867 53.14 78.04C53.14 79.48 52.8467 80.7267 52.26 81.78C51.6733 82.82 50.8267 83.62 49.72 84.18C48.6133 84.7267 47.2867 85 45.74 85H41.6V71.02H45.74ZM45.74 83.84C47.6867 83.84 49.1667 83.3333 50.18 82.32C51.2067 81.2933 51.72 79.8667 51.72 78.04C51.72 76.2 51.2067 74.7667 50.18 73.74C49.1667 72.7 47.6867 72.18 45.74 72.18H43V83.84H45.74ZM65.6011 78.98C65.6011 79.46 65.5878 79.8267 65.5611 80.08H56.5011C56.5411 80.9067 56.7411 81.6133 57.1011 82.2C57.4611 82.7867 57.9344 83.2333 58.5211 83.54C59.1078 83.8333 59.7478 83.98 60.4411 83.98C61.3478 83.98 62.1078 83.76 62.7211 83.32C63.3478 82.88 63.7611 82.2867 63.9611 81.54H65.4411C65.1744 82.6067 64.6011 83.48 63.7211 84.16C62.8544 84.8267 61.7611 85.16 60.4411 85.16C59.4144 85.16 58.4944 84.9333 57.6811 84.48C56.8678 84.0133 56.2278 83.36 55.7611 82.52C55.3078 81.6667 55.0811 80.6733 55.0811 79.54C55.0811 78.4067 55.3078 77.4133 55.7611 76.56C56.2144 75.7067 56.8478 75.0533 57.6611 74.6C58.4744 74.1467 59.4011 73.92 60.4411 73.92C61.4811 73.92 62.3878 74.1467 63.1611 74.6C63.9478 75.0533 64.5478 75.6667 64.9611 76.44C65.3878 77.2 65.6011 78.0467 65.6011 78.98ZM64.1811 78.94C64.1944 78.1267 64.0278 77.4333 63.6811 76.86C63.3478 76.2867 62.8878 75.8533 62.3011 75.56C61.7144 75.2667 61.0744 75.12 60.3811 75.12C59.3411 75.12 58.4544 75.4533 57.7211 76.12C56.9878 76.7867 56.5811 77.7267 56.5011 78.94H64.1811ZM71.9225 85.16C70.6692 85.16 69.6425 84.8733 68.8425 84.3C68.0558 83.7133 67.6158 82.92 67.5225 81.92H68.9625C69.0292 82.5333 69.3158 83.0333 69.8225 83.42C70.3425 83.7933 71.0358 83.98 71.9025 83.98C72.6625 83.98 73.2558 83.8 73.6825 83.44C74.1225 83.08 74.3425 82.6333 74.3425 82.1C74.3425 81.7267 74.2225 81.42 73.9825 81.18C73.7425 80.94 73.4358 80.7533 73.0625 80.62C72.7025 80.4733 72.2092 80.32 71.5825 80.16C70.7692 79.9467 70.1092 79.7333 69.6025 79.52C69.0958 79.3067 68.6625 78.9933 68.3025 78.58C67.9558 78.1533 67.7825 77.5867 67.7825 76.88C67.7825 76.3467 67.9425 75.8533 68.2625 75.4C68.5825 74.9467 69.0358 74.5867 69.6225 74.32C70.2092 74.0533 70.8758 73.92 71.6225 73.92C72.7958 73.92 73.7425 74.22 74.4625 74.82C75.1825 75.4067 75.5692 76.22 75.6225 77.26H74.2225C74.1825 76.62 73.9292 76.1067 73.4625 75.72C73.0092 75.32 72.3825 75.12 71.5825 75.12C70.8758 75.12 70.3025 75.2867 69.8625 75.62C69.4225 75.9533 69.2025 76.3667 69.2025 76.86C69.2025 77.2867 69.3292 77.64 69.5825 77.92C69.8492 78.1867 70.1758 78.4 70.5625 78.56C70.9492 78.7067 71.4692 78.8733 72.1225 79.06C72.9092 79.2733 73.5358 79.48 74.0025 79.68C74.4692 79.88 74.8692 80.1733 75.2025 80.56C75.5358 80.9467 75.7092 81.46 75.7225 82.1C75.7225 82.6867 75.5625 83.2133 75.2425 83.68C74.9225 84.1333 74.4758 84.4933 73.9025 84.76C73.3292 85.0267 72.6692 85.16 71.9225 85.16ZM80.1778 75.26V82.04C80.1778 82.7067 80.3045 83.1667 80.5578 83.42C80.8111 83.6733 81.2578 83.8 81.8978 83.8H83.1778V85H81.6778C80.6911 85 79.9578 84.7733 79.4778 84.32C78.9978 83.8533 78.7578 83.0933 78.7578 82.04V75.26H77.2378V74.08H78.7578V71.34H80.1778V74.08H83.1778V75.26H80.1778ZM84.8467 79.52C84.8467 78.4 85.0667 77.42 85.5067 76.58C85.9601 75.7267 86.5801 75.0733 87.3667 74.62C88.1667 74.1533 89.0667 73.92 90.0667 73.92C91.1067 73.92 92.0001 74.16 92.7467 74.64C93.5067 75.12 94.0534 75.7333 94.3867 76.48V74.08H95.7867V85H94.3867V82.58C94.0401 83.3267 93.4867 83.9467 92.7267 84.44C91.9801 84.92 91.0867 85.16 90.0467 85.16C89.0601 85.16 88.1667 84.9267 87.3667 84.46C86.5801 83.9933 85.9601 83.3333 85.5067 82.48C85.0667 81.6267 84.8467 80.64 84.8467 79.52ZM94.3867 79.54C94.3867 78.66 94.2067 77.8867 93.8467 77.22C93.4867 76.5533 92.9934 76.04 92.3667 75.68C91.7534 75.32 91.0734 75.14 90.3267 75.14C89.5534 75.14 88.8601 75.3133 88.2467 75.66C87.6334 76.0067 87.1467 76.5133 86.7867 77.18C86.4401 77.8333 86.2667 78.6133 86.2667 79.52C86.2667 80.4133 86.4401 81.2 86.7867 81.88C87.1467 82.5467 87.6334 83.06 88.2467 83.42C88.8601 83.7667 89.5534 83.94 90.3267 83.94C91.0734 83.94 91.7534 83.76 92.3667 83.4C92.9934 83.04 93.4867 82.5267 93.8467 81.86C94.2067 81.1933 94.3867 80.42 94.3867 79.54ZM98.3428 79.54C98.3428 78.4067 98.5695 77.42 99.0228 76.58C99.4761 75.7267 100.103 75.0733 100.903 74.62C101.703 74.1533 102.616 73.92 103.643 73.92C104.989 73.92 106.096 74.2533 106.963 74.92C107.843 75.5867 108.409 76.4933 108.663 77.64H107.163C106.976 76.8533 106.569 76.24 105.943 75.8C105.329 75.3467 104.563 75.12 103.643 75.12C102.909 75.12 102.249 75.2867 101.663 75.62C101.076 75.9533 100.609 76.4533 100.263 77.12C99.9295 77.7733 99.7628 78.58 99.7628 79.54C99.7628 80.5 99.9295 81.3133 100.263 81.98C100.609 82.6467 101.076 83.1467 101.663 83.48C102.249 83.8133 102.909 83.98 103.643 83.98C104.563 83.98 105.329 83.76 105.943 83.32C106.569 82.8667 106.976 82.24 107.163 81.44H108.663C108.409 82.56 107.843 83.46 106.963 84.14C106.083 84.82 104.976 85.16 103.643 85.16C102.616 85.16 101.703 84.9333 100.903 84.48C100.103 84.0133 99.4761 83.36 99.0228 82.52C98.5695 81.6667 98.3428 80.6733 98.3428 79.54ZM110.608 79.52C110.608 78.4 110.828 77.42 111.268 76.58C111.722 75.7267 112.342 75.0733 113.128 74.62C113.928 74.1533 114.828 73.92 115.828 73.92C116.868 73.92 117.762 74.16 118.508 74.64C119.268 75.12 119.815 75.7333 120.148 76.48V74.08H121.548V85H120.148V82.58C119.802 83.3267 119.248 83.9467 118.488 84.44C117.742 84.92 116.848 85.16 115.808 85.16C114.822 85.16 113.928 84.9267 113.128 84.46C112.342 83.9933 111.722 83.3333 111.268 82.48C110.828 81.6267 110.608 80.64 110.608 79.52ZM120.148 79.54C120.148 78.66 119.968 77.8867 119.608 77.22C119.248 76.5533 118.755 76.04 118.128 75.68C117.515 75.32 116.835 75.14 116.088 75.14C115.315 75.14 114.622 75.3133 114.008 75.66C113.395 76.0067 112.908 76.5133 112.548 77.18C112.202 77.8333 112.028 78.6133 112.028 79.52C112.028 80.4133 112.202 81.2 112.548 81.88C112.908 82.5467 113.395 83.06 114.008 83.42C114.622 83.7667 115.315 83.94 116.088 83.94C116.835 83.94 117.515 83.76 118.128 83.4C118.755 83.04 119.248 82.5267 119.608 81.86C119.968 81.1933 120.148 80.42 120.148 79.54ZM126.145 76.02C126.451 75.34 126.918 74.8133 127.545 74.44C128.185 74.0667 128.965 73.88 129.885 73.88V75.34H129.505C128.491 75.34 127.678 75.6133 127.065 76.16C126.451 76.7067 126.145 77.62 126.145 78.9V85H124.745V74.08H126.145V76.02ZM141.239 85.16C139.986 85.16 138.959 84.8733 138.159 84.3C137.372 83.7133 136.932 82.92 136.839 81.92H138.279C138.346 82.5333 138.632 83.0333 139.139 83.42C139.659 83.7933 140.352 83.98 141.219 83.98C141.979 83.98 142.572 83.8 142.999 83.44C143.439 83.08 143.659 82.6333 143.659 82.1C143.659 81.7267 143.539 81.42 143.299 81.18C143.059 80.94 142.752 80.7533 142.379 80.62C142.019 80.4733 141.526 80.32 140.899 80.16C140.086 79.9467 139.426 79.7333 138.919 79.52C138.412 79.3067 137.979 78.9933 137.619 78.58C137.272 78.1533 137.099 77.5867 137.099 76.88C137.099 76.3467 137.259 75.8533 137.579 75.4C137.899 74.9467 138.352 74.5867 138.939 74.32C139.526 74.0533 140.192 73.92 140.939 73.92C142.112 73.92 143.059 74.22 143.779 74.82C144.499 75.4067 144.886 76.22 144.939 77.26H143.539C143.499 76.62 143.246 76.1067 142.779 75.72C142.326 75.32 141.699 75.12 140.899 75.12C140.192 75.12 139.619 75.2867 139.179 75.62C138.739 75.9533 138.519 76.3667 138.519 76.86C138.519 77.2867 138.646 77.64 138.899 77.92C139.166 78.1867 139.492 78.4 139.879 78.56C140.266 78.7067 140.786 78.8733 141.439 79.06C142.226 79.2733 142.852 79.48 143.319 79.68C143.786 79.88 144.186 80.1733 144.519 80.56C144.852 80.9467 145.026 81.46 145.039 82.1C145.039 82.6867 144.879 83.2133 144.559 83.68C144.239 84.1333 143.792 84.4933 143.219 84.76C142.646 85.0267 141.986 85.16 141.239 85.16ZM157.554 78.98C157.554 79.46 157.541 79.8267 157.514 80.08H148.454C148.494 80.9067 148.694 81.6133 149.054 82.2C149.414 82.7867 149.888 83.2333 150.474 83.54C151.061 83.8333 151.701 83.98 152.394 83.98C153.301 83.98 154.061 83.76 154.674 83.32C155.301 82.88 155.714 82.2867 155.914 81.54H157.394C157.128 82.6067 156.554 83.48 155.674 84.16C154.808 84.8267 153.714 85.16 152.394 85.16C151.368 85.16 150.448 84.9333 149.634 84.48C148.821 84.0133 148.181 83.36 147.714 82.52C147.261 81.6667 147.034 80.6733 147.034 79.54C147.034 78.4067 147.261 77.4133 147.714 76.56C148.168 75.7067 148.801 75.0533 149.614 74.6C150.428 74.1467 151.354 73.92 152.394 73.92C153.434 73.92 154.341 74.1467 155.114 74.6C155.901 75.0533 156.501 75.6667 156.914 76.44C157.341 77.2 157.554 78.0467 157.554 78.98ZM156.134 78.94C156.148 78.1267 155.981 77.4333 155.634 76.86C155.301 76.2867 154.841 75.8533 154.254 75.56C153.668 75.2667 153.028 75.12 152.334 75.12C151.294 75.12 150.408 75.4533 149.674 76.12C148.941 76.7867 148.534 77.7267 148.454 78.94H156.134ZM169.576 74.08V85H168.176V83.08C167.856 83.76 167.362 84.28 166.696 84.64C166.029 85 165.282 85.18 164.456 85.18C163.149 85.18 162.082 84.78 161.256 83.98C160.429 83.1667 160.016 81.9933 160.016 80.46V74.08H161.396V80.3C161.396 81.4867 161.689 82.3933 162.276 83.02C162.876 83.6467 163.689 83.96 164.716 83.96C165.769 83.96 166.609 83.6267 167.236 82.96C167.862 82.2933 168.176 81.3133 168.176 80.02V74.08H169.576ZM183.38 73.88C184.687 73.88 185.753 74.2867 186.58 75.1C187.407 75.9 187.82 77.0667 187.82 78.6V85H186.44V78.76C186.44 77.5733 186.14 76.6667 185.54 76.04C184.953 75.4133 184.147 75.1 183.12 75.1C182.067 75.1 181.227 75.4333 180.6 76.1C179.973 76.7667 179.66 77.7467 179.66 79.04V85H178.26V74.08H179.66V75.94C180.007 75.2733 180.507 74.7667 181.16 74.42C181.813 74.06 182.553 73.88 183.38 73.88ZM200.796 78.98C200.796 79.46 200.783 79.8267 200.756 80.08H191.696C191.736 80.9067 191.936 81.6133 192.296 82.2C192.656 82.7867 193.13 83.2333 193.716 83.54C194.303 83.8333 194.943 83.98 195.636 83.98C196.543 83.98 197.303 83.76 197.916 83.32C198.543 82.88 198.956 82.2867 199.156 81.54H200.636C200.37 82.6067 199.796 83.48 198.916 84.16C198.05 84.8267 196.956 85.16 195.636 85.16C194.61 85.16 193.69 84.9333 192.876 84.48C192.063 84.0133 191.423 83.36 190.956 82.52C190.503 81.6667 190.276 80.6733 190.276 79.54C190.276 78.4067 190.503 77.4133 190.956 76.56C191.41 75.7067 192.043 75.0533 192.856 74.6C193.67 74.1467 194.596 73.92 195.636 73.92C196.676 73.92 197.583 74.1467 198.356 74.6C199.143 75.0533 199.743 75.6667 200.156 76.44C200.583 77.2 200.796 78.0467 200.796 78.98ZM199.376 78.94C199.39 78.1267 199.223 77.4333 198.876 76.86C198.543 76.2867 198.083 75.8533 197.496 75.56C196.91 75.2667 196.27 75.12 195.576 75.12C194.536 75.12 193.65 75.4533 192.916 76.12C192.183 76.7867 191.776 77.7267 191.696 78.94H199.376ZM207.938 73.92C208.964 73.92 209.858 74.16 210.618 74.64C211.378 75.12 211.924 75.7267 212.258 76.46V74.08H213.658V85.28C213.658 86.28 213.438 87.1667 212.998 87.94C212.571 88.7133 211.971 89.3067 211.198 89.72C210.424 90.1467 209.544 90.36 208.558 90.36C207.158 90.36 205.991 90.0267 205.058 89.36C204.138 88.6933 203.564 87.7867 203.338 86.64H204.718C204.958 87.4 205.411 88.0067 206.078 88.46C206.758 88.9133 207.584 89.14 208.558 89.14C209.264 89.14 209.898 88.9867 210.458 88.68C211.018 88.3867 211.458 87.9467 211.778 87.36C212.098 86.7733 212.258 86.08 212.258 85.28V82.58C211.911 83.3267 211.358 83.9467 210.598 84.44C209.851 84.92 208.964 85.16 207.938 85.16C206.938 85.16 206.038 84.9267 205.238 84.46C204.451 83.9933 203.831 83.3333 203.378 82.48C202.938 81.6267 202.718 80.64 202.718 79.52C202.718 78.4 202.938 77.42 203.378 76.58C203.831 75.7267 204.451 75.0733 205.238 74.62C206.038 74.1533 206.938 73.92 207.938 73.92ZM212.258 79.54C212.258 78.66 212.078 77.8867 211.718 77.22C211.358 76.5533 210.864 76.04 210.238 75.68C209.624 75.32 208.944 75.14 208.198 75.14C207.424 75.14 206.731 75.3133 206.118 75.66C205.504 76.0067 205.018 76.5133 204.658 77.18C204.311 77.8333 204.138 78.6133 204.138 79.52C204.138 80.4133 204.311 81.2 204.658 81.88C205.018 82.5467 205.504 83.06 206.118 83.42C206.731 83.7667 207.424 83.94 208.198 83.94C208.944 83.94 209.624 83.76 210.238 83.4C210.864 83.04 211.358 82.5267 211.718 81.86C212.078 81.1933 212.258 80.42 212.258 79.54ZM221.634 85.16C220.607 85.16 219.681 84.9333 218.854 84.48C218.041 84.0133 217.394 83.36 216.914 82.52C216.447 81.6667 216.214 80.6733 216.214 79.54C216.214 78.4067 216.454 77.42 216.934 76.58C217.414 75.7267 218.067 75.0733 218.894 74.62C219.721 74.1533 220.647 73.92 221.674 73.92C222.701 73.92 223.627 74.1533 224.454 74.62C225.294 75.0733 225.947 75.7267 226.414 76.58C226.894 77.42 227.134 78.4067 227.134 79.54C227.134 80.66 226.894 81.6467 226.414 82.5C225.934 83.3533 225.274 84.0133 224.434 84.48C223.594 84.9333 222.661 85.16 221.634 85.16ZM221.634 83.94C222.354 83.94 223.021 83.78 223.634 83.46C224.247 83.1267 224.741 82.6333 225.114 81.98C225.501 81.3133 225.694 80.5 225.694 79.54C225.694 78.58 225.507 77.7733 225.134 77.12C224.761 76.4533 224.267 75.96 223.654 75.64C223.041 75.3067 222.374 75.14 221.654 75.14C220.934 75.14 220.267 75.3067 219.654 75.64C219.041 75.96 218.547 76.4533 218.174 77.12C217.814 77.7733 217.634 78.58 217.634 79.54C217.634 80.5 217.814 81.3133 218.174 81.98C218.547 82.6333 219.034 83.1267 219.634 83.46C220.247 83.78 220.914 83.94 221.634 83.94ZM223.554 70.76L219.454 73.14V72.06L223.554 69.5V70.76ZM229.046 79.54C229.046 78.4067 229.273 77.42 229.726 76.58C230.179 75.7267 230.806 75.0733 231.606 74.62C232.406 74.1533 233.319 73.92 234.346 73.92C235.693 73.92 236.799 74.2533 237.666 74.92C238.546 75.5867 239.113 76.4933 239.366 77.64H237.866C237.679 76.8533 237.273 76.24 236.646 75.8C236.033 75.3467 235.266 75.12 234.346 75.12C233.613 75.12 232.953 75.2867 232.366 75.62C231.779 75.9533 231.313 76.4533 230.966 77.12C230.633 77.7733 230.466 78.58 230.466 79.54C230.466 80.5 230.633 81.3133 230.966 81.98C231.313 82.6467 231.779 83.1467 232.366 83.48C232.953 83.8133 233.613 83.98 234.346 83.98C235.266 83.98 236.033 83.76 236.646 83.32C237.273 82.8667 237.679 82.24 237.866 81.44H239.366C239.113 82.56 238.546 83.46 237.666 84.14C236.786 84.82 235.679 85.16 234.346 85.16C233.319 85.16 232.406 84.9333 231.606 84.48C230.806 84.0133 230.179 83.36 229.726 82.52C229.273 81.6667 229.046 80.6733 229.046 79.54ZM242.652 72.02C242.372 72.02 242.132 71.92 241.932 71.72C241.732 71.52 241.632 71.2733 241.632 70.98C241.632 70.6867 241.732 70.4467 241.932 70.26C242.132 70.06 242.372 69.96 242.652 69.96C242.932 69.96 243.172 70.06 243.372 70.26C243.572 70.4467 243.672 70.6867 243.672 70.98C243.672 71.2733 243.572 71.52 243.372 71.72C243.172 71.92 242.932 72.02 242.652 72.02ZM243.352 74.08V85H241.952V74.08H243.352ZM251.302 85.16C250.275 85.16 249.349 84.9333 248.522 84.48C247.709 84.0133 247.062 83.36 246.582 82.52C246.115 81.6667 245.882 80.6733 245.882 79.54C245.882 78.4067 246.122 77.42 246.602 76.58C247.082 75.7267 247.735 75.0733 248.562 74.62C249.389 74.1533 250.315 73.92 251.342 73.92C252.369 73.92 253.295 74.1533 254.122 74.62C254.962 75.0733 255.615 75.7267 256.082 76.58C256.562 77.42 256.802 78.4067 256.802 79.54C256.802 80.66 256.562 81.6467 256.082 82.5C255.602 83.3533 254.942 84.0133 254.102 84.48C253.262 84.9333 252.329 85.16 251.302 85.16ZM251.302 83.94C252.022 83.94 252.689 83.78 253.302 83.46C253.915 83.1267 254.409 82.6333 254.782 81.98C255.169 81.3133 255.362 80.5 255.362 79.54C255.362 78.58 255.175 77.7733 254.802 77.12C254.429 76.4533 253.935 75.96 253.322 75.64C252.709 75.3067 252.042 75.14 251.322 75.14C250.602 75.14 249.935 75.3067 249.322 75.64C248.709 75.96 248.215 76.4533 247.842 77.12C247.482 77.7733 247.302 78.58 247.302 79.54C247.302 80.5 247.482 81.3133 247.842 81.98C248.215 82.6333 248.702 83.1267 249.302 83.46C249.915 83.78 250.582 83.94 251.302 83.94Z" fill="#AFAFAF"/>
</g>
<path d="M166.612 52.0009H131.044V42.1369L146.524 28.8889C147.916 27.6889 149.092 26.6089 150.052 25.6489C151.012 24.6409 151.78 23.6809 152.356 22.7689C152.98 21.8089 153.412 20.8729 153.652 19.9609C153.94 19.0489 154.084 18.0649 154.084 17.0089V16.0009C154.084 15.0409 153.892 14.2009 153.508 13.4809C153.124 12.7609 152.62 12.1609 151.996 11.6809C151.372 11.2009 150.652 10.8409 149.836 10.6009C149.068 10.3609 148.276 10.2409 147.46 10.2409C146.26 10.2409 145.204 10.4329 144.292 10.8169C143.428 11.2009 142.66 11.7289 141.988 12.4009C141.364 13.0249 140.836 13.7689 140.404 14.6329C139.972 15.4489 139.636 16.3369 139.396 17.2969L129.964 13.6969C130.54 11.9689 131.332 10.3369 132.34 8.80086C133.348 7.21686 134.596 5.84886 136.084 4.69686C137.62 3.49686 139.42 2.56086 141.484 1.88886C143.548 1.21686 145.876 0.880859 148.468 0.880859C151.204 0.880859 153.628 1.26486 155.74 2.03286C157.852 2.80086 159.628 3.85686 161.068 5.20086C162.556 6.54486 163.684 8.15286 164.452 10.0249C165.22 11.8489 165.604 13.8409 165.604 16.0009C165.604 18.1609 165.244 20.1289 164.524 21.9049C163.804 23.6809 162.82 25.3609 161.572 26.9449C160.372 28.4809 158.956 29.9449 157.324 31.3369C155.692 32.7289 153.988 34.1449 152.212 35.5849L142.852 42.9289H166.612V52.0009Z" fill="#EEFB6E"/>
</svg>
