<svg width="17" height="13" viewBox="0 0 17 13" fill="none" xmlns="http://www.w3.org/2000/svg">
<path fill-rule="evenodd" clip-rule="evenodd" d="M-2.41633e-07 6.49942C-2.48753e-07 6.33654 0.0636197 6.18033 0.176864 6.06516C0.290108 5.94999 0.443701 5.88529 0.603852 5.88529L14.8463 5.88529L11.0457 2.02119C10.9323 1.90588 10.8686 1.74947 10.8686 1.58639C10.8686 1.42331 10.9323 1.26691 11.0457 1.15159C11.1591 1.03627 11.3128 0.971488 11.4732 0.971487C11.6336 0.971487 11.7873 1.03627 11.9007 1.15159L16.7316 6.06461C16.7878 6.12166 16.8324 6.18943 16.8628 6.26404C16.8933 6.33865 16.909 6.41864 16.909 6.49942C16.909 6.58019 16.8933 6.66018 16.8628 6.73479C16.8324 6.8094 16.7878 6.87717 16.7316 6.93422L11.9007 11.8472C11.7873 11.9626 11.6336 12.0273 11.4732 12.0273C11.3128 12.0273 11.1591 11.9626 11.0457 11.8472C10.9323 11.7319 10.8686 11.5755 10.8686 11.4124C10.8686 11.2494 10.9323 11.093 11.0457 10.9776L14.8463 7.11354L0.603853 7.11354C0.443701 7.11354 0.290108 7.04884 0.176864 6.93367C0.0636198 6.8185 -2.34514e-07 6.66229 -2.41633e-07 6.49942Z" fill="url(#paint0_linear_223_1010)"/>
<defs>
<linearGradient id="paint0_linear_223_1010" x1="-2.41633e-07" y1="6.49942" x2="16.909" y2="6.49942" gradientUnits="userSpaceOnUse">
<stop stop-color="#EEFB6E" stop-opacity="0"/>
<stop offset="1" stop-color="#EEFB6E"/>
</linearGradient>
</defs>
</svg>
