<svg width="26" height="20" viewBox="0 0 26 20" fill="none" xmlns="http://www.w3.org/2000/svg">
<path fill-rule="evenodd" clip-rule="evenodd" d="M0 1.17647C0 0.526724 0.526724 0 1.17647 0H5.88235C7.56692 0 9.04666 0.473409 10.1208 1.4304C11.2088 2.39966 11.7647 3.76348 11.7647 5.29412C11.7647 6.79918 11.2272 8.14295 10.1749 9.10892C10.5143 9.30036 10.8309 9.52403 11.1209 9.78068C12.3223 10.8437 12.9412 12.3597 12.9412 14.1176C12.9412 15.8756 12.3223 17.3916 11.1209 18.4546C9.93731 19.5019 8.3134 20 6.48882 20H1.17647C0.526724 20 0 19.4733 0 18.8235V1.17647ZM2.35294 10.5882V17.6471H6.48882C7.90307 17.6471 8.9171 17.2628 9.56173 16.6924C10.1886 16.1378 10.5882 15.3009 10.5882 14.1176C10.5882 12.9344 10.1886 12.0975 9.56173 11.5429C8.9171 10.9725 7.90307 10.5882 6.48882 10.5882H2.35294ZM2.35294 2.35294V8.23529H5.88235C7.13897 8.23529 8.01217 7.88517 8.55564 7.40099C9.08535 6.92907 9.41177 6.23407 9.41177 5.29412C9.41177 4.35417 9.08535 3.65917 8.55564 3.18725C8.01217 2.70306 7.13897 2.35294 5.88235 2.35294H2.35294Z" fill="#AFAFAF"/>
<path fill-rule="evenodd" clip-rule="evenodd" d="M15.2941 4.11788C15.2941 3.46813 15.8209 2.94141 16.4706 2.94141H23.5294C24.1792 2.94141 24.7059 3.46813 24.7059 4.11788C24.7059 4.76762 24.1792 5.29435 23.5294 5.29435H16.4706C15.8209 5.29435 15.2941 4.76762 15.2941 4.11788ZM15.646 9.01971C16.6816 7.79587 18.1884 7.05905 20 7.05905C22.1454 7.05905 23.6781 7.97844 24.6338 9.31642C25.5508 10.6001 25.8824 12.1852 25.8824 13.5296C25.8824 14.1794 25.3557 14.7061 24.7059 14.7061H16.5907C16.746 15.4323 17.0442 16.0493 17.4422 16.5197C18.0243 17.2076 18.8705 17.6473 20 17.6473C21.2193 17.6473 22.0242 17.2859 22.5092 16.9625C22.7566 16.7976 22.9287 16.637 23.0326 16.527C23.0844 16.4721 23.1187 16.4304 23.1363 16.408C23.1426 16.4 23.1467 16.3945 23.1487 16.3919C23.5124 15.8632 24.2345 15.723 24.7703 16.0802C25.3109 16.4406 25.457 17.171 25.0966 17.7116L24.1177 17.0591C25.0966 17.7116 25.0962 17.7122 25.0958 17.7128L25.095 17.7139L25.0934 17.7164L25.0897 17.7218L25.0809 17.7346C25.0744 17.744 25.0666 17.755 25.0575 17.7677C25.0392 17.793 25.0156 17.8246 24.9865 17.8617C24.9282 17.9358 24.8476 18.032 24.7432 18.1426C24.5346 18.3634 24.2288 18.644 23.8144 18.9203C22.9759 19.4793 21.722 20.0002 20 20.0002C18.1884 20.0002 16.6816 19.2634 15.646 18.0396C14.6271 16.8353 14.1177 15.2275 14.1177 13.5296C14.1177 11.8318 14.6271 10.224 15.646 9.01971ZM16.5907 12.3532H23.4115C23.286 11.7413 23.0583 11.1588 22.7192 10.684C22.2043 9.96319 21.384 9.41199 20 9.41199C18.8705 9.41199 18.0243 9.85164 17.4422 10.5396C17.0442 11.01 16.746 11.627 16.5907 12.3532Z" fill="#AFAFAF"/>
</svg>
