<svg width="80" height="80" viewBox="0 0 80 80" fill="none" xmlns="http://www.w3.org/2000/svg">
<circle cx="40" cy="40" r="40" fill="#EEFB6E"/>
<path d="M40.0101 18.1562C36.2139 18.1603 32.4841 19.1518 29.1874 21.0333C25.8907 22.9148 23.1407 25.6215 21.2077 28.8872C19.2746 32.1529 18.2251 35.8652 18.1624 39.6592C18.0997 43.4532 19.0258 47.1982 20.8499 50.526L18.1562 61.8442L29.4796 59.1518C32.4001 60.7532 35.6483 61.6661 38.9758 61.8206C42.3033 61.9752 45.6222 61.3674 48.6787 60.0437C51.7352 58.7199 54.4486 56.7153 56.6114 54.1829C58.7742 51.6506 60.3292 48.6575 61.1576 45.4325C61.986 42.2075 62.0659 38.8359 61.3911 35.5753C60.7163 32.3147 59.3048 29.2515 57.2643 26.6197C55.2238 23.9878 52.6084 21.8571 49.618 20.3902C46.6276 18.9234 43.3412 18.1593 40.0101 18.1562ZM29.0832 28.0826H35.0396C35.3092 28.0826 35.5677 28.1896 35.7584 28.3801C35.949 28.5707 36.0561 28.8291 36.0561 29.0986C36.0227 30.4535 36.2505 31.8022 36.7269 33.0711C36.9321 33.4959 36.9772 33.9803 36.854 34.4357C36.7308 34.891 36.4475 35.2867 36.0561 35.5501L33.9723 37.5821C34.8963 39.3856 36.1043 41.0288 37.5503 42.4488C38.9594 43.9176 40.5967 45.1493 42.3988 46.0962L44.4317 44.0134C45.4482 42.9974 45.9157 42.9974 46.9119 43.3429C48.1814 43.8191 49.5307 44.0467 50.8862 44.0134C51.1518 44.0258 51.4032 44.1368 51.5912 44.3247C51.7792 44.5126 51.8903 44.7639 51.9027 45.0294V50.9832C51.8903 51.2486 51.7792 51.4999 51.5912 51.6879C51.4032 51.8758 51.1518 51.9868 50.8862 51.9992C44.907 51.7388 39.2393 49.2612 34.9888 45.0497C30.7688 40.8057 28.289 35.1378 28.0362 29.1595C28.0386 28.8799 28.1488 28.6119 28.3438 28.4113C28.5388 28.2107 28.8036 28.093 29.0832 28.0826Z" stroke="#27272B" stroke-width="2" stroke-linecap="round" stroke-linejoin="round"/>
</svg>
