<svg width="27" height="34" viewBox="0 0 27 34" fill="none" xmlns="http://www.w3.org/2000/svg">
<path d="M13.2274 22.272C11.9474 22.272 11.0354 22.112 10.4914 21.792C9.97943 21.44 9.65943 21.008 9.53143 20.496C9.43543 19.952 9.38743 19.376 9.38743 18.768V18.432C9.38743 17.44 9.61143 16.656 10.0594 16.08C10.5394 15.472 11.1314 14.992 11.8354 14.64C12.5394 14.288 13.2914 14 14.0914 13.776C14.8914 13.52 15.6434 13.264 16.3474 13.008C17.0834 12.752 17.6754 12.432 18.1234 12.048C18.5714 11.664 18.7954 11.136 18.7954 10.464C18.7954 9.504 18.3474 8.784 17.4514 8.304C16.5554 7.824 15.0514 7.584 12.9394 7.584C11.6274 7.584 10.6034 7.68 9.86743 7.872C9.16343 8.064 8.65143 8.288 8.33143 8.544C8.04343 8.8 7.83543 9.024 7.70743 9.216C7.29143 10.048 6.87543 10.704 6.45943 11.184C6.07543 11.664 5.59543 11.952 5.01943 12.048C4.47543 12.112 3.73943 11.968 2.81143 11.616C1.88343 11.232 1.21143 10.864 0.795429 10.512C0.379429 10.16 0.123429 9.776 0.0274286 9.36C-0.0365714 8.912 0.0114285 8.384 0.171429 7.776C0.171429 7.2 0.363429 6.576 0.747429 5.904C1.16343 5.2 1.73943 4.512 2.47543 3.84C3.24343 3.136 4.13943 2.496 5.16343 1.92C6.21943 1.344 7.38743 0.879998 8.66743 0.527999C9.97943 0.176 11.4034 0 12.9394 0C15.6594 0 18.0114 0.48 19.9954 1.44C21.9794 2.4 23.5154 3.664 24.6034 5.232C25.6914 6.768 26.2354 8.464 26.2354 10.32C26.2354 11.664 25.9474 12.832 25.3714 13.824C24.8274 14.816 24.1234 15.664 23.2594 16.368C22.3954 17.04 21.4994 17.584 20.5714 18C19.6754 18.416 18.8754 18.72 18.1714 18.912C17.4674 19.104 16.9874 19.2 16.7314 19.2L17.1154 18.672V19.248C17.1154 19.76 17.0514 20.256 16.9234 20.736C16.7954 21.184 16.4594 21.552 15.9154 21.84C15.3714 22.128 14.4754 22.272 13.2274 22.272Z" fill="#D5E839"/>
<path d="M13.0834 33.984C11.2914 33.984 10.1074 33.6639 9.53139 33.0239C8.98739 32.3519 8.71539 31.2 8.71539 29.568C8.71539 28.864 8.77939 28.1759 8.90739 27.5039C9.03539 26.8319 9.40339 26.2879 10.0114 25.8719C10.6194 25.4239 11.6594 25.2 13.1314 25.2C14.9234 25.2 16.0914 25.552 16.6354 26.256C17.2114 26.928 17.4994 28.0639 17.4994 29.6639C17.4994 30.3679 17.4354 31.056 17.3074 31.728C17.1794 32.4 16.8114 32.944 16.2034 33.36C15.5954 33.776 14.5554 33.984 13.0834 33.984Z" fill="#AFAFAF"/>
</svg>
