<svg width="60" height="60" viewBox="0 0 60 60" fill="none" xmlns="http://www.w3.org/2000/svg">
<path fill-rule="evenodd" clip-rule="evenodd" d="M19.2 13.2C19.2 12.5373 19.7203 12 20.3621 12H46.8379C47.4797 12 48 12.5373 48 13.2C48 13.8627 47.4797 14.4 46.8379 14.4H20.3621C19.7203 14.4 19.2 13.8627 19.2 13.2ZM12 30C12 29.3373 12.5373 28.8 13.2 28.8L46.8 28.8C47.4627 28.8 48 29.3373 48 30C48 30.6627 47.4627 31.2 46.8 31.2L13.2 31.2C12.5373 31.2 12 30.6627 12 30ZM34.8267 45.6C34.1492 45.6 33.6 46.1373 33.6 46.8C33.6 47.4627 34.1492 48 34.8267 48L46.7733 48C47.4508 48 48 47.4627 48 46.8C48 46.1373 47.4508 45.6 46.7733 45.6H34.8267Z" fill="#AFAFAF"/>
</svg>
