<svg width="283" height="1099" viewBox="0 0 283 1099" fill="none" xmlns="http://www.w3.org/2000/svg">
<path d="M189.971 15.7677L178.203 27.5353L166.436 15.7677L178.203 4L189.971 15.7677Z" fill="#EEFB6E"/>
<path d="M100.535 165.768L88.7677 177.535L77.0001 165.768L88.7677 154L100.535 165.768Z" fill="#EEFB6E"/>
<path d="M189.971 318.768L178.203 330.535L166.436 318.768L178.203 307L189.971 318.768Z" fill="#EEFB6E"/>
<path d="M100.535 471.768L88.7677 483.535L77.0001 471.768L88.7677 460L100.535 471.768Z" fill="#EEFB6E"/>
<path d="M189.971 624.768L178.203 636.535L166.436 624.768L178.203 613L189.971 624.768Z" fill="#EEFB6E"/>
<path d="M100.535 776.768L88.7677 788.535L77.0001 776.768L88.7677 765L100.535 776.768Z" fill="#EEFB6E"/>
<path d="M189.971 930.768L178.203 942.535L166.436 930.768L178.203 919L189.971 930.768Z" fill="#EEFB6E"/>
<path d="M100.535 1083.77L88.7677 1095.54L77.0001 1083.77L88.7677 1072L100.535 1083.77Z" fill="#EEFB6E"/>
<path fill-rule="evenodd" clip-rule="evenodd" d="M92.2278 146.463C92.3216 146.05 92.4183 145.639 92.5179 145.229L91.2751 144.927C91.174 145.343 91.0759 145.761 90.9807 146.179L92.2278 146.463ZM92.5197 186.719C92.42 186.309 92.3232 185.898 92.2294 185.485L90.9823 185.769C91.0776 186.187 91.1758 186.605 91.2769 187.021L92.5197 186.719ZM95.0502 136.72C95.1915 136.321 95.3356 135.923 95.4826 135.526L94.2834 135.082C94.1343 135.484 93.988 135.888 93.8446 136.293L95.0502 136.72ZM95.4865 196.425C95.3395 196.029 95.1952 195.631 95.0538 195.231L93.8483 195.659C93.9918 196.064 94.1382 196.467 94.2874 196.87L95.4865 196.425ZM98.9883 127.37C99.175 126.991 99.3643 126.613 99.5563 126.236L98.4169 125.655C98.2221 126.037 98.03 126.421 97.8406 126.806L98.9883 127.37ZM99.5631 205.718C99.371 205.342 99.1815 204.963 98.9947 204.584L97.8471 205.148C98.0366 205.533 98.2289 205.917 98.4238 206.299L99.5631 205.718ZM103.985 118.541C104.214 118.186 104.446 117.832 104.681 117.48L103.616 116.771C103.378 117.128 103.143 117.487 102.91 117.848L103.985 118.541ZM104.691 214.476C104.456 214.124 104.224 213.771 103.995 213.415L102.92 214.109C103.153 214.469 103.389 214.828 103.627 215.185L104.691 214.476ZM109.968 110.348C110.237 110.021 110.508 109.697 110.781 109.374L109.806 108.547C109.528 108.875 109.253 109.204 108.981 109.535L109.968 110.348ZM110.796 222.584C110.522 222.261 110.251 221.937 109.982 221.61L108.995 222.423C109.268 222.754 109.543 223.084 109.82 223.411L110.796 222.584ZM116.855 102.897C117.159 102.604 117.466 102.312 117.774 102.023L116.9 101.09C116.587 101.383 116.276 101.679 115.967 101.977L116.855 102.897ZM117.793 229.936C117.485 229.646 117.178 229.355 116.873 229.061L115.986 229.982C116.295 230.28 116.606 230.576 116.919 230.869L117.793 229.936ZM124.552 96.2873C124.888 96.0308 125.226 95.7766 125.566 95.5249L124.805 94.4971C124.46 94.7526 124.117 95.0104 123.776 95.2707L124.552 96.2873ZM125.59 236.434C125.25 236.182 124.911 235.928 124.575 235.671L123.799 236.688C124.141 236.948 124.484 237.206 124.829 237.462L125.59 236.434ZM132.958 90.6081C133.14 90.5 133.323 90.3926 133.505 90.2857L132.86 89.1816C132.674 89.29 132.49 89.399 132.305 89.5087L132.958 90.6081ZM133.534 241.672C133.351 241.565 133.169 241.458 132.987 241.35L132.334 242.449C132.518 242.559 132.703 242.668 132.889 242.776L133.534 241.672Z" fill="#27272B"/>
<path fill-rule="evenodd" clip-rule="evenodd" d="M133.899 241.928C133.712 241.819 133.525 241.711 133.337 241.604L132.701 242.713C132.887 242.82 133.072 242.926 133.256 243.034L133.899 241.928ZM133.563 395.866C133.75 395.758 133.936 395.65 134.123 395.54L133.476 394.437C133.292 394.545 133.108 394.652 132.924 394.758L133.563 395.866ZM142.553 247.667C142.207 247.407 141.859 247.15 141.509 246.895L140.756 247.929C141.101 248.18 141.444 248.434 141.785 248.69L142.553 247.667ZM141.697 390.567C142.046 390.312 142.392 390.054 142.736 389.794L141.966 388.773C141.627 389.03 141.285 389.283 140.942 389.535L141.697 390.567ZM150.481 254.372C150.167 254.074 149.851 253.778 149.533 253.484L148.666 254.424C148.979 254.713 149.29 255.005 149.6 255.299L150.481 254.372ZM149.683 383.976C150 383.683 150.314 383.387 150.626 383.089L149.743 382.164C149.435 382.458 149.125 382.749 148.813 383.039L149.683 383.976ZM157.578 261.951C157.301 261.619 157.021 261.288 156.74 260.959L155.769 261.792C156.047 262.116 156.322 262.442 156.595 262.77L157.578 261.951ZM156.854 376.507C157.134 376.178 157.412 375.848 157.688 375.516L156.703 374.699C156.432 375.027 156.158 375.352 155.881 375.676L156.854 376.507ZM163.747 270.303C163.511 269.94 163.272 269.579 163.03 269.22L161.969 269.935C162.207 270.288 162.443 270.644 162.676 271.001L163.747 270.303ZM163.112 368.257C163.352 367.899 163.59 367.539 163.825 367.177L162.753 366.48C162.521 366.837 162.287 367.192 162.05 367.545L163.112 368.257ZM168.902 279.316C168.71 278.928 168.514 278.542 168.316 278.158L167.179 278.743C167.375 279.122 167.567 279.503 167.757 279.885L168.902 279.316ZM168.37 359.337C168.567 358.953 168.761 358.568 168.953 358.181L167.807 357.614C167.618 357.995 167.427 358.375 167.232 358.753L168.37 359.337ZM172.967 288.872C172.821 288.464 172.672 288.057 172.521 287.652L171.323 288.1C171.472 288.499 171.619 288.9 171.763 289.302L172.967 288.872ZM172.552 349.865C172.703 349.46 172.851 349.055 172.996 348.647L171.791 348.218C171.648 348.619 171.502 349.019 171.353 349.418L172.552 349.865ZM175.881 298.838C175.784 298.416 175.684 297.995 175.581 297.575L174.339 297.88C174.441 298.293 174.539 298.708 174.634 299.124L175.881 298.838ZM175.596 339.966C175.698 339.547 175.797 339.128 175.893 338.707L174.647 338.422C174.552 338.836 174.454 339.25 174.353 339.663L175.596 339.966Z" fill="#27272B"/>
<path fill-rule="evenodd" clip-rule="evenodd" d="M133.565 90.591C133.752 90.4831 133.938 90.3746 134.125 90.2654L133.478 89.162C133.295 89.2697 133.11 89.3766 132.926 89.4829L133.565 90.591ZM141.699 85.2916C142.048 85.0366 142.394 84.7791 142.738 84.5192L141.968 83.4983C141.629 83.7545 141.287 84.0083 140.944 84.2597L141.699 85.2916ZM149.685 78.7012C150.002 78.4076 150.316 78.1117 150.628 77.8136L149.745 76.8887C149.437 77.1826 149.127 77.4742 148.815 77.7636L149.685 78.7012ZM156.856 71.2316C157.136 70.9034 157.414 70.5731 157.69 70.2408L156.706 69.4242C156.434 69.7518 156.16 70.0773 155.883 70.4008L156.856 71.2316ZM163.114 62.9824C163.354 62.624 163.592 62.2638 163.827 61.9018L162.755 61.2048C162.523 61.5616 162.289 61.9167 162.052 62.2699L163.114 62.9824ZM168.372 54.0621C168.569 53.6783 168.764 53.2929 168.955 52.9059L167.809 52.3385C167.62 52.7199 167.429 53.0998 167.234 53.4781L168.372 54.0621ZM172.554 44.5895C172.705 44.1852 172.853 43.7795 172.998 43.3724L171.793 42.943C171.65 43.3442 171.504 43.744 171.356 44.1425L172.554 44.5895ZM175.598 34.691C175.7 34.2724 175.799 33.8527 175.896 33.4317L174.649 33.1465C174.554 33.5613 174.456 33.975 174.355 34.3875L175.598 34.691Z" fill="#27272B"/>
<path fill-rule="evenodd" clip-rule="evenodd" d="M92.1514 452.062C92.2458 451.648 92.3431 451.236 92.4434 450.824L91.2008 450.521C91.0991 450.939 91.0003 451.358 90.9045 451.777L92.1514 452.062ZM92.4689 492.544C92.3677 492.131 92.2693 491.716 92.174 491.3L90.9274 491.586C91.0242 492.008 91.124 492.429 91.2267 492.848L92.4689 492.544ZM94.992 442.29C95.1342 441.889 95.2793 441.491 95.4271 441.093L94.2285 440.647C94.0784 441.051 93.9312 441.455 93.7869 441.861L94.992 442.29ZM95.483 502.32C95.3337 501.921 95.1871 501.52 95.0434 501.118L93.8391 501.549C93.9849 501.957 94.1336 502.363 94.2852 502.768L95.483 502.32ZM98.9551 432.915C99.1429 432.535 99.3334 432.155 99.5266 431.778L98.3881 431.195C98.1921 431.578 97.9988 431.963 97.8082 432.349L98.9551 432.915ZM99.6235 511.674C99.4284 511.295 99.236 510.915 99.0463 510.533L97.9007 511.101C98.0932 511.489 98.2884 511.875 98.4864 512.26L99.6235 511.674ZM103.983 424.066C104.214 423.71 104.447 423.355 104.683 423.002L103.619 422.292C103.38 422.649 103.144 423.009 102.909 423.37L103.983 424.066ZM104.83 520.481C104.592 520.127 104.356 519.771 104.123 519.414L103.052 520.112C103.288 520.475 103.527 520.836 103.769 521.195L104.83 520.481ZM110.002 415.858C110.273 415.531 110.545 415.206 110.82 414.883L109.846 414.054C109.567 414.382 109.291 414.712 109.016 415.043L110.002 415.858ZM111.026 528.621C110.748 528.298 110.473 527.972 110.2 527.644L109.217 528.462C109.494 528.795 109.773 529.125 110.055 529.454L111.026 528.621ZM116.929 408.4C117.235 408.106 117.544 407.815 117.854 407.525L116.982 406.59C116.667 406.883 116.354 407.179 116.044 407.477L116.929 408.4ZM118.124 535.989C117.811 535.699 117.5 535.408 117.191 535.114L116.309 536.04C116.623 536.339 116.939 536.635 117.256 536.928L118.124 535.989ZM124.669 401.79C125.007 401.534 125.347 401.28 125.689 401.028L124.931 399.998C124.584 400.253 124.239 400.511 123.897 400.771L124.669 401.79ZM126.029 542.484C125.684 542.233 125.341 541.979 125 541.723L124.232 542.746C124.578 543.005 124.926 543.263 125.276 543.518L126.029 542.484ZM133.121 396.119C133.304 396.011 133.488 395.904 133.671 395.798L133.03 394.691C132.843 394.8 132.657 394.908 132.472 395.018L133.121 396.119ZM134.078 547.7C133.893 547.594 133.708 547.488 133.524 547.38L132.88 548.485C133.067 548.594 133.255 548.703 133.443 548.81L134.078 547.7Z" fill="#27272B"/>
<path fill-rule="evenodd" clip-rule="evenodd" d="M174.741 604.938C174.648 604.525 174.551 604.113 174.451 603.703L175.694 603.401C175.795 603.817 175.893 604.235 175.989 604.654L174.741 604.938ZM174.413 645.373C174.514 644.959 174.613 644.545 174.708 644.129L175.955 644.415C175.858 644.837 175.758 645.258 175.655 645.677L174.413 645.373ZM171.915 595.188C171.773 594.788 171.629 594.39 171.482 593.993L172.681 593.549C172.83 593.951 172.977 594.355 173.12 594.76L171.915 595.188ZM171.399 655.149C171.549 654.75 171.695 654.349 171.839 653.947L173.043 654.377C172.897 654.785 172.749 655.192 172.597 655.597L171.399 655.149ZM167.97 585.832C167.784 585.452 167.594 585.074 167.402 584.697L168.541 584.116C168.736 584.498 168.928 584.882 169.118 585.267L167.97 585.832ZM167.259 664.503C167.454 664.124 167.646 663.743 167.836 663.361L168.981 663.93C168.789 664.318 168.594 664.704 168.396 665.088L167.259 664.503ZM162.966 576.998C162.737 576.642 162.504 576.288 162.27 575.936L163.334 575.227C163.572 575.584 163.808 575.943 164.041 576.304L162.966 576.998ZM162.052 673.309C162.29 672.956 162.526 672.6 162.759 672.243L163.83 672.941C163.594 673.304 163.355 673.664 163.113 674.023L162.052 673.309ZM156.974 568.801C156.705 568.474 156.434 568.15 156.16 567.827L157.135 567C157.413 567.327 157.688 567.657 157.961 567.988L156.974 568.801ZM155.856 681.45C156.134 681.126 156.409 680.801 156.682 680.473L157.665 681.291C157.388 681.624 157.109 681.954 156.827 682.283L155.856 681.45ZM150.078 561.349C149.773 561.055 149.466 560.764 149.157 560.474L150.031 559.54C150.344 559.834 150.656 560.13 150.965 560.427L150.078 561.349ZM148.758 688.818C149.071 688.528 149.382 688.237 149.691 687.943L150.573 688.869C150.259 689.167 149.944 689.463 149.626 689.757L148.758 688.818ZM142.37 554.739C142.034 554.482 141.695 554.228 141.355 553.976L142.115 552.948C142.461 553.204 142.804 553.461 143.146 553.722L142.37 554.739ZM140.853 695.313C141.198 695.062 141.541 694.808 141.882 694.552L142.65 695.574C142.304 695.834 141.956 696.092 141.607 696.346L140.853 695.313ZM133.953 549.062C133.771 548.954 133.588 548.846 133.405 548.739L134.05 547.635C134.235 547.743 134.42 547.852 134.605 547.962L133.953 549.062ZM132.804 700.529C132.989 700.423 133.174 700.316 133.358 700.209L134.002 701.314C133.815 701.423 133.628 701.531 133.44 701.639L132.804 700.529Z" fill="#27272B"/>
<path fill-rule="evenodd" clip-rule="evenodd" d="M174.741 910.778C174.648 910.365 174.551 909.953 174.451 909.543L175.694 909.241C175.795 909.657 175.893 910.075 175.989 910.494L174.741 910.778ZM174.413 951.213C174.514 950.799 174.613 950.385 174.708 949.969L175.955 950.255C175.858 950.677 175.758 951.097 175.655 951.517L174.413 951.213ZM171.915 901.027C171.773 900.628 171.629 900.23 171.482 899.833L172.681 899.388C172.83 899.791 172.977 900.195 173.12 900.6L171.915 901.027ZM171.399 960.989C171.549 960.59 171.695 960.189 171.839 959.787L173.043 960.217C172.897 960.625 172.749 961.032 172.597 961.437L171.399 960.989ZM167.97 891.672C167.784 891.292 167.594 890.914 167.402 890.537L168.541 889.956C168.736 890.338 168.928 890.722 169.118 891.107L167.97 891.672ZM167.259 970.343C167.454 969.964 167.646 969.583 167.836 969.201L168.981 969.77C168.789 970.158 168.594 970.544 168.396 970.928L167.259 970.343ZM162.966 882.838C162.737 882.482 162.504 882.128 162.27 881.776L163.334 881.067C163.572 881.424 163.808 881.783 164.041 882.144L162.966 882.838ZM162.052 979.149C162.29 978.795 162.526 978.44 162.759 978.083L163.83 978.781C163.594 979.144 163.355 979.504 163.113 979.863L162.052 979.149ZM156.974 874.641C156.705 874.314 156.434 873.989 156.16 873.667L157.135 872.839C157.413 873.167 157.688 873.496 157.961 873.828L156.974 874.641ZM155.856 987.29C156.134 986.966 156.409 986.64 156.682 986.313L157.665 987.131C157.388 987.463 157.109 987.794 156.827 988.122L155.856 987.29ZM150.078 867.189C149.773 866.895 149.466 866.603 149.157 866.314L150.031 865.38C150.344 865.674 150.656 865.969 150.965 866.267L150.078 867.189ZM148.758 994.658C149.071 994.368 149.382 994.076 149.691 993.782L150.573 994.709C150.259 995.007 149.944 995.303 149.626 995.597L148.758 994.658ZM142.37 860.579C142.034 860.322 141.695 860.068 141.355 859.816L142.115 858.788C142.461 859.043 142.804 859.301 143.146 859.561L142.37 860.579ZM140.853 1001.15C141.198 1000.9 141.541 1000.65 141.882 1000.39L142.65 1001.41C142.304 1001.67 141.956 1001.93 141.607 1002.19L140.853 1001.15ZM133.953 854.901C133.771 854.793 133.588 854.686 133.405 854.579L134.05 853.475C134.235 853.583 134.42 853.692 134.605 853.801L133.953 854.901ZM132.804 1006.37C132.989 1006.26 133.174 1006.16 133.358 1006.05L134.002 1007.15C133.815 1007.26 133.628 1007.37 133.44 1007.48L132.804 1006.37Z" fill="#27272B"/>
<path fill-rule="evenodd" clip-rule="evenodd" d="M133.59 854.499C133.402 854.391 133.214 854.283 133.027 854.174L133.67 853.069C133.855 853.176 134.039 853.283 134.225 853.389L133.59 854.499ZM132.37 700.794C132.554 700.684 132.74 700.575 132.925 700.467L133.57 701.571C133.387 701.678 133.204 701.786 133.022 701.894L132.37 700.794ZM125.414 849.208C125.064 848.953 124.716 848.696 124.37 848.436L125.137 847.413C125.478 847.669 125.822 847.923 126.167 848.174L125.414 849.208ZM123.83 706.554C124.171 706.293 124.515 706.036 124.86 705.78L125.62 706.809C125.28 707.06 124.941 707.314 124.605 707.571L123.83 706.554ZM117.386 842.619C117.068 842.325 116.752 842.029 116.438 841.731L117.319 840.804C117.629 841.098 117.94 841.39 118.254 841.679L117.386 842.619ZM116.011 713.26C116.32 712.962 116.631 712.666 116.945 712.373L117.819 713.307C117.51 713.596 117.203 713.887 116.898 714.181L116.011 713.26ZM110.177 835.143C109.895 834.815 109.615 834.484 109.338 834.151L110.32 833.333C110.594 833.661 110.869 833.987 111.147 834.311L110.177 835.143ZM109.015 720.82C109.288 720.489 109.563 720.159 109.841 719.832L110.816 720.659C110.543 720.982 110.271 721.307 110.002 721.633L109.015 720.82ZM103.883 826.882C103.641 826.522 103.402 826.162 103.165 825.799L104.236 825.1C104.47 825.458 104.706 825.813 104.944 826.167L103.883 826.882ZM102.936 729.136C103.169 728.775 103.405 728.416 103.643 728.059L104.707 728.768C104.472 729.12 104.24 729.474 104.01 729.83L102.936 729.136ZM98.5942 817.943C98.396 817.558 98.2006 817.172 98.0079 816.784L99.1532 816.215C99.3432 816.597 99.5358 816.978 99.7311 817.357L98.5942 817.943ZM97.859 738.099C98.0487 737.714 98.2411 737.33 98.4361 736.947L99.5753 737.529C99.3831 737.905 99.1935 738.284 99.0065 738.664L97.859 738.099ZM94.3878 808.447C94.236 808.041 94.0872 807.634 93.9412 807.226L95.1454 806.795C95.2893 807.198 95.436 807.599 95.5855 807.998L94.3878 808.447ZM93.8571 747.592C94.0008 747.186 94.1473 746.782 94.2966 746.38L95.4956 746.825C95.3485 747.221 95.2041 747.619 95.0626 748.019L93.8571 747.592ZM91.3255 798.521C91.2226 798.101 91.1227 797.68 91.0258 797.258L92.2723 796.972C92.3678 797.388 92.4663 797.803 92.5677 798.216L91.3255 798.521ZM90.989 757.485C91.0843 757.066 91.1826 756.649 91.2838 756.232L92.5265 756.534C92.4268 756.944 92.33 757.356 92.236 757.769L90.989 757.485Z" fill="#27272B"/>
<path fill-rule="evenodd" clip-rule="evenodd" d="M133.59 1005.91C133.402 1006.02 133.214 1006.13 133.027 1006.23L133.67 1007.34C133.855 1007.23 134.039 1007.13 134.225 1007.02L133.59 1005.91ZM125.414 1011.2C125.064 1011.46 124.716 1011.71 124.37 1011.97L125.137 1013C125.478 1012.74 125.822 1012.49 126.167 1012.24L125.414 1011.2ZM117.386 1017.79C117.068 1018.08 116.752 1018.38 116.438 1018.68L117.319 1019.61C117.629 1019.31 117.94 1019.02 118.254 1018.73L117.386 1017.79ZM110.177 1025.27C109.895 1025.59 109.615 1025.92 109.338 1026.26L110.32 1027.08C110.594 1026.75 110.869 1026.42 111.147 1026.1L110.177 1025.27ZM103.883 1033.53C103.641 1033.89 103.402 1034.25 103.165 1034.61L104.236 1035.31C104.47 1034.95 104.706 1034.6 104.944 1034.24L103.883 1033.53ZM98.5942 1042.47C98.3961 1042.85 98.2006 1043.24 98.0079 1043.63L99.1532 1044.19C99.3432 1043.81 99.5358 1043.43 99.7311 1043.05L98.5942 1042.47ZM94.3878 1051.96C94.236 1052.37 94.0872 1052.77 93.9412 1053.18L95.1454 1053.61C95.2893 1053.21 95.436 1052.81 95.5855 1052.41L94.3878 1051.96ZM91.3255 1061.89C91.2226 1062.31 91.1227 1062.73 91.0258 1063.15L92.2723 1063.44C92.3678 1063.02 92.4663 1062.61 92.5677 1062.19L91.3255 1061.89Z" fill="#27272B"/>
<path d="M42.8443 13.144C44.0203 12.328 44.7403 10.984 44.7403 9.544C44.7403 7.072 42.5803 5.224 39.6763 5.224H32.7403V22.024H39.8683C42.7963 22.024 45.1723 19.864 45.1723 17.176C45.1723 15.376 44.3083 13.936 42.8443 13.144ZM41.2123 10.096C41.2123 11.152 40.4683 11.896 39.3403 11.896H36.2923V8.32H39.3403C40.4683 8.32 41.2123 9.04 41.2123 10.096ZM39.5323 18.688H36.2923V14.92H39.5323C40.7323 14.92 41.5243 15.712 41.5243 16.792C41.5243 17.896 40.7323 18.688 39.5323 18.688ZM54.4993 8.968C52.8193 8.968 51.6673 9.496 50.7313 10.648L50.1073 9.04H47.8753V22H51.3793V15.28C51.3793 13.168 52.1473 12.28 54.1153 12.28H55.6513V8.968H54.4993ZM57.6488 7.312H61.1288V4.072H57.6488V7.312ZM57.6488 22H61.1528V9.04H57.6488V22ZM77.0919 15.496C77.0919 11.752 74.3559 8.68 70.3719 8.68C66.5319 8.68 63.6519 11.632 63.6519 15.52C63.6519 19.408 66.5559 22.384 70.3719 22.384C73.3959 22.384 75.8679 20.584 76.8039 17.752H73.1319C72.6039 18.688 71.5959 19.264 70.3719 19.264C68.6679 19.264 67.5159 18.28 67.2039 16.504H77.0199C77.0679 16.168 77.0919 15.832 77.0919 15.496ZM70.3719 11.68C71.9559 11.68 73.0839 12.544 73.5879 14.128H67.2999C67.7079 12.592 68.8119 11.68 70.3719 11.68ZM87.2953 9.232H83.9593V8.128C83.9593 7.216 84.4393 6.736 85.3753 6.736H87.2713V3.976H84.6793C81.9433 3.976 80.5513 5.56 80.5513 8.056V9.232H78.2953V12.112H80.5273V22H84.0313V12.112H87.2953V9.232ZM89.3363 7.312H92.8163V4.072H89.3363V7.312ZM89.3363 22H92.8403V9.04H89.3363V22ZM103.571 8.752C101.819 8.752 100.259 9.496 99.2754 10.648L98.6034 9.04H96.2034V22H99.7074V15.208C99.7074 13.12 100.811 11.824 102.611 11.824C104.123 11.824 104.867 12.76 104.867 14.728V22H108.371V14.152C108.371 10.864 106.523 8.752 103.571 8.752ZM122.042 9.04L121.466 10.336C120.338 9.304 118.85 8.68 117.17 8.68C113.546 8.68 110.714 11.56 110.714 15.184C110.714 18.832 113.546 21.688 117.17 21.688C118.562 21.688 119.834 21.256 120.866 20.536V21.016C120.866 22.912 119.402 24.064 117.626 24.064C116.33 24.064 114.962 23.464 114.554 22.288H111.074C111.674 25.24 114.17 27.04 117.674 27.04C121.778 27.04 124.298 24.568 124.298 20.512V9.064L122.042 9.04ZM117.578 18.544C115.658 18.544 114.266 17.128 114.266 15.208C114.266 13.264 115.658 11.848 117.578 11.848C119.498 11.848 120.89 13.264 120.89 15.208C120.89 17.128 119.498 18.544 117.578 18.544Z" fill="#27272B"/>
<path d="M24.3135 308.2H17.8575V325H21.4815V319.768H24.3135C27.6975 319.768 30.2415 317.296 30.2415 313.984C30.2415 310.672 27.6735 308.2 24.3135 308.2ZM24.1455 316.408H21.4815V311.584H24.1455C25.5855 311.584 26.5695 312.592 26.5695 313.984C26.5695 315.376 25.5855 316.408 24.1455 316.408ZM44.9826 318.496C44.9826 314.752 42.2466 311.68 38.2626 311.68C34.4226 311.68 31.5426 314.632 31.5426 318.52C31.5426 322.408 34.4466 325.384 38.2626 325.384C41.2866 325.384 43.7586 323.584 44.6946 320.752H41.0226C40.4946 321.688 39.4866 322.264 38.2626 322.264C36.5586 322.264 35.4066 321.28 35.0946 319.504H44.9106C44.9586 319.168 44.9826 318.832 44.9826 318.496ZM38.2626 314.68C39.8466 314.68 40.9746 315.544 41.4786 317.128H35.1906C35.5986 315.592 36.7026 314.68 38.2626 314.68ZM52.0609 325.384C55.3489 325.384 57.5089 323.656 57.5089 321.016C57.5089 317.848 54.7969 317.416 52.6849 317.032C51.3409 316.792 50.2369 316.576 50.2369 315.712C50.2369 314.968 50.8849 314.488 51.9649 314.488C53.1889 314.488 53.9089 314.992 53.9329 316.024H57.2689C57.2449 313.432 55.1809 311.68 52.0609 311.68C48.9409 311.68 46.8529 313.384 46.8529 315.832C46.8529 318.88 49.4929 319.432 51.5569 319.792C52.9249 320.008 54.0529 320.272 54.0529 321.16C54.0529 322.024 53.1649 322.48 52.2049 322.48C50.9569 322.48 50.0689 321.904 50.0449 320.752H46.6369C46.6369 323.512 48.8209 325.384 52.0609 325.384ZM70.7663 312.04L70.1663 313.24C69.0623 312.256 67.6223 311.68 66.0143 311.68C62.1023 311.68 59.2223 314.608 59.2223 318.544C59.2223 322.48 62.1023 325.408 66.0143 325.408C67.3583 325.408 68.5823 325 69.5903 324.304V329.68H73.0943V312.064L70.7663 312.04ZM66.3023 322.096C64.2623 322.096 62.7743 320.56 62.7743 318.544C62.7743 316.504 64.2623 314.992 66.3023 314.992C68.3423 314.992 69.8303 316.504 69.8303 318.544C69.8303 320.56 68.3423 322.096 66.3023 322.096ZM82.3496 325.384C86.0216 325.384 88.4456 323.032 88.4456 319.528V312.04H84.9416V319.144C84.9416 320.968 83.9816 322.072 82.3496 322.072C80.7416 322.072 79.7576 320.992 79.7576 319.144V312.04H76.2536V319.528C76.2536 323.032 78.7016 325.384 82.3496 325.384ZM91.6331 310.312H95.1131V307.072H91.6331V310.312ZM91.6331 325H95.1371V312.04H91.6331V325ZM103.084 325.384C106.372 325.384 108.532 323.656 108.532 321.016C108.532 317.848 105.82 317.416 103.708 317.032C102.364 316.792 101.26 316.576 101.26 315.712C101.26 314.968 101.908 314.488 102.988 314.488C104.212 314.488 104.932 314.992 104.956 316.024H108.292C108.268 313.432 106.204 311.68 103.084 311.68C99.9643 311.68 97.8763 313.384 97.8763 315.832C97.8763 318.88 100.516 319.432 102.58 319.792C103.948 320.008 105.076 320.272 105.076 321.16C105.076 322.024 104.188 322.48 103.228 322.48C101.98 322.48 101.092 321.904 101.068 320.752H97.6603C97.6603 323.512 99.8443 325.384 103.084 325.384ZM121.67 312.04L121.31 313.264C120.182 312.28 118.718 311.68 117.038 311.68C113.15 311.68 110.246 314.608 110.246 318.52C110.246 322.432 113.15 325.384 117.038 325.384C118.694 325.384 120.134 324.808 121.238 323.824L121.55 325H124.286V312.04H121.67ZM117.326 322.072C115.286 322.072 113.798 320.536 113.798 318.52C113.798 316.48 115.286 314.968 117.326 314.968C119.366 314.968 120.854 316.48 120.854 318.52C120.854 320.56 119.366 322.072 117.326 322.072Z" fill="#27272B"/>
<path d="M25.3575 631H28.9815V614.2H25.3575V631ZM41.9106 613.384V618.76C40.9026 618.064 39.7026 617.68 38.3586 617.68C34.4226 617.68 31.5426 620.608 31.5426 624.544C31.5426 628.456 34.4226 631.408 38.3586 631.408C39.9426 631.408 41.3346 630.856 42.4146 629.944L42.8226 631.024H45.4146V613.384H41.9106ZM38.6466 628.096C36.6066 628.096 35.1186 626.56 35.1186 624.544C35.1186 622.504 36.6066 620.992 38.6466 620.992C40.6866 620.992 42.1746 622.504 42.1746 624.544C42.1746 626.56 40.6866 628.096 38.6466 628.096ZM61.3654 624.496C61.3654 620.752 58.6294 617.68 54.6454 617.68C50.8054 617.68 47.9254 620.632 47.9254 624.52C47.9254 628.408 50.8294 631.384 54.6454 631.384C57.6694 631.384 60.1414 629.584 61.0774 626.752H57.4054C56.8774 627.688 55.8694 628.264 54.6454 628.264C52.9414 628.264 51.7894 627.28 51.4774 625.504H61.2934C61.3414 625.168 61.3654 624.832 61.3654 624.496ZM54.6454 620.68C56.2294 620.68 57.3574 621.544 57.8614 623.128H51.5734C51.9814 621.592 53.0854 620.68 54.6454 620.68ZM74.4197 618.04L74.0597 619.264C72.9317 618.28 71.4677 617.68 69.7877 617.68C65.8997 617.68 62.9957 620.608 62.9957 624.52C62.9957 628.432 65.8997 631.384 69.7877 631.384C71.4437 631.384 72.8837 630.808 73.9877 629.824L74.2997 631H77.0357V618.04H74.4197ZM70.0757 628.072C68.0357 628.072 66.5477 626.536 66.5477 624.52C66.5477 622.48 68.0357 620.968 70.0757 620.968C72.1157 620.968 73.6037 622.48 73.6037 624.52C73.6037 626.56 72.1157 628.072 70.0757 628.072ZM93.102 625.912H89.574C88.998 627.304 87.87 628.096 86.454 628.096C84.582 628.096 83.118 626.512 83.118 624.52C83.118 622.504 84.558 620.968 86.454 620.968C87.846 620.968 89.022 621.736 89.574 623.008H93.054C92.43 619.816 89.838 617.68 86.478 617.68C82.542 617.68 79.566 620.608 79.566 624.496C79.566 627.928 81.894 630.664 85.11 631.264L84.654 632.92L84.822 633.136H85.806C86.334 633.136 86.694 633.448 86.694 633.928C86.694 634.384 86.334 634.72 85.806 634.72H84.366V636.496H85.95C87.702 636.496 89.046 635.512 89.046 634.024C89.046 632.776 88.158 631.96 86.862 631.768L86.982 631.36C90.126 631.144 92.526 629.008 93.102 625.912ZM99.414 616.336C99.414 615.76 99.798 615.352 100.254 615.352C100.59 615.352 100.926 615.568 101.334 615.832C101.91 616.168 102.606 616.624 103.59 616.624C105.27 616.624 106.326 615.376 106.326 613.36V613.096H104.382V613.312C104.382 613.912 104.046 614.32 103.542 614.32C103.086 614.32 102.726 614.08 102.342 613.792C101.814 613.384 101.214 613 100.23 613C98.502 613 97.47 614.272 97.47 616.264V616.504H99.414V616.336ZM105.99 618.04L105.63 619.264C104.502 618.28 103.038 617.68 101.358 617.68C97.47 617.68 94.566 620.608 94.566 624.52C94.566 628.432 97.47 631.384 101.358 631.384C103.014 631.384 104.454 630.808 105.558 629.824L105.87 631H108.606V618.04H105.99ZM101.646 628.072C99.606 628.072 98.118 626.536 98.118 624.52C98.118 622.48 99.606 620.968 101.646 620.968C103.686 620.968 105.174 622.48 105.174 624.52C105.174 626.536 103.686 628.072 101.646 628.072ZM118.144 631.384C122.152 631.384 125.152 628.432 125.152 624.52C125.152 620.608 122.152 617.68 118.144 617.68C114.136 617.68 111.136 620.608 111.136 624.52C111.136 628.432 114.136 631.384 118.144 631.384ZM118.144 628.072C116.128 628.072 114.688 626.632 114.688 624.52C114.688 622.432 116.128 620.968 118.144 620.968C120.16 620.968 121.6 622.432 121.6 624.52C121.6 626.632 120.16 628.072 118.144 628.072Z" fill="#27272B"/>
<path d="M151.695 172H155.751L152.031 165.664C153.903 164.752 155.103 162.976 155.103 160.768C155.103 157.528 152.583 155.2 149.223 155.2H142.455V172H146.079V166.288H148.407L151.695 172ZM146.079 158.56H148.983C150.519 158.56 151.407 159.496 151.407 160.744C151.407 162.016 150.519 162.928 148.983 162.928H146.079V158.56ZM170.354 165.496C170.354 161.752 167.618 158.68 163.634 158.68C159.794 158.68 156.914 161.632 156.914 165.52C156.914 169.408 159.818 172.384 163.634 172.384C166.658 172.384 169.13 170.584 170.066 167.752H166.394C165.866 168.688 164.858 169.264 163.634 169.264C161.93 169.264 160.778 168.28 160.466 166.504H170.282C170.33 166.168 170.354 165.832 170.354 165.496ZM163.634 161.68C165.218 161.68 166.346 162.544 166.85 164.128H160.562C160.97 162.592 162.074 161.68 163.634 161.68ZM178.752 172.384C182.424 172.384 184.848 170.032 184.848 166.528V159.04H181.344V166.144C181.344 167.968 180.384 169.072 178.752 169.072C177.144 169.072 176.16 167.992 176.16 166.144V159.04H172.656V166.528C172.656 170.032 175.104 172.384 178.752 172.384ZM195.404 158.752C193.652 158.752 192.092 159.496 191.108 160.648L190.436 159.04H188.036V172H191.54V165.208C191.54 163.12 192.644 161.824 194.444 161.824C195.956 161.824 196.7 162.76 196.7 164.728V172H200.204V164.152C200.204 160.864 198.356 158.752 195.404 158.752ZM203.411 157.312H206.891V154.072H203.411V157.312ZM203.411 172H206.915V159.04H203.411V172ZM214.262 157.336C214.262 156.76 214.646 156.352 215.102 156.352C215.438 156.352 215.774 156.568 216.182 156.832C216.758 157.168 217.454 157.624 218.438 157.624C220.118 157.624 221.174 156.376 221.174 154.36V154.096H219.23V154.312C219.23 154.912 218.894 155.32 218.39 155.32C217.934 155.32 217.574 155.08 217.19 154.792C216.662 154.384 216.062 154 215.078 154C213.35 154 212.318 155.272 212.318 157.264V157.504H214.262V157.336ZM220.838 159.04L220.478 160.264C219.35 159.28 217.886 158.68 216.206 158.68C212.318 158.68 209.414 161.608 209.414 165.52C209.414 169.432 212.318 172.384 216.206 172.384C217.862 172.384 219.302 171.808 220.406 170.824L220.718 172H223.454V159.04H220.838ZM216.494 169.072C214.454 169.072 212.966 167.536 212.966 165.52C212.966 163.48 214.454 161.968 216.494 161.968C218.534 161.968 220.022 163.48 220.022 165.52C220.022 167.536 218.534 169.072 216.494 169.072ZM232.992 172.384C237 172.384 240 169.432 240 165.52C240 161.608 237 158.68 232.992 158.68C228.984 158.68 225.984 161.608 225.984 165.52C225.984 169.432 228.984 172.384 232.992 172.384ZM232.992 169.072C230.976 169.072 229.536 167.632 229.536 165.52C229.536 163.432 230.976 161.968 232.992 161.968C235.008 161.968 236.448 163.432 236.448 165.52C236.448 167.632 235.008 169.072 232.992 169.072Z" fill="#27272B"/>
<path d="M153.591 463H157.551L150.759 446.2H147.327L140.727 463H144.591L145.743 459.832H152.415L153.591 463ZM149.079 450.64L151.287 456.664H146.871L149.079 450.64ZM166.81 449.752C165.058 449.752 163.498 450.496 162.514 451.648L161.842 450.04H159.442V463H162.946V456.208C162.946 454.12 164.05 452.824 165.85 452.824C167.362 452.824 168.106 453.76 168.106 455.728V463H171.61V455.152C171.61 451.864 169.762 449.752 166.81 449.752ZM184.729 444.976H181.009L179.713 448.624H182.353L184.729 444.976ZM185.377 450.04L185.017 451.264C183.889 450.28 182.425 449.68 180.745 449.68C176.857 449.68 173.953 452.608 173.953 456.52C173.953 460.432 176.857 463.384 180.745 463.384C182.401 463.384 183.841 462.808 184.945 461.824L185.257 463H187.993V450.04H185.377ZM181.033 460.072C178.993 460.072 177.505 458.536 177.505 456.52C177.505 454.48 178.993 452.968 181.033 452.968C183.073 452.968 184.561 454.48 184.561 456.52C184.561 458.56 183.073 460.072 181.033 460.072ZM191.387 463H194.891V445.384H191.387V463ZM198.254 448.312H201.734V445.072H198.254V448.312ZM198.254 463H201.758V450.04H198.254V463ZM209.706 463.384C212.994 463.384 215.154 461.656 215.154 459.016C215.154 455.848 212.442 455.416 210.33 455.032C208.986 454.792 207.882 454.576 207.882 453.712C207.882 452.968 208.53 452.488 209.61 452.488C210.834 452.488 211.554 452.992 211.578 454.024H214.914C214.89 451.432 212.826 449.68 209.706 449.68C206.586 449.68 204.498 451.384 204.498 453.832C204.498 456.88 207.138 457.432 209.202 457.792C210.57 458.008 211.698 458.272 211.698 459.16C211.698 460.024 210.81 460.48 209.85 460.48C208.602 460.48 207.714 459.904 207.69 458.752H204.282C204.282 461.512 206.466 463.384 209.706 463.384ZM230.307 456.496C230.307 452.752 227.571 449.68 223.587 449.68C219.747 449.68 216.867 452.632 216.867 456.52C216.867 460.408 219.771 463.384 223.587 463.384C226.611 463.384 229.083 461.584 230.019 458.752H226.347C225.819 459.688 224.811 460.264 223.587 460.264C221.883 460.264 220.731 459.28 220.419 457.504H230.235C230.283 457.168 230.307 456.832 230.307 456.496ZM223.587 452.68C225.171 452.68 226.299 453.544 226.803 455.128H220.515C220.923 453.592 222.027 452.68 223.587 452.68ZM146.079 490.64V487.184H151.911V483.896H146.079V480.56H152.535V477.2H142.455V494H152.799V490.64H146.079ZM160.112 494.384C163.4 494.384 165.56 492.656 165.56 490.016C165.56 486.848 162.848 486.416 160.736 486.032C159.392 485.792 158.288 485.576 158.288 484.712C158.288 483.968 158.936 483.488 160.016 483.488C161.24 483.488 161.96 483.992 161.984 485.024H165.32C165.296 482.432 163.232 480.68 160.112 480.68C156.992 480.68 154.904 482.384 154.904 484.832C154.904 487.88 157.544 488.432 159.608 488.792C160.976 489.008 162.104 489.272 162.104 490.16C162.104 491.024 161.216 491.48 160.256 491.48C159.008 491.48 158.12 490.904 158.096 489.752H154.688C154.688 492.512 156.872 494.384 160.112 494.384ZM174.356 490.88C173.06 490.88 172.34 490.16 172.34 488.912V483.872H175.868V481.04H172.292V477.68H171.62L166.508 483.104V483.872H168.836V489.392C168.836 492.248 170.588 494 173.444 494H175.94V490.88H174.356ZM184.957 480.968C183.277 480.968 182.125 481.496 181.189 482.648L180.565 481.04H178.333V494H181.837V487.28C181.837 485.168 182.605 484.28 184.573 484.28H186.109V480.968H184.957ZM198.385 481.04L198.025 482.264C196.897 481.28 195.433 480.68 193.753 480.68C189.865 480.68 186.961 483.608 186.961 487.52C186.961 491.432 189.865 494.384 193.753 494.384C195.409 494.384 196.849 493.808 197.953 492.824L198.265 494H201.001V481.04H198.385ZM194.041 491.072C192.001 491.072 190.513 489.536 190.513 487.52C190.513 485.48 192.001 483.968 194.041 483.968C196.081 483.968 197.569 485.48 197.569 487.52C197.569 489.56 196.081 491.072 194.041 491.072ZM210.731 490.88C209.435 490.88 208.715 490.16 208.715 488.912V483.872H212.243V481.04H208.667V477.68H207.995L202.883 483.104V483.872H205.211V489.392C205.211 492.248 206.963 494 209.819 494H212.315V490.88H210.731ZM223.878 475.976H220.158L218.838 479.624H221.502L223.878 475.976ZM227.166 487.496C227.166 483.752 224.43 480.68 220.446 480.68C216.606 480.68 213.726 483.632 213.726 487.52C213.726 491.408 216.63 494.384 220.446 494.384C223.47 494.384 225.942 492.584 226.878 489.752H223.206C222.678 490.688 221.67 491.264 220.446 491.264C218.742 491.264 217.59 490.28 217.278 488.504H227.094C227.142 488.168 227.166 487.832 227.166 487.496ZM220.446 483.68C222.03 483.68 223.158 484.544 223.662 486.128H217.374C217.782 484.592 218.886 483.68 220.446 483.68ZM240.125 481.04L239.549 482.336C238.421 481.304 236.933 480.68 235.253 480.68C231.629 480.68 228.797 483.56 228.797 487.184C228.797 490.832 231.629 493.688 235.253 493.688C236.645 493.688 237.917 493.256 238.949 492.536V493.016C238.949 494.912 237.485 496.064 235.709 496.064C234.413 496.064 233.045 495.464 232.637 494.288H229.157C229.757 497.24 232.253 499.04 235.757 499.04C239.861 499.04 242.381 496.568 242.381 492.512V481.064L240.125 481.04ZM235.661 490.544C233.741 490.544 232.349 489.128 232.349 487.208C232.349 485.264 233.741 483.848 235.661 483.848C237.581 483.848 238.973 485.264 238.973 487.208C238.973 489.128 237.581 490.544 235.661 490.544ZM245.762 479.312H249.242V476.072H245.762V479.312ZM245.762 494H249.266V481.04H245.762V494ZM258.653 494.384C262.037 494.384 264.701 492.176 265.301 488.912H261.773C261.173 490.304 260.069 491.072 258.653 491.072C256.781 491.072 255.317 489.512 255.317 487.52C255.317 485.504 256.757 483.968 258.653 483.968C260.045 483.968 261.221 484.736 261.773 486.008H265.253C264.629 482.816 262.037 480.68 258.677 480.68C254.741 480.68 251.765 483.608 251.765 487.496C251.765 491.384 254.741 494.384 258.653 494.384ZM278.189 481.04L277.829 482.264C276.701 481.28 275.237 480.68 273.557 480.68C269.669 480.68 266.765 483.608 266.765 487.52C266.765 491.432 269.669 494.384 273.557 494.384C275.213 494.384 276.653 493.808 277.757 492.824L278.069 494H280.805V481.04H278.189ZM273.845 491.072C271.805 491.072 270.317 489.536 270.317 487.52C270.317 485.48 271.805 483.968 273.845 483.968C275.885 483.968 277.373 485.48 277.373 487.52C277.373 489.56 275.885 491.072 273.845 491.072Z" fill="#27272B"/>
<path d="M150.159 783.384C154.311 783.384 157.575 780.6 158.343 776.448H154.671C154.071 778.56 152.367 779.904 150.159 779.904C147.303 779.904 145.167 777.648 145.167 774.624C145.167 771.6 147.303 769.32 150.159 769.32C152.271 769.32 153.951 770.568 154.647 772.536H158.271C157.503 768.552 154.239 765.84 150.159 765.84C145.215 765.84 141.471 769.632 141.471 774.624C141.471 779.592 145.215 783.384 150.159 783.384ZM167.355 769.968C165.675 769.968 164.523 770.496 163.587 771.648L162.963 770.04H160.731V783H164.235V776.28C164.235 774.168 165.003 773.28 166.971 773.28H168.507V769.968H167.355ZM170.504 768.312H173.984V765.072H170.504V768.312ZM170.504 783H174.008V770.04H170.504V783ZM187.932 770.04L187.572 771.264C186.444 770.28 184.98 769.68 183.3 769.68C179.412 769.68 176.508 772.608 176.508 776.52C176.508 780.432 179.412 783.384 183.3 783.384C184.956 783.384 186.396 782.808 187.5 781.824L187.812 783H190.548V770.04H187.932ZM183.588 780.072C181.548 780.072 180.06 778.536 180.06 776.52C180.06 774.48 181.548 772.968 183.588 772.968C185.628 772.968 187.116 774.48 187.116 776.52C187.116 778.56 185.628 780.072 183.588 780.072ZM206.614 777.912H203.086C202.51 779.304 201.382 780.096 199.966 780.096C198.094 780.096 196.63 778.512 196.63 776.52C196.63 774.504 198.07 772.968 199.966 772.968C201.358 772.968 202.534 773.736 203.086 775.008H206.566C205.942 771.816 203.35 769.68 199.99 769.68C196.054 769.68 193.078 772.608 193.078 776.496C193.078 779.928 195.406 782.664 198.622 783.264L198.166 784.92L198.334 785.136H199.318C199.846 785.136 200.206 785.448 200.206 785.928C200.206 786.384 199.846 786.72 199.318 786.72H197.878V788.496H199.462C201.214 788.496 202.558 787.512 202.558 786.024C202.558 784.776 201.67 783.96 200.374 783.768L200.494 783.36C203.638 783.144 206.038 781.008 206.614 777.912ZM212.926 768.336C212.926 767.76 213.31 767.352 213.766 767.352C214.102 767.352 214.438 767.568 214.846 767.832C215.422 768.168 216.118 768.624 217.102 768.624C218.782 768.624 219.838 767.376 219.838 765.36V765.096H217.894V765.312C217.894 765.912 217.558 766.32 217.054 766.32C216.598 766.32 216.238 766.08 215.854 765.792C215.326 765.384 214.726 765 213.742 765C212.014 765 210.982 766.272 210.982 768.264V768.504H212.926V768.336ZM219.502 770.04L219.142 771.264C218.014 770.28 216.55 769.68 214.87 769.68C210.982 769.68 208.078 772.608 208.078 776.52C208.078 780.432 210.982 783.384 214.87 783.384C216.526 783.384 217.966 782.808 219.07 781.824L219.382 783H222.118V770.04H219.502ZM215.158 780.072C213.118 780.072 211.63 778.536 211.63 776.52C211.63 774.48 213.118 772.968 215.158 772.968C217.198 772.968 218.686 774.48 218.686 776.52C218.686 778.536 217.198 780.072 215.158 780.072ZM231.656 783.384C235.664 783.384 238.664 780.432 238.664 776.52C238.664 772.608 235.664 769.68 231.656 769.68C227.648 769.68 224.648 772.608 224.648 776.52C224.648 780.432 227.648 783.384 231.656 783.384ZM231.656 780.072C229.64 780.072 228.2 778.632 228.2 776.52C228.2 774.432 229.64 772.968 231.656 772.968C233.672 772.968 235.112 774.432 235.112 776.52C235.112 778.632 233.672 780.072 231.656 780.072Z" fill="#27272B"/>
<path d="M146.079 1086.64V1083.18H151.911V1079.9H146.079V1076.56H152.535V1073.2H142.455V1090H152.799V1086.64H146.079ZM162.849 1076.75C161.097 1076.75 159.537 1077.5 158.553 1078.65L157.881 1077.04H155.481V1090H158.985V1083.21C158.985 1081.12 160.089 1079.82 161.889 1079.82C163.401 1079.82 164.145 1080.76 164.145 1082.73V1090H167.649V1082.15C167.649 1078.86 165.801 1076.75 162.849 1076.75ZM177.098 1086.88C175.802 1086.88 175.082 1086.16 175.082 1084.91V1079.87H178.61V1077.04H175.034V1073.68H174.362L169.25 1079.1V1079.87H171.578V1085.39C171.578 1088.25 173.33 1090 176.186 1090H178.682V1086.88H177.098ZM187.699 1076.97C186.019 1076.97 184.867 1077.5 183.931 1078.65L183.307 1077.04H181.075V1090H184.579V1083.28C184.579 1081.17 185.347 1080.28 187.315 1080.28H188.851V1076.97H187.699ZM203.143 1083.5C203.143 1079.75 200.407 1076.68 196.423 1076.68C192.583 1076.68 189.703 1079.63 189.703 1083.52C189.703 1087.41 192.607 1090.38 196.423 1090.38C199.447 1090.38 201.919 1088.58 202.855 1085.75H199.183C198.655 1086.69 197.647 1087.26 196.423 1087.26C194.719 1087.26 193.567 1086.28 193.255 1084.5H203.071C203.119 1084.17 203.143 1083.83 203.143 1083.5ZM196.423 1079.68C198.007 1079.68 199.135 1080.54 199.639 1082.13H193.351C193.759 1080.59 194.863 1079.68 196.423 1079.68ZM216.101 1077.04L215.525 1078.34C214.397 1077.3 212.909 1076.68 211.229 1076.68C207.605 1076.68 204.773 1079.56 204.773 1083.18C204.773 1086.83 207.605 1089.69 211.229 1089.69C212.621 1089.69 213.893 1089.26 214.925 1088.54V1089.02C214.925 1090.91 213.461 1092.06 211.685 1092.06C210.389 1092.06 209.021 1091.46 208.613 1090.29H205.133C205.733 1093.24 208.229 1095.04 211.733 1095.04C215.837 1095.04 218.357 1092.57 218.357 1088.51V1077.06L216.101 1077.04ZM211.637 1086.54C209.717 1086.54 208.325 1085.13 208.325 1083.21C208.325 1081.26 209.717 1079.85 211.637 1079.85C213.557 1079.85 214.949 1081.26 214.949 1083.21C214.949 1085.13 213.557 1086.54 211.637 1086.54ZM232.299 1077.04L231.939 1078.26C230.811 1077.28 229.347 1076.68 227.667 1076.68C223.779 1076.68 220.875 1079.61 220.875 1083.52C220.875 1087.43 223.779 1090.38 227.667 1090.38C229.323 1090.38 230.763 1089.81 231.867 1088.82L232.179 1090H234.915V1077.04H232.299ZM227.955 1087.07C225.915 1087.07 224.427 1085.54 224.427 1083.52C224.427 1081.48 225.915 1079.97 227.955 1079.97C229.995 1079.97 231.483 1081.48 231.483 1083.52C231.483 1085.56 229.995 1087.07 227.955 1087.07Z" fill="#27272B"/>
<path d="M12.6932 920.2L8.56519 932.08L4.31719 920.2H0.309188L6.86119 937H10.2932L16.6532 920.2H12.6932ZM27.7322 924.04L27.3722 925.264C26.2442 924.28 24.7802 923.68 23.1002 923.68C19.2122 923.68 16.3082 926.608 16.3082 930.52C16.3082 934.432 19.2122 937.384 23.1002 937.384C24.7562 937.384 26.1962 936.808 27.3002 935.824L27.6122 937H30.3482V924.04H27.7322ZM23.3882 934.072C21.3482 934.072 19.8602 932.536 19.8602 930.52C19.8602 928.48 21.3482 926.968 23.3882 926.968C25.4282 926.968 26.9162 928.48 26.9162 930.52C26.9162 932.56 25.4282 934.072 23.3882 934.072ZM33.7425 937H37.2465V919.384H33.7425V937ZM40.6097 922.312H44.0897V919.072H40.6097V922.312ZM40.6097 937H44.1137V924.04H40.6097V937ZM56.9809 919.384V924.76C55.9729 924.064 54.7729 923.68 53.4289 923.68C49.4929 923.68 46.6129 926.608 46.6129 930.544C46.6129 934.456 49.4929 937.408 53.4289 937.408C55.0129 937.408 56.4049 936.856 57.4849 935.944L57.8929 937.024H60.4849V919.384H56.9809ZM53.7169 934.096C51.6769 934.096 50.1889 932.56 50.1889 930.544C50.1889 928.504 51.6769 926.992 53.7169 926.992C55.7569 926.992 57.2449 928.504 57.2449 930.544C57.2449 932.56 55.7569 934.096 53.7169 934.096ZM74.4197 924.04L74.0597 925.264C72.9317 924.28 71.4677 923.68 69.7877 923.68C65.8997 923.68 62.9957 926.608 62.9957 930.52C62.9957 934.432 65.8997 937.384 69.7877 937.384C71.4437 937.384 72.8837 936.808 73.9877 935.824L74.2997 937H77.0357V924.04H74.4197ZM70.0757 934.072C68.0357 934.072 66.5477 932.536 66.5477 930.52C66.5477 928.48 68.0357 926.968 70.0757 926.968C72.1157 926.968 73.6037 928.48 73.6037 930.52C73.6037 932.56 72.1157 934.072 70.0757 934.072ZM93.102 931.912H89.574C88.998 933.304 87.87 934.096 86.454 934.096C84.582 934.096 83.118 932.512 83.118 930.52C83.118 928.504 84.558 926.968 86.454 926.968C87.846 926.968 89.022 927.736 89.574 929.008H93.054C92.43 925.816 89.838 923.68 86.478 923.68C82.542 923.68 79.566 926.608 79.566 930.496C79.566 933.928 81.894 936.664 85.11 937.264L84.654 938.92L84.822 939.136H85.806C86.334 939.136 86.694 939.448 86.694 939.928C86.694 940.384 86.334 940.72 85.806 940.72H84.366V942.496H85.95C87.702 942.496 89.046 941.512 89.046 940.024C89.046 938.776 88.158 937.96 86.862 937.768L86.982 937.36C90.126 937.144 92.526 935.008 93.102 931.912ZM99.414 922.336C99.414 921.76 99.798 921.352 100.254 921.352C100.59 921.352 100.926 921.568 101.334 921.832C101.91 922.168 102.606 922.624 103.59 922.624C105.27 922.624 106.326 921.376 106.326 919.36V919.096H104.382V919.312C104.382 919.912 104.046 920.32 103.542 920.32C103.086 920.32 102.726 920.08 102.342 919.792C101.814 919.384 101.214 919 100.23 919C98.502 919 97.47 920.272 97.47 922.264V922.504H99.414V922.336ZM105.99 924.04L105.63 925.264C104.502 924.28 103.038 923.68 101.358 923.68C97.47 923.68 94.566 926.608 94.566 930.52C94.566 934.432 97.47 937.384 101.358 937.384C103.014 937.384 104.454 936.808 105.558 935.824L105.87 937H108.606V924.04H105.99ZM101.646 934.072C99.606 934.072 98.118 932.536 98.118 930.52C98.118 928.48 99.606 926.968 101.646 926.968C103.686 926.968 105.174 928.48 105.174 930.52C105.174 932.536 103.686 934.072 101.646 934.072ZM118.144 937.384C122.152 937.384 125.152 934.432 125.152 930.52C125.152 926.608 122.152 923.68 118.144 923.68C114.136 923.68 111.136 926.608 111.136 930.52C111.136 934.432 114.136 937.384 118.144 937.384ZM118.144 934.072C116.128 934.072 114.688 932.632 114.688 930.52C114.688 928.432 116.128 926.968 118.144 926.968C120.16 926.968 121.6 928.432 121.6 930.52C121.6 932.632 120.16 934.072 118.144 934.072Z" fill="#27272B"/>
</svg>
