<svg width="1168" height="238" viewBox="0 0 1168 238" fill="none" xmlns="http://www.w3.org/2000/svg">
<path d="M50.7559 46.2852L62.5236 58.0528L50.7559 69.8205L38.9883 58.0528L50.7559 46.2852Z" fill="#EEFB6E"/>
<path d="M202.951 135.721L214.719 147.488L202.951 159.256L191.184 147.488L202.951 135.721Z" fill="#EEFB6E"/>
<path d="M355.931 46.2852L367.699 58.0528L355.931 69.8205L344.164 58.0528L355.931 46.2852Z" fill="#EEFB6E"/>
<path d="M508.91 135.721L520.678 147.488L508.91 159.256L497.143 147.488L508.91 135.721Z" fill="#EEFB6E"/>
<path d="M661.891 46.2852L673.658 58.0528L661.891 69.8205L650.123 58.0528L661.891 46.2852Z" fill="#EEFB6E"/>
<path d="M814.085 135.721L825.853 147.488L814.085 159.256L802.317 147.488L814.085 135.721Z" fill="#EEFB6E"/>
<path d="M967.849 46.2852L979.617 58.0528L967.849 69.8205L956.082 58.0528L967.849 46.2852Z" fill="#EEFB6E"/>
<path d="M1120.05 135.721L1131.81 147.488L1120.05 159.256L1108.28 147.488L1120.05 135.721Z" fill="#EEFB6E"/>
<path fill-rule="evenodd" clip-rule="evenodd" d="M183.451 144.028C183.039 143.935 182.627 143.838 182.217 143.738L181.915 144.981C182.332 145.082 182.749 145.18 183.168 145.275L183.451 144.028ZM223.708 143.736C223.297 143.836 222.886 143.933 222.473 144.027L222.757 145.274C223.176 145.179 223.593 145.08 224.01 144.979L223.708 143.736ZM173.708 141.206C173.309 141.065 172.911 140.92 172.515 140.774L172.07 141.973C172.472 142.122 172.876 142.268 173.281 142.412L173.708 141.206ZM233.413 140.77C233.017 140.917 232.619 141.061 232.22 141.202L232.647 142.408C233.052 142.264 233.456 142.118 233.858 141.969L233.413 140.77ZM164.359 137.268C163.979 137.081 163.601 136.892 163.224 136.7L162.643 137.839C163.025 138.034 163.409 138.226 163.794 138.416L164.359 137.268ZM242.707 136.693C242.33 136.885 241.952 137.075 241.572 137.261L242.136 138.409C242.522 138.219 242.905 138.027 243.288 137.832L242.707 136.693ZM155.529 132.271C155.174 132.042 154.82 131.81 154.468 131.576L153.76 132.64C154.117 132.878 154.475 133.113 154.836 133.346L155.529 132.271ZM251.465 131.565C251.113 131.8 250.759 132.032 250.403 132.261L251.097 133.336C251.458 133.103 251.817 132.867 252.174 132.63L251.465 131.565ZM147.336 126.288C147.01 126.019 146.685 125.748 146.362 125.475L145.535 126.45C145.863 126.728 146.192 127.003 146.524 127.276L147.336 126.288ZM259.572 125.46C259.25 125.734 258.925 126.005 258.598 126.274L259.411 127.261C259.742 126.989 260.072 126.713 260.399 126.436L259.572 125.46ZM139.886 119.402C139.592 119.097 139.301 118.79 139.011 118.482L138.078 119.356C138.371 119.669 138.667 119.98 138.965 120.289L139.886 119.402ZM266.924 118.463C266.635 118.772 266.343 119.078 266.05 119.383L266.971 120.27C267.269 119.961 267.564 119.65 267.858 119.337L266.924 118.463ZM133.276 111.704C133.019 111.368 132.765 111.03 132.513 110.69L131.485 111.452C131.741 111.796 131.999 112.139 132.259 112.48L133.276 111.704ZM273.422 110.666C273.17 111.007 272.916 111.345 272.66 111.681L273.677 112.457C273.937 112.115 274.195 111.772 274.45 111.427L273.422 110.666ZM127.596 103.298C127.488 103.116 127.381 102.934 127.274 102.751L126.17 103.396C126.278 103.582 126.387 103.767 126.497 103.951L127.596 103.298ZM278.66 102.722C278.553 102.905 278.446 103.087 278.338 103.269L279.438 103.922C279.547 103.738 279.656 103.553 279.765 103.367L278.66 102.722Z" fill="#27272B"/>
<path fill-rule="evenodd" clip-rule="evenodd" d="M278.918 102.357C278.809 102.544 278.7 102.731 278.593 102.919L279.703 103.555C279.809 103.369 279.916 103.185 280.023 103L278.918 102.357ZM432.855 102.694C432.747 102.506 432.639 102.32 432.53 102.133L431.426 102.78C431.534 102.964 431.641 103.148 431.747 103.332L432.855 102.694ZM284.656 93.7031C284.396 94.0493 284.139 94.3973 283.884 94.7473L284.918 95.5001C285.169 95.1551 285.423 94.812 285.679 94.4709L284.656 93.7031ZM427.556 94.5589C427.301 94.2106 427.043 93.8642 426.783 93.5197L425.763 94.29C426.019 94.6296 426.273 94.971 426.524 95.3144L427.556 94.5589ZM291.361 85.7752C291.063 86.0889 290.767 86.4048 290.473 86.7229L291.413 87.5906C291.703 87.2771 291.994 86.9657 292.288 86.6564L291.361 85.7752ZM420.966 86.573C420.672 86.2565 420.376 85.9421 420.078 85.6299L419.153 86.5132C419.447 86.8209 419.739 87.1308 420.028 87.4427L420.966 86.573ZM298.941 78.6782C298.608 78.9553 298.277 79.2347 297.949 79.5166L298.781 80.4873C299.105 80.2095 299.431 79.934 299.759 79.6609L298.941 78.6782ZM413.496 79.4025C413.168 79.1221 412.837 78.844 412.505 78.5684L411.689 79.5527C412.016 79.8244 412.342 80.0985 412.665 80.3749L413.496 79.4025ZM307.292 72.5086C306.929 72.7452 306.568 72.9843 306.209 73.226L306.924 74.2869C307.278 74.0487 307.633 73.813 307.991 73.5798L307.292 72.5086ZM405.247 73.1443C404.888 72.9039 404.528 72.666 404.166 72.4307L403.469 73.503C403.826 73.7349 404.181 73.9694 404.534 74.2064L405.247 73.1443ZM316.306 67.3537C315.918 67.5463 315.531 67.7417 315.147 67.9398L315.732 69.0767C316.111 68.8815 316.492 68.6889 316.874 68.4991L316.306 67.3537ZM396.326 67.886C395.943 67.689 395.557 67.4947 395.17 67.3031L394.603 68.4492C394.984 68.6381 395.364 68.8296 395.742 69.0238L396.326 67.886ZM325.861 63.2891C325.453 63.435 325.046 63.5837 324.641 63.7354L325.089 64.9332C325.489 64.7837 325.889 64.6371 326.292 64.4933L325.861 63.2891ZM386.854 63.7044C386.45 63.5536 386.044 63.4056 385.637 63.2605L385.207 64.4652C385.608 64.6082 386.008 64.754 386.407 64.9027L386.854 63.7044ZM335.827 60.3752C335.405 60.472 334.984 60.5719 334.564 60.6747L334.869 61.9169C335.282 61.8155 335.697 61.7171 336.113 61.6217L335.827 60.3752ZM376.955 60.6605C376.537 60.5583 376.117 60.459 375.696 60.3626L375.411 61.6093C375.826 61.7043 376.239 61.8021 376.652 61.9029L376.955 60.6605Z" fill="#27272B"/>
<path fill-rule="evenodd" clip-rule="evenodd" d="M127.58 102.692C127.472 102.504 127.363 102.318 127.254 102.131L126.151 102.778C126.258 102.962 126.365 103.146 126.472 103.33L127.58 102.692ZM122.28 94.5569C122.025 94.2085 121.768 93.8621 121.508 93.5176L120.487 94.288C120.743 94.6275 120.997 94.969 121.248 95.3123L122.28 94.5569ZM115.69 86.5709C115.396 86.2544 115.1 85.94 114.802 85.6279L113.877 86.5111C114.171 86.8189 114.463 87.1287 114.752 87.4407L115.69 86.5709ZM108.22 79.4004C107.892 79.12 107.562 78.842 107.23 78.5663L106.413 79.5506C106.741 79.8223 107.066 80.0964 107.39 80.3728L108.22 79.4004ZM99.9712 73.1422C99.6128 72.9018 99.2526 72.6639 98.8906 72.4286L98.1936 73.5009C98.5504 73.7329 98.9054 73.9673 99.2586 74.2043L99.9712 73.1422ZM91.0509 67.8839C90.6671 67.6869 90.2817 67.4926 89.8946 67.301L89.3272 68.4472C89.7087 68.636 90.0886 68.8275 90.4668 69.0217L91.0509 67.8839ZM81.5783 63.7023C81.174 63.5515 80.7682 63.4035 80.3611 63.2584L79.9318 64.4631C80.333 64.6061 80.7328 64.7519 81.1313 64.9006L81.5783 63.7023ZM71.6798 60.6584C71.2612 60.5562 70.8414 60.4569 70.4205 60.3606L70.1353 61.6073C70.5501 61.7022 70.9638 61.8 71.3763 61.9008L71.6798 60.6584Z" fill="#27272B"/>
<path fill-rule="evenodd" clip-rule="evenodd" d="M489.05 144.105C488.636 144.01 488.223 143.913 487.812 143.813L487.509 145.055C487.927 145.157 488.345 145.256 488.765 145.352L489.05 144.105ZM529.532 143.787C529.118 143.888 528.704 143.987 528.288 144.082L528.574 145.329C528.996 145.232 529.417 145.132 529.836 145.029L529.532 143.787ZM479.277 141.264C478.877 141.122 478.478 140.977 478.081 140.829L477.635 142.028C478.038 142.178 478.443 142.325 478.849 142.469L479.277 141.264ZM539.308 140.773C538.909 140.922 538.508 141.069 538.106 141.213L538.536 142.417C538.944 142.271 539.351 142.123 539.756 141.971L539.308 140.773ZM469.903 137.301C469.522 137.113 469.143 136.923 468.766 136.729L468.183 137.868C468.566 138.064 468.951 138.257 469.337 138.448L469.903 137.301ZM548.662 136.633C548.283 136.828 547.902 137.02 547.52 137.21L548.089 138.355C548.477 138.163 548.863 137.968 549.247 137.77L548.662 136.633ZM461.054 132.273C460.697 132.043 460.343 131.809 459.99 131.573L459.279 132.637C459.637 132.876 459.997 133.113 460.358 133.347L461.054 132.273ZM557.468 131.426C557.115 131.664 556.759 131.9 556.402 132.133L557.1 133.204C557.463 132.968 557.823 132.729 558.182 132.487L557.468 131.426ZM452.846 126.254C452.519 125.984 452.194 125.711 451.871 125.436L451.042 126.41C451.369 126.689 451.699 126.965 452.031 127.24L452.846 126.254ZM565.609 125.23C565.285 125.508 564.96 125.783 564.632 126.056L565.45 127.039C565.782 126.762 566.113 126.483 566.442 126.201L565.609 125.23ZM445.388 119.327C445.094 119.021 444.802 118.713 444.513 118.402L443.577 119.274C443.871 119.589 444.167 119.902 444.465 120.212L445.388 119.327ZM572.977 118.132C572.687 118.445 572.396 118.756 572.102 119.065L573.028 119.947C573.326 119.633 573.622 119.318 573.916 119L572.977 118.132ZM438.778 111.587C438.522 111.249 438.268 110.909 438.016 110.567L436.986 111.325C437.241 111.672 437.499 112.017 437.759 112.36L438.778 111.587ZM579.472 110.227C579.221 110.572 578.967 110.915 578.711 111.256L579.733 112.024C579.993 111.678 580.251 111.33 580.505 110.981L579.472 110.227ZM433.107 103.135C432.999 102.952 432.892 102.769 432.785 102.585L431.679 103.227C431.787 103.413 431.896 103.599 432.005 103.784L433.107 103.135ZM584.688 102.178C584.582 102.363 584.475 102.548 584.368 102.732L585.473 103.376C585.582 103.189 585.69 103.001 585.798 102.814L584.688 102.178Z" fill="#27272B"/>
<path fill-rule="evenodd" clip-rule="evenodd" d="M641.927 61.5146C641.514 61.6085 641.103 61.7054 640.692 61.8052L640.39 60.5624C640.807 60.4612 641.224 60.3629 641.643 60.2676L641.927 61.5146ZM682.362 61.8429C681.949 61.7416 681.534 61.6433 681.118 61.5479L681.404 60.3014C681.826 60.3981 682.247 60.4979 682.666 60.6007L682.362 61.8429ZM632.177 64.3414C631.777 64.4829 631.379 64.6273 630.983 64.7745L630.538 63.5754C630.94 63.4261 631.344 63.2796 631.75 63.136L632.177 64.3414ZM692.138 64.8569C691.739 64.7076 691.338 64.5611 690.936 64.4174L691.367 63.2131C691.775 63.3588 692.181 63.5075 692.586 63.6591L692.138 64.8569ZM622.821 68.2856C622.441 68.4726 622.063 68.6622 621.686 68.8544L621.105 67.7153C621.487 67.5202 621.871 67.3278 622.257 67.1381L622.821 68.2856ZM701.492 68.9974C701.113 68.8023 700.733 68.6099 700.351 68.4202L700.919 67.2747C701.307 67.4671 701.693 67.6624 702.078 67.8603L701.492 68.9974ZM613.987 73.2899C613.632 73.5196 613.278 73.7518 612.926 73.9864L612.216 72.9222C612.574 72.6841 612.933 72.4486 613.293 72.2155L613.987 73.2899ZM710.299 74.2038C709.945 73.9658 709.589 73.7302 709.232 73.4972L709.93 72.4259C710.293 72.6623 710.654 72.9012 711.013 73.1428L710.299 74.2038ZM605.791 79.2818C605.464 79.551 605.139 79.8225 604.816 80.0963L603.989 79.121C604.316 78.8432 604.646 78.5678 604.977 78.2947L605.791 79.2818ZM718.439 80.3998C718.116 80.1222 717.79 79.8469 717.462 79.574L718.28 78.5911C718.613 78.868 718.943 79.1472 719.272 79.4289L718.439 80.3998ZM598.338 86.1781C598.044 86.483 597.753 86.7901 597.464 87.0992L596.53 86.2255C596.823 85.9118 597.119 85.6003 597.417 85.291L598.338 86.1781ZM725.807 87.4983C725.518 87.185 725.226 86.8738 724.932 86.5648L725.858 85.6833C726.157 85.9968 726.453 86.3125 726.746 86.6303L725.807 87.4983ZM591.728 93.8857C591.472 94.2223 591.217 94.5608 590.966 94.9012L589.937 94.1408C590.193 93.7954 590.451 93.452 590.711 93.1105L591.728 93.8857ZM732.302 95.4026C732.051 95.0579 731.797 94.715 731.541 94.3741L732.564 93.606C732.823 93.9519 733.081 94.2997 733.336 94.6495L732.302 95.4026ZM586.051 102.303C585.943 102.486 585.835 102.668 585.729 102.851L584.624 102.207C584.732 102.021 584.841 101.836 584.951 101.651L586.051 102.303ZM737.519 103.452C737.412 103.267 737.306 103.082 737.198 102.898L738.303 102.254C738.412 102.441 738.521 102.629 738.628 102.816L737.519 103.452Z" fill="#27272B"/>
<path fill-rule="evenodd" clip-rule="evenodd" d="M947.766 61.5146C947.353 61.6085 946.942 61.7054 946.531 61.8052L946.229 60.5624C946.646 60.4612 947.063 60.3629 947.482 60.2676L947.766 61.5146ZM988.201 61.8429C987.788 61.7416 987.373 61.6433 986.957 61.5479L987.243 60.3014C987.665 60.3981 988.086 60.4979 988.505 60.6007L988.201 61.8429ZM938.016 64.3414C937.616 64.4829 937.218 64.6273 936.822 64.7745L936.377 63.5754C936.779 63.4261 937.183 63.2796 937.588 63.136L938.016 64.3414ZM997.977 64.8569C997.578 64.7076 997.177 64.5611 996.775 64.4174L997.206 63.2131C997.614 63.3588 998.02 63.5075 998.425 63.6591L997.977 64.8569ZM928.66 68.2856C928.28 68.4726 927.902 68.6622 927.525 68.8544L926.944 67.7153C927.326 67.5202 927.71 67.3278 928.096 67.1381L928.66 68.2856ZM1007.33 68.9974C1006.95 68.8023 1006.57 68.6099 1006.19 68.4202L1006.76 67.2747C1007.15 67.4671 1007.53 67.6624 1007.92 67.8603L1007.33 68.9974ZM919.826 73.2899C919.47 73.5196 919.117 73.7518 918.764 73.9864L918.055 72.9222C918.412 72.6841 918.771 72.4486 919.132 72.2155L919.826 73.2899ZM1016.14 74.2038C1015.78 73.9658 1015.43 73.7302 1015.07 73.4972L1015.77 72.4259C1016.13 72.6623 1016.49 72.9012 1016.85 73.1428L1016.14 74.2038ZM911.629 79.2818C911.303 79.551 910.978 79.8225 910.655 80.0963L909.828 79.121C910.155 78.8432 910.485 78.5678 910.816 78.2947L911.629 79.2818ZM1024.28 80.3998C1023.95 80.1222 1023.63 79.8469 1023.3 79.574L1024.12 78.5911C1024.45 78.868 1024.78 79.1472 1025.11 79.4289L1024.28 80.3998ZM904.177 86.1781C903.883 86.483 903.592 86.7901 903.303 87.0992L902.369 86.2255C902.662 85.9118 902.958 85.6003 903.256 85.291L904.177 86.1781ZM1031.65 87.4983C1031.36 87.185 1031.06 86.8738 1030.77 86.5648L1031.7 85.6833C1032 85.9968 1032.29 86.3125 1032.59 86.6303L1031.65 87.4983ZM897.567 93.8857C897.31 94.2223 897.056 94.5608 896.805 94.9012L895.776 94.1408C896.032 93.7954 896.289 93.452 896.55 93.1105L897.567 93.8857ZM1038.14 95.4026C1037.89 95.0579 1037.64 94.715 1037.38 94.3741L1038.4 93.606C1038.66 93.9519 1038.92 94.2997 1039.17 94.6495L1038.14 95.4026ZM891.89 102.303C891.782 102.486 891.674 102.668 891.568 102.851L890.463 102.207C890.571 102.021 890.68 101.836 890.79 101.651L891.89 102.303ZM1043.36 103.452C1043.25 103.267 1043.14 103.082 1043.04 102.898L1044.14 102.254C1044.25 102.441 1044.36 102.629 1044.47 102.816L1043.36 103.452Z" fill="#27272B"/>
<path fill-rule="evenodd" clip-rule="evenodd" d="M891.488 102.666C891.381 102.854 891.272 103.042 891.163 103.229L890.058 102.586C890.165 102.402 890.272 102.217 890.378 102.031L891.488 102.666ZM737.783 103.887C737.673 103.702 737.564 103.517 737.456 103.331L738.561 102.686C738.667 102.869 738.775 103.052 738.883 103.234L737.783 103.887ZM886.197 110.842C885.943 111.192 885.685 111.54 885.426 111.886L884.403 111.119C884.659 110.778 884.912 110.434 885.163 110.089L886.197 110.842ZM743.543 112.426C743.283 112.085 743.025 111.742 742.77 111.396L743.798 110.636C744.05 110.976 744.304 111.315 744.56 111.651L743.543 112.426ZM879.608 118.87C879.315 119.188 879.019 119.504 878.72 119.818L877.793 118.937C878.087 118.627 878.379 118.316 878.669 118.002L879.608 118.87ZM750.249 120.245C749.951 119.936 749.655 119.625 749.362 119.311L750.296 118.437C750.585 118.746 750.876 119.053 751.17 119.358L750.249 120.245ZM872.133 126.079C871.804 126.361 871.473 126.641 871.141 126.918L870.322 125.936C870.65 125.662 870.976 125.387 871.3 125.109L872.133 126.079ZM757.81 127.241C757.478 126.968 757.148 126.693 756.821 126.415L757.648 125.44C757.971 125.713 758.296 125.985 758.623 126.254L757.81 127.241ZM863.871 132.373C863.512 132.615 863.151 132.854 862.788 133.091L862.089 132.02C862.447 131.786 862.802 131.551 863.156 131.312L863.871 132.373ZM766.125 133.32C765.764 133.087 765.405 132.851 765.048 132.613L765.757 131.549C766.11 131.784 766.463 132.016 766.819 132.246L766.125 133.32ZM854.932 137.662C854.547 137.86 854.161 138.056 853.773 138.248L853.204 137.103C853.586 136.913 853.967 136.72 854.346 136.525L854.932 137.662ZM775.088 138.397C774.703 138.207 774.319 138.015 773.937 137.82L774.518 136.681C774.895 136.873 775.273 137.063 775.653 137.25L775.088 138.397ZM845.436 141.868C845.03 142.02 844.624 142.169 844.215 142.315L843.785 141.111C844.187 140.967 844.588 140.82 844.987 140.671L845.436 141.868ZM784.581 142.399C784.176 142.255 783.772 142.109 783.369 141.96L783.814 140.76C784.211 140.908 784.609 141.052 785.008 141.194L784.581 142.399ZM835.51 144.931C835.09 145.033 834.669 145.133 834.247 145.23L833.961 143.984C834.377 143.888 834.792 143.79 835.206 143.688L835.51 144.931ZM794.474 145.267C794.056 145.172 793.638 145.074 793.221 144.972L793.523 143.73C793.934 143.829 794.345 143.926 794.758 144.02L794.474 145.267Z" fill="#27272B"/>
<path fill-rule="evenodd" clip-rule="evenodd" d="M1042.9 102.666C1043.01 102.854 1043.11 103.042 1043.22 103.229L1044.33 102.586C1044.22 102.402 1044.11 102.217 1044.01 102.031L1042.9 102.666ZM1048.19 110.842C1048.44 111.192 1048.7 111.54 1048.96 111.886L1049.98 111.119C1049.73 110.778 1049.47 110.434 1049.22 110.089L1048.19 110.842ZM1054.78 118.87C1055.07 119.188 1055.37 119.504 1055.67 119.818L1056.59 118.937C1056.3 118.627 1056.01 118.316 1055.72 118.002L1054.78 118.87ZM1062.25 126.079C1062.58 126.361 1062.91 126.641 1063.25 126.918L1064.06 125.936C1063.74 125.662 1063.41 125.387 1063.09 125.109L1062.25 126.079ZM1070.52 132.373C1070.87 132.615 1071.24 132.854 1071.6 133.091L1072.3 132.02C1071.94 131.786 1071.58 131.551 1071.23 131.312L1070.52 132.373ZM1079.45 137.662C1079.84 137.86 1080.23 138.056 1080.61 138.248L1081.18 137.103C1080.8 136.913 1080.42 136.72 1080.04 136.525L1079.45 137.662ZM1088.95 141.868C1089.36 142.02 1089.76 142.169 1090.17 142.315L1090.6 141.111C1090.2 140.967 1089.8 140.82 1089.4 140.671L1088.95 141.868ZM1098.88 144.931C1099.3 145.033 1099.72 145.133 1100.14 145.23L1100.43 143.984C1100.01 143.888 1099.59 143.79 1099.18 143.688L1098.88 144.931Z" fill="#27272B"/>
<path d="M12.4342 13.144C13.6102 12.328 14.3302 10.984 14.3302 9.544C14.3302 7.072 12.1702 5.224 9.26616 5.224H2.33016V22.024H9.45816C12.3862 22.024 14.7622 19.864 14.7622 17.176C14.7622 15.376 13.8982 13.936 12.4342 13.144ZM10.8022 10.096C10.8022 11.152 10.0582 11.896 8.93016 11.896H5.88216V8.32H8.93016C10.0582 8.32 10.8022 9.04 10.8022 10.096ZM9.12216 18.688H5.88216V14.92H9.12216C10.3222 14.92 11.1142 15.712 11.1142 16.792C11.1142 17.896 10.3222 18.688 9.12216 18.688ZM24.0892 8.968C22.4092 8.968 21.2572 9.496 20.3212 10.648L19.6972 9.04H17.4652V22H20.9692V15.28C20.9692 13.168 21.7372 12.28 23.7052 12.28H25.2412V8.968H24.0892ZM27.2386 7.312H30.7186V4.072H27.2386V7.312ZM27.2386 22H30.7426V9.04H27.2386V22ZM46.6818 15.496C46.6818 11.752 43.9458 8.68 39.9618 8.68C36.1218 8.68 33.2418 11.632 33.2418 15.52C33.2418 19.408 36.1458 22.384 39.9618 22.384C42.9858 22.384 45.4578 20.584 46.3938 17.752H42.7218C42.1938 18.688 41.1858 19.264 39.9618 19.264C38.2578 19.264 37.1058 18.28 36.7938 16.504H46.6098C46.6578 16.168 46.6818 15.832 46.6818 15.496ZM39.9618 11.68C41.5458 11.68 42.6738 12.544 43.1778 14.128H36.8898C37.2978 12.592 38.4018 11.68 39.9618 11.68ZM56.8852 9.232H53.5492V8.128C53.5492 7.216 54.0292 6.736 54.9652 6.736H56.8612V3.976H54.2692C51.5332 3.976 50.1412 5.56 50.1412 8.056V9.232H47.8852V12.112H50.1172V22H53.6212V12.112H56.8852V9.232ZM58.9261 7.312H62.4061V4.072H58.9261V7.312ZM58.9261 22H62.4301V9.04H58.9261V22ZM73.1613 8.752C71.4093 8.752 69.8493 9.496 68.8653 10.648L68.1933 9.04H65.7933V22H69.2973V15.208C69.2973 13.12 70.4013 11.824 72.2013 11.824C73.7133 11.824 74.4573 12.76 74.4573 14.728V22H77.9613V14.152C77.9613 10.864 76.1133 8.752 73.1613 8.752ZM91.6323 9.04L91.0563 10.336C89.9283 9.304 88.4403 8.68 86.7603 8.68C83.1363 8.68 80.3043 11.56 80.3043 15.184C80.3043 18.832 83.1363 21.688 86.7603 21.688C88.1523 21.688 89.4243 21.256 90.4563 20.536V21.016C90.4563 22.912 88.9923 24.064 87.2163 24.064C85.9203 24.064 84.5523 23.464 84.1443 22.288H80.6643C81.2643 25.24 83.7603 27.04 87.2643 27.04C91.3683 27.04 93.8883 24.568 93.8883 20.512V9.064L91.6323 9.04ZM87.1683 18.544C85.2483 18.544 83.8563 17.128 83.8563 15.208C83.8563 13.264 85.2483 11.848 87.1683 11.848C89.0883 11.848 90.4803 13.264 90.4803 15.208C90.4803 17.128 89.0883 18.544 87.1683 18.544Z" fill="#27272B"/>
<path d="M308.518 5.2H302.062V22H305.686V16.768H308.518C311.902 16.768 314.446 14.296 314.446 10.984C314.446 7.672 311.878 5.2 308.518 5.2ZM308.35 13.408H305.686V8.584H308.35C309.79 8.584 310.774 9.592 310.774 10.984C310.774 12.376 309.79 13.408 308.35 13.408ZM329.187 15.496C329.187 11.752 326.451 8.68 322.467 8.68C318.627 8.68 315.747 11.632 315.747 15.52C315.747 19.408 318.651 22.384 322.467 22.384C325.491 22.384 327.963 20.584 328.899 17.752H325.227C324.699 18.688 323.691 19.264 322.467 19.264C320.763 19.264 319.611 18.28 319.299 16.504H329.115C329.163 16.168 329.187 15.832 329.187 15.496ZM322.467 11.68C324.051 11.68 325.179 12.544 325.683 14.128H319.395C319.803 12.592 320.907 11.68 322.467 11.68ZM336.265 22.384C339.553 22.384 341.713 20.656 341.713 18.016C341.713 14.848 339.001 14.416 336.889 14.032C335.545 13.792 334.441 13.576 334.441 12.712C334.441 11.968 335.089 11.488 336.169 11.488C337.393 11.488 338.113 11.992 338.137 13.024H341.473C341.449 10.432 339.385 8.68 336.265 8.68C333.145 8.68 331.057 10.384 331.057 12.832C331.057 15.88 333.697 16.432 335.761 16.792C337.129 17.008 338.257 17.272 338.257 18.16C338.257 19.024 337.369 19.48 336.409 19.48C335.161 19.48 334.273 18.904 334.249 17.752H330.841C330.841 20.512 333.025 22.384 336.265 22.384ZM354.971 9.04L354.371 10.24C353.267 9.256 351.827 8.68 350.219 8.68C346.307 8.68 343.427 11.608 343.427 15.544C343.427 19.48 346.307 22.408 350.219 22.408C351.563 22.408 352.787 22 353.795 21.304V26.68H357.299V9.064L354.971 9.04ZM350.507 19.096C348.467 19.096 346.979 17.56 346.979 15.544C346.979 13.504 348.467 11.992 350.507 11.992C352.547 11.992 354.035 13.504 354.035 15.544C354.035 17.56 352.547 19.096 350.507 19.096ZM366.554 22.384C370.226 22.384 372.65 20.032 372.65 16.528V9.04H369.146V16.144C369.146 17.968 368.186 19.072 366.554 19.072C364.946 19.072 363.962 17.992 363.962 16.144V9.04H360.458V16.528C360.458 20.032 362.906 22.384 366.554 22.384ZM375.837 7.312H379.317V4.072H375.837V7.312ZM375.837 22H379.341V9.04H375.837V22ZM387.289 22.384C390.577 22.384 392.737 20.656 392.737 18.016C392.737 14.848 390.025 14.416 387.913 14.032C386.569 13.792 385.465 13.576 385.465 12.712C385.465 11.968 386.113 11.488 387.193 11.488C388.417 11.488 389.137 11.992 389.161 13.024H392.497C392.473 10.432 390.409 8.68 387.289 8.68C384.169 8.68 382.081 10.384 382.081 12.832C382.081 15.88 384.721 16.432 386.785 16.792C388.153 17.008 389.281 17.272 389.281 18.16C389.281 19.024 388.393 19.48 387.433 19.48C386.185 19.48 385.297 18.904 385.273 17.752H381.865C381.865 20.512 384.049 22.384 387.289 22.384ZM405.874 9.04L405.514 10.264C404.386 9.28 402.922 8.68 401.242 8.68C397.354 8.68 394.45 11.608 394.45 15.52C394.45 19.432 397.354 22.384 401.242 22.384C402.898 22.384 404.338 21.808 405.442 20.824L405.754 22H408.49V9.04H405.874ZM401.53 19.072C399.49 19.072 398.002 17.536 398.002 15.52C398.002 13.48 399.49 11.968 401.53 11.968C403.57 11.968 405.058 13.48 405.058 15.52C405.058 17.56 403.57 19.072 401.53 19.072Z" fill="#27272B"/>
<path d="M611.687 22H615.311V5.2H611.687V22ZM628.24 4.384V9.76C627.232 9.064 626.032 8.68 624.688 8.68C620.752 8.68 617.872 11.608 617.872 15.544C617.872 19.456 620.752 22.408 624.688 22.408C626.272 22.408 627.664 21.856 628.744 20.944L629.152 22.024H631.744V4.384H628.24ZM624.976 19.096C622.936 19.096 621.448 17.56 621.448 15.544C621.448 13.504 622.936 11.992 624.976 11.992C627.016 11.992 628.504 13.504 628.504 15.544C628.504 17.56 627.016 19.096 624.976 19.096ZM647.695 15.496C647.695 11.752 644.959 8.68 640.975 8.68C637.135 8.68 634.255 11.632 634.255 15.52C634.255 19.408 637.159 22.384 640.975 22.384C643.999 22.384 646.471 20.584 647.407 17.752H643.735C643.207 18.688 642.199 19.264 640.975 19.264C639.271 19.264 638.119 18.28 637.807 16.504H647.623C647.671 16.168 647.695 15.832 647.695 15.496ZM640.975 11.68C642.559 11.68 643.687 12.544 644.191 14.128H637.903C638.311 12.592 639.415 11.68 640.975 11.68ZM660.749 9.04L660.389 10.264C659.261 9.28 657.797 8.68 656.117 8.68C652.229 8.68 649.325 11.608 649.325 15.52C649.325 19.432 652.229 22.384 656.117 22.384C657.773 22.384 659.213 21.808 660.317 20.824L660.629 22H663.365V9.04H660.749ZM656.405 19.072C654.365 19.072 652.877 17.536 652.877 15.52C652.877 13.48 654.365 11.968 656.405 11.968C658.445 11.968 659.933 13.48 659.933 15.52C659.933 17.56 658.445 19.072 656.405 19.072ZM679.431 16.912H675.903C675.327 18.304 674.199 19.096 672.783 19.096C670.911 19.096 669.447 17.512 669.447 15.52C669.447 13.504 670.887 11.968 672.783 11.968C674.175 11.968 675.351 12.736 675.903 14.008H679.383C678.759 10.816 676.167 8.68 672.807 8.68C668.871 8.68 665.895 11.608 665.895 15.496C665.895 18.928 668.223 21.664 671.439 22.264L670.983 23.92L671.151 24.136H672.135C672.663 24.136 673.023 24.448 673.023 24.928C673.023 25.384 672.663 25.72 672.135 25.72H670.695V27.496H672.279C674.031 27.496 675.375 26.512 675.375 25.024C675.375 23.776 674.487 22.96 673.191 22.768L673.311 22.36C676.455 22.144 678.855 20.008 679.431 16.912ZM685.743 7.336C685.743 6.76 686.127 6.352 686.583 6.352C686.919 6.352 687.255 6.568 687.663 6.832C688.239 7.168 688.935 7.624 689.919 7.624C691.599 7.624 692.655 6.376 692.655 4.36V4.096H690.711V4.312C690.711 4.912 690.375 5.32 689.871 5.32C689.415 5.32 689.055 5.08 688.671 4.792C688.143 4.384 687.543 4 686.559 4C684.831 4 683.799 5.272 683.799 7.264V7.504H685.743V7.336ZM692.319 9.04L691.959 10.264C690.831 9.28 689.367 8.68 687.687 8.68C683.799 8.68 680.895 11.608 680.895 15.52C680.895 19.432 683.799 22.384 687.687 22.384C689.343 22.384 690.783 21.808 691.887 20.824L692.199 22H694.935V9.04H692.319ZM687.975 19.072C685.935 19.072 684.447 17.536 684.447 15.52C684.447 13.48 685.935 11.968 687.975 11.968C690.015 11.968 691.503 13.48 691.503 15.52C691.503 17.536 690.015 19.072 687.975 19.072ZM704.474 22.384C708.482 22.384 711.482 19.432 711.482 15.52C711.482 11.608 708.482 8.68 704.474 8.68C700.466 8.68 697.466 11.608 697.466 15.52C697.466 19.432 700.466 22.384 704.474 22.384ZM704.474 19.072C702.458 19.072 701.018 17.632 701.018 15.52C701.018 13.432 702.458 11.968 704.474 11.968C706.49 11.968 707.93 13.432 707.93 15.52C707.93 17.632 706.49 19.072 704.474 19.072Z" fill="#27272B"/>
<path d="M164.009 197.789H168.065L164.345 191.453C166.217 190.541 167.417 188.765 167.417 186.557C167.417 183.317 164.897 180.989 161.537 180.989H154.769V197.789H158.393V192.077H160.721L164.009 197.789ZM158.393 184.349H161.297C162.833 184.349 163.721 185.285 163.721 186.533C163.721 187.805 162.833 188.717 161.297 188.717H158.393V184.349ZM182.667 191.285C182.667 187.541 179.931 184.469 175.947 184.469C172.107 184.469 169.227 187.421 169.227 191.309C169.227 195.197 172.131 198.173 175.947 198.173C178.971 198.173 181.443 196.373 182.379 193.541H178.707C178.179 194.477 177.171 195.053 175.947 195.053C174.243 195.053 173.091 194.069 172.779 192.293H182.595C182.643 191.957 182.667 191.621 182.667 191.285ZM175.947 187.469C177.531 187.469 178.659 188.333 179.163 189.917H172.875C173.283 188.381 174.387 187.469 175.947 187.469ZM191.065 198.173C194.737 198.173 197.161 195.821 197.161 192.317V184.829H193.657V191.933C193.657 193.757 192.697 194.861 191.065 194.861C189.457 194.861 188.473 193.781 188.473 191.933V184.829H184.969V192.317C184.969 195.821 187.417 198.173 191.065 198.173ZM207.717 184.541C205.965 184.541 204.405 185.285 203.421 186.437L202.749 184.829H200.349V197.789H203.853V190.997C203.853 188.909 204.957 187.613 206.757 187.613C208.269 187.613 209.013 188.549 209.013 190.517V197.789H212.517V189.941C212.517 186.653 210.669 184.541 207.717 184.541ZM215.724 183.101H219.204V179.861H215.724V183.101ZM215.724 197.789H219.228V184.829H215.724V197.789ZM226.575 183.125C226.575 182.549 226.959 182.141 227.415 182.141C227.751 182.141 228.087 182.357 228.495 182.621C229.071 182.957 229.767 183.413 230.751 183.413C232.431 183.413 233.487 182.165 233.487 180.149V179.885H231.543V180.101C231.543 180.701 231.207 181.109 230.703 181.109C230.247 181.109 229.887 180.869 229.503 180.581C228.975 180.173 228.375 179.789 227.391 179.789C225.663 179.789 224.631 181.061 224.631 183.053V183.293H226.575V183.125ZM233.151 184.829L232.791 186.053C231.663 185.069 230.199 184.469 228.519 184.469C224.631 184.469 221.727 187.397 221.727 191.309C221.727 195.221 224.631 198.173 228.519 198.173C230.175 198.173 231.615 197.597 232.719 196.613L233.031 197.789H235.767V184.829H233.151ZM228.807 194.861C226.767 194.861 225.279 193.325 225.279 191.309C225.279 189.269 226.767 187.757 228.807 187.757C230.847 187.757 232.335 189.269 232.335 191.309C232.335 193.325 230.847 194.861 228.807 194.861ZM245.305 198.173C249.313 198.173 252.313 195.221 252.313 191.309C252.313 187.397 249.313 184.469 245.305 184.469C241.297 184.469 238.297 187.397 238.297 191.309C238.297 195.221 241.297 198.173 245.305 198.173ZM245.305 194.861C243.289 194.861 241.849 193.421 241.849 191.309C241.849 189.221 243.289 187.757 245.305 187.757C247.321 187.757 248.761 189.221 248.761 191.309C248.761 193.421 247.321 194.861 245.305 194.861Z" fill="#27272B"/>
<path d="M476.545 197.789H480.505L473.713 180.989H470.281L463.681 197.789H467.545L468.697 194.621H475.369L476.545 197.789ZM472.033 185.429L474.241 191.453H469.825L472.033 185.429ZM489.763 184.541C488.011 184.541 486.451 185.285 485.467 186.437L484.795 184.829H482.395V197.789H485.899V190.997C485.899 188.909 487.003 187.613 488.803 187.613C490.315 187.613 491.059 188.549 491.059 190.517V197.789H494.563V189.941C494.563 186.653 492.715 184.541 489.763 184.541ZM507.682 179.765H503.962L502.666 183.413H505.306L507.682 179.765ZM508.33 184.829L507.97 186.053C506.842 185.069 505.378 184.469 503.698 184.469C499.81 184.469 496.906 187.397 496.906 191.309C496.906 195.221 499.81 198.173 503.698 198.173C505.354 198.173 506.794 197.597 507.898 196.613L508.21 197.789H510.946V184.829H508.33ZM503.986 194.861C501.946 194.861 500.458 193.325 500.458 191.309C500.458 189.269 501.946 187.757 503.986 187.757C506.026 187.757 507.514 189.269 507.514 191.309C507.514 193.349 506.026 194.861 503.986 194.861ZM514.341 197.789H517.845V180.173H514.341V197.789ZM521.208 183.101H524.688V179.861H521.208V183.101ZM521.208 197.789H524.712V184.829H521.208V197.789ZM532.659 198.173C535.947 198.173 538.107 196.445 538.107 193.805C538.107 190.637 535.395 190.205 533.283 189.821C531.939 189.581 530.835 189.365 530.835 188.501C530.835 187.757 531.483 187.277 532.563 187.277C533.787 187.277 534.507 187.781 534.531 188.813H537.867C537.843 186.221 535.779 184.469 532.659 184.469C529.539 184.469 527.451 186.173 527.451 188.621C527.451 191.669 530.091 192.221 532.155 192.581C533.523 192.797 534.651 193.061 534.651 193.949C534.651 194.813 533.763 195.269 532.803 195.269C531.555 195.269 530.667 194.693 530.643 193.541H527.235C527.235 196.301 529.419 198.173 532.659 198.173ZM553.26 191.285C553.26 187.541 550.524 184.469 546.54 184.469C542.7 184.469 539.82 187.421 539.82 191.309C539.82 195.197 542.724 198.173 546.54 198.173C549.564 198.173 552.036 196.373 552.972 193.541H549.3C548.772 194.477 547.764 195.053 546.54 195.053C544.836 195.053 543.684 194.069 543.372 192.293H553.188C553.236 191.957 553.26 191.621 553.26 191.285ZM546.54 187.469C548.124 187.469 549.252 188.333 549.756 189.917H543.468C543.876 188.381 544.98 187.469 546.54 187.469ZM443.334 225.429V221.973H449.166V218.685H443.334V215.349H449.79V211.989H439.71V228.789H450.054V225.429H443.334ZM457.366 229.173C460.654 229.173 462.814 227.445 462.814 224.805C462.814 221.637 460.102 221.205 457.99 220.821C456.646 220.581 455.542 220.365 455.542 219.501C455.542 218.757 456.19 218.277 457.27 218.277C458.494 218.277 459.214 218.781 459.238 219.813H462.574C462.55 217.221 460.486 215.469 457.366 215.469C454.246 215.469 452.158 217.173 452.158 219.621C452.158 222.669 454.798 223.221 456.862 223.581C458.23 223.797 459.358 224.061 459.358 224.949C459.358 225.813 458.47 226.269 457.51 226.269C456.262 226.269 455.374 225.693 455.35 224.541H451.942C451.942 227.301 454.126 229.173 457.366 229.173ZM471.61 225.669C470.314 225.669 469.594 224.949 469.594 223.701V218.661H473.122V215.829H469.546V212.469H468.874L463.762 217.893V218.661H466.09V224.181C466.09 227.037 467.842 228.789 470.698 228.789H473.194V225.669H471.61ZM482.211 215.757C480.531 215.757 479.379 216.285 478.443 217.437L477.819 215.829H475.587V228.789H479.091V222.069C479.091 219.957 479.859 219.069 481.827 219.069H483.363V215.757H482.211ZM495.639 215.829L495.279 217.053C494.151 216.069 492.687 215.469 491.007 215.469C487.119 215.469 484.215 218.397 484.215 222.309C484.215 226.221 487.119 229.173 491.007 229.173C492.663 229.173 494.103 228.597 495.207 227.613L495.519 228.789H498.255V215.829H495.639ZM491.295 225.861C489.255 225.861 487.767 224.325 487.767 222.309C487.767 220.269 489.255 218.757 491.295 218.757C493.335 218.757 494.823 220.269 494.823 222.309C494.823 224.349 493.335 225.861 491.295 225.861ZM507.985 225.669C506.689 225.669 505.969 224.949 505.969 223.701V218.661H509.497V215.829H505.921V212.469H505.249L500.137 217.893V218.661H502.465V224.181C502.465 227.037 504.217 228.789 507.073 228.789H509.569V225.669H507.985ZM521.133 210.765H517.413L516.093 214.413H518.757L521.133 210.765ZM524.421 222.285C524.421 218.541 521.685 215.469 517.701 215.469C513.861 215.469 510.981 218.421 510.981 222.309C510.981 226.197 513.885 229.173 517.701 229.173C520.725 229.173 523.197 227.373 524.133 224.541H520.461C519.933 225.477 518.925 226.053 517.701 226.053C515.997 226.053 514.845 225.069 514.533 223.293H524.349C524.397 222.957 524.421 222.621 524.421 222.285ZM517.701 218.469C519.285 218.469 520.413 219.333 520.917 220.917H514.629C515.037 219.381 516.141 218.469 517.701 218.469ZM537.379 215.829L536.803 217.125C535.675 216.093 534.187 215.469 532.507 215.469C528.883 215.469 526.051 218.349 526.051 221.973C526.051 225.621 528.883 228.477 532.507 228.477C533.899 228.477 535.171 228.045 536.203 227.325V227.805C536.203 229.701 534.739 230.853 532.963 230.853C531.667 230.853 530.299 230.253 529.891 229.077H526.411C527.011 232.029 529.507 233.829 533.011 233.829C537.115 233.829 539.635 231.357 539.635 227.301V215.853L537.379 215.829ZM532.915 225.333C530.995 225.333 529.603 223.917 529.603 221.997C529.603 220.053 530.995 218.637 532.915 218.637C534.835 218.637 536.227 220.053 536.227 221.997C536.227 223.917 534.835 225.333 532.915 225.333ZM543.016 214.101H546.496V210.861H543.016V214.101ZM543.016 228.789H546.52V215.829H543.016V228.789ZM555.908 229.173C559.292 229.173 561.956 226.965 562.556 223.701H559.028C558.428 225.093 557.324 225.861 555.908 225.861C554.036 225.861 552.572 224.301 552.572 222.309C552.572 220.293 554.012 218.757 555.908 218.757C557.3 218.757 558.476 219.525 559.028 220.797H562.508C561.884 217.605 559.292 215.469 555.932 215.469C551.996 215.469 549.02 218.397 549.02 222.285C549.02 226.173 551.996 229.173 555.908 229.173ZM575.444 215.829L575.084 217.053C573.956 216.069 572.492 215.469 570.812 215.469C566.924 215.469 564.02 218.397 564.02 222.309C564.02 226.221 566.924 229.173 570.812 229.173C572.468 229.173 573.908 228.597 575.012 227.613L575.324 228.789H578.06V215.829H575.444ZM571.1 225.861C569.06 225.861 567.572 224.325 567.572 222.309C567.572 220.269 569.06 218.757 571.1 218.757C573.14 218.757 574.628 220.269 574.628 222.309C574.628 224.349 573.14 225.861 571.1 225.861Z" fill="#27272B"/>
<path d="M774.059 198.173C778.211 198.173 781.475 195.389 782.243 191.237H778.571C777.971 193.349 776.267 194.693 774.059 194.693C771.203 194.693 769.067 192.437 769.067 189.413C769.067 186.389 771.203 184.109 774.059 184.109C776.171 184.109 777.851 185.357 778.547 187.325H782.171C781.403 183.341 778.139 180.629 774.059 180.629C769.115 180.629 765.371 184.421 765.371 189.413C765.371 194.381 769.115 198.173 774.059 198.173ZM791.254 184.757C789.574 184.757 788.422 185.285 787.486 186.437L786.862 184.829H784.63V197.789H788.134V191.069C788.134 188.957 788.902 188.069 790.87 188.069H792.406V184.757H791.254ZM794.404 183.101H797.884V179.861H794.404V183.101ZM794.404 197.789H797.908V184.829H794.404V197.789ZM811.831 184.829L811.471 186.053C810.343 185.069 808.879 184.469 807.199 184.469C803.311 184.469 800.407 187.397 800.407 191.309C800.407 195.221 803.311 198.173 807.199 198.173C808.855 198.173 810.295 197.597 811.399 196.613L811.711 197.789H814.447V184.829H811.831ZM807.487 194.861C805.447 194.861 803.959 193.325 803.959 191.309C803.959 189.269 805.447 187.757 807.487 187.757C809.527 187.757 811.015 189.269 811.015 191.309C811.015 193.349 809.527 194.861 807.487 194.861ZM830.513 192.701H826.985C826.409 194.093 825.281 194.885 823.865 194.885C821.993 194.885 820.529 193.301 820.529 191.309C820.529 189.293 821.969 187.757 823.865 187.757C825.257 187.757 826.433 188.525 826.985 189.797H830.465C829.841 186.605 827.249 184.469 823.889 184.469C819.953 184.469 816.977 187.397 816.977 191.285C816.977 194.717 819.305 197.453 822.521 198.053L822.065 199.709L822.233 199.925H823.217C823.745 199.925 824.105 200.237 824.105 200.717C824.105 201.173 823.745 201.509 823.217 201.509H821.777V203.285H823.361C825.113 203.285 826.457 202.301 826.457 200.813C826.457 199.565 825.569 198.749 824.273 198.557L824.393 198.149C827.537 197.933 829.937 195.797 830.513 192.701ZM836.825 183.125C836.825 182.549 837.209 182.141 837.665 182.141C838.001 182.141 838.337 182.357 838.745 182.621C839.321 182.957 840.017 183.413 841.001 183.413C842.681 183.413 843.737 182.165 843.737 180.149V179.885H841.793V180.101C841.793 180.701 841.457 181.109 840.953 181.109C840.497 181.109 840.137 180.869 839.753 180.581C839.225 180.173 838.625 179.789 837.641 179.789C835.913 179.789 834.881 181.061 834.881 183.053V183.293H836.825V183.125ZM843.401 184.829L843.041 186.053C841.913 185.069 840.449 184.469 838.769 184.469C834.881 184.469 831.977 187.397 831.977 191.309C831.977 195.221 834.881 198.173 838.769 198.173C840.425 198.173 841.865 197.597 842.969 196.613L843.281 197.789H846.017V184.829H843.401ZM839.057 194.861C837.017 194.861 835.529 193.325 835.529 191.309C835.529 189.269 837.017 187.757 839.057 187.757C841.097 187.757 842.585 189.269 842.585 191.309C842.585 193.325 841.097 194.861 839.057 194.861ZM855.555 198.173C859.563 198.173 862.563 195.221 862.563 191.309C862.563 187.397 859.563 184.469 855.555 184.469C851.547 184.469 848.547 187.397 848.547 191.309C848.547 195.221 851.547 198.173 855.555 198.173ZM855.555 194.861C853.539 194.861 852.099 193.421 852.099 191.309C852.099 189.221 853.539 187.757 855.555 187.757C857.571 187.757 859.011 189.221 859.011 191.309C859.011 193.421 857.571 194.861 855.555 194.861Z" fill="#27272B"/>
<path d="M1076.29 194.429V190.973H1082.12V187.685H1076.29V184.349H1082.74V180.989H1072.66V197.789H1083.01V194.429H1076.29ZM1093.05 184.541C1091.3 184.541 1089.74 185.285 1088.76 186.437L1088.09 184.829H1085.69V197.789H1089.19V190.997C1089.19 188.909 1090.29 187.613 1092.09 187.613C1093.61 187.613 1094.35 188.549 1094.35 190.517V197.789H1097.85V189.941C1097.85 186.653 1096.01 184.541 1093.05 184.541ZM1107.3 194.669C1106.01 194.669 1105.29 193.949 1105.29 192.701V187.661H1108.82V184.829H1105.24V181.469H1104.57L1099.46 186.893V187.661H1101.78V193.181C1101.78 196.037 1103.54 197.789 1106.39 197.789H1108.89V194.669H1107.3ZM1117.9 184.757C1116.22 184.757 1115.07 185.285 1114.14 186.437L1113.51 184.829H1111.28V197.789H1114.78V191.069C1114.78 188.957 1115.55 188.069 1117.52 188.069H1119.06V184.757H1117.9ZM1133.35 191.285C1133.35 187.541 1130.61 184.469 1126.63 184.469C1122.79 184.469 1119.91 187.421 1119.91 191.309C1119.91 195.197 1122.81 198.173 1126.63 198.173C1129.65 198.173 1132.12 196.373 1133.06 193.541H1129.39C1128.86 194.477 1127.85 195.053 1126.63 195.053C1124.92 195.053 1123.77 194.069 1123.46 192.293H1133.28C1133.32 191.957 1133.35 191.621 1133.35 191.285ZM1126.63 187.469C1128.21 187.469 1129.34 188.333 1129.84 189.917H1123.56C1123.96 188.381 1125.07 187.469 1126.63 187.469ZM1146.31 184.829L1145.73 186.125C1144.6 185.093 1143.12 184.469 1141.44 184.469C1137.81 184.469 1134.98 187.349 1134.98 190.973C1134.98 194.621 1137.81 197.477 1141.44 197.477C1142.83 197.477 1144.1 197.045 1145.13 196.325V196.805C1145.13 198.701 1143.67 199.853 1141.89 199.853C1140.6 199.853 1139.23 199.253 1138.82 198.077H1135.34C1135.94 201.029 1138.44 202.829 1141.94 202.829C1146.04 202.829 1148.56 200.357 1148.56 196.301V184.853L1146.31 184.829ZM1141.84 194.333C1139.92 194.333 1138.53 192.917 1138.53 190.997C1138.53 189.053 1139.92 187.637 1141.84 187.637C1143.76 187.637 1145.16 189.053 1145.16 190.997C1145.16 192.917 1143.76 194.333 1141.84 194.333ZM1162.5 184.829L1162.14 186.053C1161.02 185.069 1159.55 184.469 1157.87 184.469C1153.98 184.469 1151.08 187.397 1151.08 191.309C1151.08 195.221 1153.98 198.173 1157.87 198.173C1159.53 198.173 1160.97 197.597 1162.07 196.613L1162.38 197.789H1165.12V184.829H1162.5ZM1158.16 194.861C1156.12 194.861 1154.63 193.325 1154.63 191.309C1154.63 189.269 1156.12 187.757 1158.16 187.757C1160.2 187.757 1161.69 189.269 1161.69 191.309C1161.69 193.349 1160.2 194.861 1158.16 194.861Z" fill="#27272B"/>
<path d="M917.728 5.2L913.6 17.08L909.352 5.2H905.344L911.896 22H915.328L921.688 5.2H917.728ZM932.767 9.04L932.407 10.264C931.279 9.28 929.815 8.68 928.135 8.68C924.247 8.68 921.343 11.608 921.343 15.52C921.343 19.432 924.247 22.384 928.135 22.384C929.791 22.384 931.231 21.808 932.335 20.824L932.647 22H935.383V9.04H932.767ZM928.423 19.072C926.383 19.072 924.895 17.536 924.895 15.52C924.895 13.48 926.383 11.968 928.423 11.968C930.463 11.968 931.951 13.48 931.951 15.52C931.951 17.56 930.463 19.072 928.423 19.072ZM938.777 22H942.281V4.384H938.777V22ZM945.645 7.312H949.125V4.072H945.645V7.312ZM945.645 22H949.149V9.04H945.645V22ZM962.016 4.384V9.76C961.008 9.064 959.808 8.68 958.464 8.68C954.528 8.68 951.648 11.608 951.648 15.544C951.648 19.456 954.528 22.408 958.464 22.408C960.048 22.408 961.44 21.856 962.52 20.944L962.928 22.024H965.52V4.384H962.016ZM958.752 19.096C956.712 19.096 955.224 17.56 955.224 15.544C955.224 13.504 956.712 11.992 958.752 11.992C960.792 11.992 962.28 13.504 962.28 15.544C962.28 17.56 960.792 19.096 958.752 19.096ZM979.455 9.04L979.095 10.264C977.967 9.28 976.503 8.68 974.823 8.68C970.935 8.68 968.031 11.608 968.031 15.52C968.031 19.432 970.935 22.384 974.823 22.384C976.479 22.384 977.919 21.808 979.023 20.824L979.335 22H982.071V9.04H979.455ZM975.111 19.072C973.071 19.072 971.583 17.536 971.583 15.52C971.583 13.48 973.071 11.968 975.111 11.968C977.151 11.968 978.639 13.48 978.639 15.52C978.639 17.56 977.151 19.072 975.111 19.072ZM998.137 16.912H994.609C994.033 18.304 992.905 19.096 991.489 19.096C989.617 19.096 988.153 17.512 988.153 15.52C988.153 13.504 989.593 11.968 991.489 11.968C992.881 11.968 994.057 12.736 994.609 14.008H998.089C997.465 10.816 994.873 8.68 991.513 8.68C987.577 8.68 984.601 11.608 984.601 15.496C984.601 18.928 986.929 21.664 990.145 22.264L989.689 23.92L989.857 24.136H990.841C991.369 24.136 991.729 24.448 991.729 24.928C991.729 25.384 991.369 25.72 990.841 25.72H989.401V27.496H990.985C992.737 27.496 994.081 26.512 994.081 25.024C994.081 23.776 993.193 22.96 991.897 22.768L992.017 22.36C995.161 22.144 997.561 20.008 998.137 16.912ZM1004.45 7.336C1004.45 6.76 1004.83 6.352 1005.29 6.352C1005.62 6.352 1005.96 6.568 1006.37 6.832C1006.94 7.168 1007.64 7.624 1008.62 7.624C1010.3 7.624 1011.36 6.376 1011.36 4.36V4.096H1009.42V4.312C1009.42 4.912 1009.08 5.32 1008.58 5.32C1008.12 5.32 1007.76 5.08 1007.38 4.792C1006.85 4.384 1006.25 4 1005.26 4C1003.54 4 1002.5 5.272 1002.5 7.264V7.504H1004.45V7.336ZM1011.02 9.04L1010.66 10.264C1009.54 9.28 1008.07 8.68 1006.39 8.68C1002.5 8.68 999.601 11.608 999.601 15.52C999.601 19.432 1002.5 22.384 1006.39 22.384C1008.05 22.384 1009.49 21.808 1010.59 20.824L1010.9 22H1013.64V9.04H1011.02ZM1006.68 19.072C1004.64 19.072 1003.15 17.536 1003.15 15.52C1003.15 13.48 1004.64 11.968 1006.68 11.968C1008.72 11.968 1010.21 13.48 1010.21 15.52C1010.21 17.536 1008.72 19.072 1006.68 19.072ZM1023.18 22.384C1027.19 22.384 1030.19 19.432 1030.19 15.52C1030.19 11.608 1027.19 8.68 1023.18 8.68C1019.17 8.68 1016.17 11.608 1016.17 15.52C1016.17 19.432 1019.17 22.384 1023.18 22.384ZM1023.18 19.072C1021.16 19.072 1019.72 17.632 1019.72 15.52C1019.72 13.432 1021.16 11.968 1023.18 11.968C1025.2 11.968 1026.64 13.432 1026.64 15.52C1026.64 17.632 1025.2 19.072 1023.18 19.072Z" fill="#27272B"/>
</svg>
