<svg width="403" height="36" viewBox="0 0 403 36" fill="none" xmlns="http://www.w3.org/2000/svg">
<path d="M401.824 28.0153C402.516 27.5603 402.709 26.6303 402.254 25.938L394.84 14.6559C394.385 13.9636 393.455 13.7711 392.762 14.2261C392.07 14.681 391.878 15.6111 392.333 16.3034L398.923 26.3319L388.894 32.922C388.202 33.3769 388.009 34.307 388.464 34.9993C388.919 35.6916 389.849 35.8841 390.542 35.4291L401.824 28.0153ZM1 26.7617C1.30392 28.2306 1.30429 28.2305 1.30511 28.2304C1.306 28.2302 1.30729 28.2299 1.30907 28.2295C1.31262 28.2288 1.31801 28.2277 1.32522 28.2262C1.33964 28.2232 1.36135 28.2188 1.39029 28.2128C1.44816 28.2009 1.5349 28.1831 1.6499 28.1595C1.8799 28.1124 2.22291 28.0425 2.67398 27.9511C3.57611 27.7685 4.91046 27.5004 6.63736 27.159C10.0912 26.4764 15.115 25.5008 21.3916 24.33C33.9453 21.9884 51.508 18.866 71.5419 15.7438C111.631 9.49608 161.536 3.26172 201 3.26172V0.261719C161.293 0.261719 111.198 6.52736 71.0799 12.7796C51.0102 15.9074 33.4174 19.0351 20.8415 21.3809C14.5534 22.5539 9.51893 23.5314 6.05565 24.216C4.324 24.5582 2.98509 24.8272 2.07861 25.0108C1.62537 25.1026 1.28024 25.173 1.04816 25.2205C0.932126 25.2442 0.844354 25.2623 0.785467 25.2744C0.756024 25.2805 0.733802 25.285 0.718878 25.2881C0.711416 25.2897 0.705779 25.2908 0.701977 25.2916C0.700075 25.292 0.698601 25.2923 0.69765 25.2925C0.696635 25.2927 0.696081 25.2928 1 26.7617ZM201 3.26172C240.464 3.26172 290.369 9.49608 330.458 15.7438C350.492 18.866 368.055 21.9884 380.608 24.33C386.885 25.5008 391.909 26.4764 395.363 27.159C397.09 27.5004 398.424 27.7685 399.326 27.9511C399.777 28.0425 400.12 28.1124 400.35 28.1595C400.465 28.1831 400.552 28.2009 400.61 28.2128C400.639 28.2188 400.66 28.2232 400.675 28.2262C400.682 28.2277 400.687 28.2288 400.691 28.2295C400.693 28.2299 400.694 28.2302 400.695 28.2304C400.696 28.2305 400.696 28.2306 401 26.7617C401.304 25.2928 401.303 25.2927 401.302 25.2925C401.301 25.2923 401.3 25.292 401.298 25.2916C401.294 25.2908 401.289 25.2897 401.281 25.2881C401.266 25.285 401.244 25.2805 401.215 25.2744C401.156 25.2623 401.068 25.2442 400.952 25.2205C400.72 25.173 400.375 25.1026 399.921 25.0108C399.015 24.8272 397.676 24.5582 395.944 24.216C392.481 23.5314 387.447 22.5539 381.158 21.3809C368.583 19.0351 350.99 15.9074 330.92 12.7796C290.802 6.52736 240.707 0.261719 201 0.261719V3.26172Z" fill="#EEFB6E"/>
</svg>
