<svg width="90" height="90" viewBox="0 0 90 90" fill="none" xmlns="http://www.w3.org/2000/svg">
<g filter="url(#filter0_d_177_752)">
<path d="M73.7654 58.7349C82.7315 44.2289 78.2406 25.201 63.7345 16.2349C49.2285 7.26879 30.2006 11.7598 21.2345 26.2658C12.2684 40.7718 16.7594 59.7997 31.2655 68.7658C45.7715 77.7319 64.7993 73.2409 73.7654 58.7349Z" fill="white"/>
</g>
<path d="M67.6683 30.0133C74.5543 41.1539 71.1052 55.7672 59.9646 62.6532C48.824 69.5391 34.2107 66.09 27.3247 54.9495C20.4388 43.8089 23.8879 29.1955 35.0284 22.3096C46.169 15.4236 60.7824 18.8727 67.6683 30.0133Z" stroke="url(#paint0_linear_177_752)"/>
<path fill-rule="evenodd" clip-rule="evenodd" d="M54.1855 44.061C53.5416 43.6717 52.688 43.2374 51.9393 43.5518C51.3553 43.7914 50.9809 44.7049 50.6065 45.1766C50.5247 45.2926 50.402 45.3733 50.2631 45.4025C50.1242 45.4316 49.9794 45.4071 49.8578 45.3338C47.72 44.4933 45.9269 42.9586 44.7664 40.9762C44.6696 40.8499 44.6243 40.6916 44.6396 40.5332C44.6549 40.3748 44.7296 40.2281 44.8488 40.1227C45.2807 39.712 45.5981 39.1959 45.7697 38.6252C45.8053 38.0065 45.6624 37.3905 45.3579 36.8507C45.0509 36.1918 44.7065 35.2484 44.0476 34.874C43.7288 34.7274 43.3741 34.6769 43.027 34.7288C42.6799 34.7807 42.3555 34.9326 42.0934 35.166C41.6445 35.5528 41.2883 36.0356 41.0512 36.5786C40.814 37.1217 40.7019 37.7111 40.7233 38.3032C40.7253 38.6386 40.7655 38.9727 40.8431 39.2991C41.0564 40.0746 41.3791 40.8158 41.8014 41.5003C42.1069 42.0166 42.4393 42.5164 42.7972 42.9978C43.9669 44.6026 45.4366 45.9655 47.1249 47.011C47.9729 47.5388 48.8769 47.9708 49.8204 48.2988C50.8058 48.741 51.8915 48.9116 52.965 48.793C53.5775 48.7026 54.158 48.4617 54.6545 48.0919C55.1511 47.7221 55.5482 47.235 55.8102 46.6741C55.9621 46.3363 56.009 45.9607 55.945 45.5959C55.7952 44.8547 54.7919 44.4204 54.1855 44.061Z" fill="url(#paint1_linear_177_752)"/>
<path d="M32.3071 57.981L34.5908 49.4679C32.7611 46.1562 32.1868 42.2959 32.9734 38.5951C33.76 34.8943 35.8546 31.6013 38.873 29.3201C41.8914 27.0389 45.6312 25.9226 49.4061 26.1759C53.1811 26.4293 56.7381 28.0353 59.4246 30.6994C62.1111 33.3634 63.747 36.9069 64.032 40.6796C64.317 44.4523 63.2321 48.2013 60.9763 51.2387C58.7205 54.2761 55.4451 56.3983 51.751 57.2159C48.057 58.0335 44.192 57.4917 40.8651 55.6898L32.3071 57.981ZM41.2919 52.5002L41.831 52.8222C44.513 54.4181 47.6863 54.9774 50.7523 54.3949C53.8183 53.8123 56.5652 52.128 58.475 49.6597C60.3848 47.1913 61.3254 44.1095 61.1195 40.9954C60.9136 37.8813 59.5754 34.9502 57.3572 32.7548C55.1391 30.5594 52.1943 29.2514 49.0782 29.0776C45.9622 28.9038 42.8902 29.8762 40.4417 31.8113C37.9932 33.7464 36.3373 36.5105 35.7864 39.5824C35.2354 42.6543 35.8275 45.8216 37.4509 48.487L37.7878 49.0261L36.5075 53.7806L41.2919 52.5002Z" fill="url(#paint2_linear_177_752)"/>
<defs>
<filter id="filter0_d_177_752" x="0.618164" y="11.6191" width="77.7637" height="77.7637" filterUnits="userSpaceOnUse" color-interpolation-filters="sRGB">
<feFlood flood-opacity="0" result="BackgroundImageFix"/>
<feColorMatrix in="SourceAlpha" type="matrix" values="0 0 0 0 0 0 0 0 0 0 0 0 0 0 0 0 0 0 127 0" result="hardAlpha"/>
<feMorphology radius="4" operator="erode" in="SourceAlpha" result="effect1_dropShadow_177_752"/>
<feOffset dx="-10" dy="10"/>
<feGaussianBlur stdDeviation="5"/>
<feComposite in2="hardAlpha" operator="out"/>
<feColorMatrix type="matrix" values="0 0 0 0 0.129412 0 0 0 0 0.145098 0 0 0 0 0.160784 0 0 0 0.2 0"/>
<feBlend mode="normal" in2="BackgroundImageFix" result="effect1_dropShadow_177_752"/>
<feBlend mode="normal" in="SourceGraphic" in2="effect1_dropShadow_177_752" result="shape"/>
</filter>
<linearGradient id="paint0_linear_177_752" x1="30.3694" y1="25.3697" x2="64.6164" y2="59.6167" gradientUnits="userSpaceOnUse">
<stop stop-color="#60FC7C"/>
<stop offset="1" stop-color="#4AB161"/>
</linearGradient>
<linearGradient id="paint1_linear_177_752" x1="46.5919" y1="34.8995" x2="49.618" y2="48.7482" gradientUnits="userSpaceOnUse">
<stop stop-color="#60FC7C"/>
<stop offset="1" stop-color="#4AB161"/>
</linearGradient>
<linearGradient id="paint2_linear_177_752" x1="44.5366" y1="26.5702" x2="51.8659" y2="57.5547" gradientUnits="userSpaceOnUse">
<stop stop-color="#60FC7C"/>
<stop offset="1" stop-color="#4AB161"/>
</linearGradient>
</defs>
</svg>
